<?xml version="1.0" encoding="UTF-8"?>
<svg width="300px" height="193px" viewBox="0 0 300 193" version="1.1" xmlns="http://www.w3.org/2000/svg" xmlns:xlink="http://www.w3.org/1999/xlink">
    <title>Asset 1</title>
    <defs>
        <radialGradient cx="-15.0431945%" cy="63.9692048%" fx="-15.0431945%" fy="63.9692048%" r="138.287791%" gradientTransform="translate(-0.150432,0.639692),scale(0.569203,1.000000),translate(0.150432,-0.639692)" id="radialGradient-1">
            <stop stop-color="#42E8E0" offset="0%"></stop>
            <stop stop-color="#40D8D7" offset="2%"></stop>
            <stop stop-color="#3AAFC0" offset="6%"></stop>
            <stop stop-color="#3589AC" offset="11%"></stop>
            <stop stop-color="#30699A" offset="17%"></stop>
            <stop stop-color="#2C4D8B" offset="23%"></stop>
            <stop stop-color="#29377F" offset="30%"></stop>
            <stop stop-color="#272675" offset="38%"></stop>
            <stop stop-color="#251B6F" offset="47%"></stop>
            <stop stop-color="#24146B" offset="61%"></stop>
            <stop stop-color="#24126A" offset="100%"></stop>
        </radialGradient>
        <radialGradient cx="35.1814168%" cy="108.965626%" fx="35.1814168%" fy="108.965626%" r="390.136048%" gradientTransform="translate(0.351814,1.089656),scale(0.357363,1.000000),translate(-0.351814,-1.089656)" id="radialGradient-2">
            <stop stop-color="#42E8E0" offset="0%"></stop>
            <stop stop-color="#3CCACE" offset="10%"></stop>
            <stop stop-color="#2F87A5" offset="34%"></stop>
            <stop stop-color="#255385" offset="56%"></stop>
            <stop stop-color="#1E2D6E" offset="75%"></stop>
            <stop stop-color="#1A1660" offset="91%"></stop>
            <stop stop-color="#180D5B" offset="100%"></stop>
        </radialGradient>
        <linearGradient x1="0.0128659348%" y1="50.002775%" x2="99.992534%" y2="50.002775%" id="linearGradient-3">
            <stop stop-color="#180D5B" offset="0%"></stop>
            <stop stop-color="#1A1660" offset="9%"></stop>
            <stop stop-color="#1E2D6E" offset="25%"></stop>
            <stop stop-color="#255385" offset="44%"></stop>
            <stop stop-color="#2F87A5" offset="66%"></stop>
            <stop stop-color="#3CCACE" offset="90%"></stop>
            <stop stop-color="#42E8E0" offset="100%"></stop>
        </linearGradient>
        <radialGradient cx="-0.994432713%" cy="65.2852544%" fx="-0.994432713%" fy="65.2852544%" r="72.2186099%" gradientTransform="translate(-0.009944,0.652853),scale(0.557914,1.000000),translate(0.009944,-0.652853)" id="radialGradient-4">
            <stop stop-color="#42E8E0" offset="0%"></stop>
            <stop stop-color="#3CCACE" offset="10%"></stop>
            <stop stop-color="#2F87A5" offset="34%"></stop>
            <stop stop-color="#255385" offset="56%"></stop>
            <stop stop-color="#1E2D6E" offset="75%"></stop>
            <stop stop-color="#1A1660" offset="91%"></stop>
            <stop stop-color="#180D5B" offset="100%"></stop>
        </radialGradient>
        <radialGradient cx="1.27580741%" cy="50.9063041%" fx="1.27580741%" fy="50.9063041%" r="143.853516%" gradientTransform="translate(0.012758,0.509063),scale(0.577436,1.000000),translate(-0.012758,-0.509063)" id="radialGradient-5">
            <stop stop-color="#42E8E0" offset="0%"></stop>
            <stop stop-color="#3CCACE" offset="10%"></stop>
            <stop stop-color="#2F87A5" offset="34%"></stop>
            <stop stop-color="#255385" offset="56%"></stop>
            <stop stop-color="#1E2D6E" offset="75%"></stop>
            <stop stop-color="#1A1660" offset="91%"></stop>
            <stop stop-color="#180D5B" offset="100%"></stop>
        </radialGradient>
        <radialGradient cx="7.86306449%" cy="57.8134533%" fx="7.86306449%" fy="57.8134533%" r="117.72734%" gradientTransform="translate(0.078631,0.578135),scale(0.577436,1.000000),translate(-0.078631,-0.578135)" id="radialGradient-6">
            <stop stop-color="#42E8E0" offset="0%"></stop>
            <stop stop-color="#3CCACE" offset="10%"></stop>
            <stop stop-color="#2F87A5" offset="34%"></stop>
            <stop stop-color="#255385" offset="56%"></stop>
            <stop stop-color="#1E2D6E" offset="75%"></stop>
            <stop stop-color="#1A1660" offset="91%"></stop>
            <stop stop-color="#180D5B" offset="100%"></stop>
        </radialGradient>
        <radialGradient cx="-0.981364591%" cy="58.4117627%" fx="-0.981364591%" fy="58.4117627%" r="166.403131%" gradientTransform="translate(-0.009814,0.584118),scale(0.577436,1.000000),translate(0.009814,-0.584118)" id="radialGradient-7">
            <stop stop-color="#5577E7" offset="0%"></stop>
            <stop stop-color="#ABD9FF" offset="9.87215909%"></stop>
            <stop stop-color="#5576E6" offset="34%"></stop>
            <stop stop-color="#255385" offset="56%"></stop>
            <stop stop-color="#1E2D6E" offset="75%"></stop>
            <stop stop-color="#1A1660" offset="91%"></stop>
            <stop stop-color="#180D5B" offset="100%"></stop>
        </radialGradient>
        <radialGradient cx="-1.5208679%" cy="57.7875448%" fx="-1.5208679%" fy="57.7875448%" r="211.193998%" gradientTransform="translate(-0.015209,0.577875),scale(0.939232,1.000000),translate(0.015209,-0.577875)" id="radialGradient-8">
            <stop stop-color="#42E8E0" offset="0%"></stop>
            <stop stop-color="#3CCACE" offset="10%"></stop>
            <stop stop-color="#2F87A5" offset="34%"></stop>
            <stop stop-color="#255385" offset="56%"></stop>
            <stop stop-color="#1E2D6E" offset="75%"></stop>
            <stop stop-color="#1A1660" offset="91%"></stop>
            <stop stop-color="#180D5B" offset="100%"></stop>
        </radialGradient>
    </defs>
    <g id="Design" stroke="none" stroke-width="1" fill="none" fill-rule="evenodd">
        <g id="001-Home" transform="translate(-275.000000, -4461.000000)" fill-rule="nonzero">
            <g id="Asset-1" transform="translate(275.000000, 4461.000000)">
                <path d="M177.664085,181.559264 L16.8202684,88.6588189 C14.9490136,87.6075521 15.1802923,85.6942466 17.3459018,84.4537518 L113.221432,29.073018 C115.469412,27.8246692 118.175982,27.7154704 120.517223,28.7786633 L281.36104,121.668596 C283.232295,122.719862 282.990504,124.643681 280.835407,125.873663 L184.938851,181.254397 C182.696294,182.492569 180.002375,182.605464 177.664085,181.559264 Z" id="Path" fill="#0B0244" opacity="0.3"></path>
                <path d="M181.080702,192.502951 C179.719133,192.541076 178.370096,192.233654 177.159477,191.609374 L1.70305218,90.2462317 C0.712397403,89.7849565 0.0573181686,88.8144688 0,87.7231914 C0.160413087,86.337469 1.03936077,85.138904 2.31278691,84.5693911 L113.88373,20.1267377 C116.52241,18.6129136 120.538249,18.4447109 122.83001,19.7798197 L298.296948,121.13245 C299.284568,121.602752 299.937382,122.573914 300,123.666003 C299.845753,125.054137 298.964793,126.255446 297.687213,126.819803 L186.074219,191.251944 C184.54189,192.083492 182.824087,192.513847 181.080702,192.502951 L181.080702,192.502951 Z M177.664085,190.810412 C179.714055,191.98783 183.309388,191.861678 185.695763,190.452981 L297.266706,126.041865 C298.246126,125.614508 298.942525,124.720269 299.116936,123.666003 C299.04909,122.905447 298.574237,122.241458 297.876441,121.931412 L122.377965,20.5787824 C120.275432,19.390851 116.732663,19.5275156 114.346287,20.9257005 L2.76483162,85.3473285 C1.7819749,85.7678248 1.08620036,86.6663679 0.925114763,87.7231914 C0.994601828,88.4774914 1.46446492,89.1361029 2.15509689,89.4472689 L177.664085,190.810412 Z" id="Shape" fill="#1270ED"></path>
                <path d="M289.340155,97.6050991 L282.685636,98.7720053 L124.99562,7.72178975 C122.553658,6.60602081 119.725731,6.72320011 117.384448,8.03716978 L27.2278095,60.1064132 L15.537723,62.2089468 L15.537723,66.0145325 L15.537723,66.0145325 C15.58974,66.8340413 16.0801513,67.5616188 16.8202684,67.9173254 L179.819182,162.058265 C182.263467,163.162117 185.085771,163.045171 187.430354,161.742885 L287.479413,103.986288 C288.488588,103.544327 289.193986,102.607782 289.340155,101.515812 L289.340155,101.515812 L289.340155,97.6050991 Z" id="Path" fill="#312A91"></path>
                <path d="M289.340155,97.6050991 L282.685636,98.7720053 L124.99562,7.72178975 C122.553658,6.60602081 119.725731,6.72320011 117.384448,8.03716978 L27.2278095,60.1064132 L15.537723,62.2089468 L15.537723,66.0145325 L15.537723,66.0145325 C15.58974,66.8340413 16.0801513,67.5616188 16.8202684,67.9173254 L179.819182,162.058265 C182.263467,163.162117 185.085771,163.045171 187.430354,161.742885 L287.479413,103.986288 C288.488588,103.544327 289.193986,102.607782 289.340155,101.515812 L289.340155,101.515812 L289.340155,97.6050991 Z" id="Path" fill="url(#radialGradient-1)" opacity="0.5" style="mix-blend-mode: lighten;"></path>
                <path d="M287.479413,101.641964 L187.461892,159.388048 C185.120609,160.702017 182.292682,160.819197 179.85072,159.703428 L16.8202684,65.5624878 C16.0487003,65.2104863 15.5406457,64.454501 15.506185,63.6071316 L15.506185,63.6071316 L15.506185,64.605835 L15.506185,64.605835 C15.5406457,65.4532045 16.0487003,66.2091897 16.8202684,66.5611912 L179.819182,160.702131 C182.263467,161.805983 185.085771,161.689037 187.430354,160.386751 L287.447875,102.640667 C288.459972,102.19681 289.165902,101.255571 289.308617,100.159677 L289.308617,100.159677 L289.308617,99.1084106 L289.308617,99.1084106 C289.189533,100.216873 288.494085,101.180109 287.479413,101.641964 Z" id="Path" fill="url(#radialGradient-2)"></path>
                <path d="M179.85072,158.168578 L16.8202684,64.0276383 C14.8649122,62.9027828 15.1172162,60.936914 17.3669271,59.6333432 L117.415986,1.88725914 C119.757269,0.573289468 122.585196,0.456110168 125.027158,1.5718791 L288.047097,95.6812809 C289.99194,96.8061364 289.750149,98.7720053 287.500438,100.075576 L187.482917,157.82166 C185.141207,159.152868 182.303542,159.281852 179.85072,158.168578 Z" id="Path" fill="#312A91"></path>
                <path d="M179.85072,158.168578 L16.8202684,64.0276383 C14.8649122,62.9027828 15.1172162,60.936914 17.3669271,59.6333432 L117.415986,1.88725914 C119.757269,0.573289468 122.585196,0.456110168 125.027158,1.5718791 L288.047097,95.6812809 C289.99194,96.8061364 289.750149,98.7720053 287.500438,100.075576 L187.482917,157.82166 C185.141207,159.152868 182.303542,159.281852 179.85072,158.168578 Z" id="Path" fill="url(#linearGradient-3)" opacity="0.7" style="mix-blend-mode: lighten;"></path>
                <g id="Group" opacity="0.4" transform="translate(15.502489, 0.000000)">
                    <path d="M273.837666,96.8166491 L267.183148,97.9835552 L109.493131,6.922827 C107.048847,5.81897472 104.226542,5.93592103 101.88196,7.23820703 L11.725321,59.3074505 L0.0352344062,61.409984 L0.0352344062,62.0407441 L0.0352344062,62.0407441 C0.0520921397,62.8924495 0.548567663,63.6615797 1.31777987,64.0276383 L164.316694,158.168578 C166.758656,159.284347 169.586583,159.167168 171.927865,157.853198 L271.945386,100.107114 C272.957484,99.6632573 273.663413,98.7220181 273.806128,97.6261245 L273.806128,97.6261245 L273.837666,96.8166491 Z" id="Path" fill="url(#radialGradient-4)" opacity="0.5"></path>
                    <path d="M164.348232,157.369615 L1.31777987,63.2286755 C-0.637576331,62.1038201 -0.385272304,60.1379512 1.8644386,58.8343804 L101.913498,1.06727105 C104.25808,-0.235014953 107.080385,-0.351961253 109.524669,0.751891019 L272.544608,94.9138562 C274.489452,96.0387116 274.24766,98.0045805 271.997949,99.3081513 L171.980428,157.054235 C169.633599,158.375294 166.796052,158.492548 164.348232,157.369615 L164.348232,157.369615 Z" id="Path" fill="url(#radialGradient-5)" opacity="0.7" style="mix-blend-mode: lighten;"></path>
                    <path d="M164.348232,157.369615 L1.31777987,63.2286755 C-0.637576331,62.1038201 -0.385272304,60.1379512 1.8644386,58.8343804 L101.913498,1.06727105 C104.25808,-0.235014953 107.080385,-0.351961253 109.524669,0.751891019 L272.544608,94.9138562 C274.489452,96.0387116 274.24766,98.0045805 271.997949,99.3081513 L171.980428,157.054235 C169.633599,158.375294 166.796052,158.492548 164.348232,157.369615 L164.348232,157.369615 Z" id="Path" fill="#312A91"></path>
                </g>
                <path d="M179.85072,157.369615 L16.8202684,63.2286755 C14.8649122,62.1038201 15.1172162,60.1379512 17.3669271,58.8343804 L117.415986,1.06727105 C119.760569,-0.235014953 122.582873,-0.351961253 125.027158,0.751891019 L288.047097,94.9138562 C289.99194,96.0387116 289.750149,98.0045805 287.500438,99.3081513 L187.482917,157.054235 C185.136088,158.375294 182.298541,158.492548 179.85072,157.369615 L179.85072,157.369615 Z" id="Path" fill="url(#radialGradient-6)" opacity="0.5"></path>
                <path d="M16.8202684,63.2286755 C14.8649122,62.1038201 15.1172162,60.1379512 17.3669271,58.8343804 L117.415986,1.06727105 C119.760569,-0.235014953 122.582873,-0.351961253 125.027158,0.751891019 L288.047097,94.9138562 C289.99194,96.0387116 289.750149,98.0045805 287.500438,99.3081513 L187.482917,157.054235 C185.136088,158.375294 182.298541,158.492548 179.85072,157.369615 L16.8202684,63.2286755 Z" id="Path" fill="url(#radialGradient-7)" opacity="0.5"></path>
                <path d="M180.75481,157.338077 L17.7558959,63.1971375 C15.6533623,61.9145921 15.2643936,60.5584579 18.3025546,58.8028424 L118.320076,1.06727105 C119.397521,0.468507378 120.591733,0.109885173 121.820794,0.0160042751 C120.286715,-0.0166616632 118.769968,0.345330541 117.415986,1.06727105 L17.3984652,58.8869438 C15.1487542,60.1905146 14.8964502,62.1563834 16.8518064,63.2812389 L179.85072,157.422179 C181.117118,158.059427 182.542493,158.311609 183.950661,158.147553 C182.83412,158.151873 181.734666,157.873393 180.75481,157.338077 Z" id="Path" fill="url(#radialGradient-8)" opacity="0.9"></path>
                <path d="M274.117812,101.778628 C274.386932,101.865534 274.569304,102.116071 274.569304,102.398876 C274.569304,102.68168 274.386932,102.932217 274.117812,103.019123 C273.454003,103.341341 272.679087,103.341341 272.015278,103.019123 C271.746158,102.932217 271.563786,102.68168 271.563786,102.398876 C271.563786,102.116071 271.746158,101.865534 272.015278,101.778628 C272.676828,101.446727 273.456262,101.446727 274.117812,101.778628 Z" id="Path" fill="#1270ED" opacity="0.2"></path>
                <path d="M277.450328,99.886348 C277.722862,99.9668709 277.909895,100.217158 277.909895,100.501339 C277.909895,100.78552 277.722862,101.035807 277.450328,101.11633 C276.789579,101.451597 276.008543,101.451597 275.347794,101.11633 C275.07526,101.035807 274.888226,100.78552 274.888226,100.501339 C274.888226,100.217158 275.07526,99.9668709 275.347794,99.886348 C276.008543,99.5510809 276.789579,99.5510809 277.450328,99.886348 Z" id="Path" fill="#1270ED" opacity="0.6"></path>
                <path d="M280.793356,97.9204792 C281.062476,98.0073847 281.244848,98.2579223 281.244848,98.5407266 C281.244848,98.8235309 281.062476,99.0740684 280.793356,99.160974 C280.131806,99.492875 279.352372,99.492875 278.690822,99.160974 C278.421702,99.0740684 278.23933,98.8235309 278.23933,98.5407266 C278.23933,98.2579223 278.421702,98.0073847 278.690822,97.9204792 C279.354631,97.5982608 280.129547,97.5982608 280.793356,97.9204792 L280.793356,97.9204792 Z" id="Path" fill="#1270ED"></path>
                <path d="M223.741108,138.972447 C223.741108,139.382441 224.02495,139.540131 224.382381,139.34039 C224.756153,139.093638 224.990316,138.683853 225.013141,138.23656 C225.013141,137.826566 224.729299,137.658363 224.382381,137.868617 C224.002021,138.11056 223.762886,138.522185 223.741108,138.972447 L223.741108,138.972447 Z" id="Path" fill="#180D5B"></path>
                <path d="M221.218068,140.423195 C221.218068,140.833189 221.50191,141.001392 221.859341,140.791138 C222.225389,140.559941 222.462555,140.171144 222.500613,139.739872 C222.500613,139.329877 222.216771,139.172187 221.859341,139.371928 C221.49563,139.60542 221.259235,139.992952 221.218068,140.423195 Z" id="Path" fill="#180D5B"></path>
                <path d="M218.66349,141.937019 C218.66349,142.3365 218.947332,142.504703 219.304762,142.304962 C219.677656,142.052544 219.911031,141.640248 219.935522,141.19062 C219.935522,140.791138 219.65168,140.622936 219.304762,140.822676 C218.925364,141.070448 218.687091,141.484496 218.66349,141.937019 L218.66349,141.937019 Z" id="Path" fill="#180D5B"></path>
                <path d="M258.390861,118.96684 C258.390861,119.376834 258.674703,119.534524 259.032134,119.334783 C259.394703,119.100179 259.630727,118.713254 259.673406,118.283517 C259.673406,117.873523 259.379052,117.70532 259.032134,117.915573 C258.666085,118.146771 258.428919,118.535568 258.390861,118.96684 L258.390861,118.96684 Z" id="Path" fill="#180D5B"></path>
                <path d="M255.867821,120.417588 C255.867821,120.827582 256.162175,120.995785 256.509093,120.785532 C256.875142,120.554334 257.112308,120.165537 257.150366,119.734265 C257.150366,119.324271 256.866524,119.166581 256.509093,119.366321 C256.147647,119.602018 255.911984,119.988349 255.867821,120.417588 Z" id="Path" fill="#180D5B"></path>
                <path d="M253.355293,121.878849 C253.355293,122.27833 253.639135,122.446533 253.996566,122.246792 C254.36946,121.994374 254.602835,121.582078 254.627326,121.13245 C254.627326,120.732968 254.343484,120.564766 253.996566,120.764506 C253.617167,121.012278 253.378894,121.426326 253.355293,121.878849 Z" id="Path" fill="#180D5B"></path>
                <path d="M236.272208,131.739731 L236.272208,131.739731 C236.272208,132.244339 236.577075,132.475618 236.955531,132.254852 L241.412903,129.679248 C241.835243,129.377079 242.091954,128.894772 242.106739,128.375678 L242.106739,128.375678 C242.106739,127.87107 241.791359,127.639791 241.412903,127.850044 L236.955531,130.436161 C236.53199,130.736048 236.277885,131.220802 236.272208,131.739731 Z" id="Path" fill="#180D5B"></path>
                <polygon id="Path" fill="#1270ED" points="87.0448891 72.6270005 80.5585731 68.8844908 95.6757893 60.1589766 102.162105 63.9014863"></polygon>
                <polygon id="Path" fill="#1270ED" points="97.9675509 78.9346012 91.4812349 75.1815788 116.448821 60.7687113 122.935137 64.511221"></polygon>
                <polygon id="Path" fill="#1270ED" opacity="0.4" points="108.8797 85.2316892 102.393384 81.4891795 125.636892 68.0750154 132.123208 71.8175251"></polygon>
                <polygon id="Path" fill="#1270ED" points="119.802362 91.5392898 113.316046 87.7967801 142.940744 70.6926697 149.42706 74.4351794"></polygon>
                <polygon id="Path" fill="#1270ED" points="130.725024 97.8468905 124.238708 94.1043808 161.295862 72.7005892 167.782178 76.4430989"></polygon>
                <polygon id="Path" fill="#1270ED" opacity="0.4" points="141.637173 104.143978 135.150857 100.401469 166.205277 82.4773702 172.691593 86.2198799"></polygon>
                <polygon id="Path" fill="#1270ED" points="152.559835 110.451579 146.073519 106.709069 194.936398 78.4930691 201.422714 82.2355789"></polygon>
                <polygon id="Path" fill="#1270ED" points="156.99618 113.006157 214.752777 79.6704879 221.239093 83.4129977 163.482496 116.75918"></polygon>
                <path d="M126.719697,61.1471673 C125.714798,61.1653258 124.722355,60.9226483 123.839226,60.4428186 C123.100024,60.1061094 122.603982,59.3922926 122.546168,58.5820764 C122.608399,57.7734258 123.103032,57.0616368 123.839226,56.7213342 C125.647387,55.7931739 127.792008,55.7931739 129.600168,56.7213342 C130.336363,57.0616368 130.830996,57.7734258 130.893226,58.5820764 C130.835412,59.3922926 130.33937,60.1061094 129.600168,60.4428186 C128.717389,60.9235535 127.724704,61.1662904 126.719697,61.1471673 L126.719697,61.1471673 Z M126.719697,56.7213342 C125.841444,56.7035823 124.97314,56.9098046 124.196657,57.3205563 C123.635981,57.4840866 123.250517,57.9980393 123.250517,58.5820764 C123.250517,59.1661135 123.635981,59.6800661 124.196657,59.8435965 C125.78756,60.6423435 127.662348,60.6423435 129.25325,59.8435965 C129.813926,59.6800661 130.19939,59.1661135 130.19939,58.5820764 C130.19939,57.9980393 129.813926,57.4840866 129.25325,57.3205563 C128.472342,56.9115229 127.601102,56.7054618 126.719697,56.7213342 L126.719697,56.7213342 Z" id="Shape" fill="#1270ED"></path>
                <path d="M105.999229,60.5058946 C104.994222,60.5250176 104.001537,60.2822807 103.118758,59.8015459 C102.342771,59.5110015 101.828561,58.7694001 101.828561,57.9408037 C101.828561,57.1122072 102.342771,56.3706058 103.118758,56.0800615 C104.924077,55.1554946 107.063868,55.1554946 108.869187,56.0800615 C109.645175,56.3706058 110.159384,57.1122072 110.159384,57.9408037 C110.159384,58.7694001 109.645175,59.5110015 108.869187,59.8015459 C107.990226,60.2823273 107.000905,60.5251276 105.999229,60.5058946 L105.999229,60.5058946 Z M105.999229,56.0800615 C105.117825,56.0641891 104.246584,56.2702502 103.465676,56.6792835 C102.905001,56.8428139 102.519536,57.3567666 102.519536,57.9408037 C102.519536,58.5248408 102.905001,59.0387934 103.465676,59.2023238 C105.056579,60.0010707 106.931367,60.0010707 108.522269,59.2023238 L108.522269,59.2023238 C109.082945,59.0387934 109.468409,58.5248408 109.468409,57.9408037 C109.468409,57.3567666 109.082945,56.8428139 108.522269,56.6792835 C107.745786,56.2685319 106.877482,56.0623096 105.999229,56.0800615 L105.999229,56.0800615 Z" id="Shape" fill="#1270ED"></path>
                <path d="M135.907769,68.4429588 C134.907554,68.4606308 133.919489,68.2217581 133.037811,67.7491227 C132.261823,67.4585783 131.747614,66.7169769 131.747614,65.8883805 C131.747614,65.059784 132.261823,64.3181826 133.037811,64.0276383 C134.84058,63.0925583 136.98547,63.0925583 138.78824,64.0276383 C139.564227,64.3181826 140.078437,65.059784 140.078437,65.8883805 C140.078437,66.7169769 139.564227,67.4585783 138.78824,67.7491227 L138.78824,67.7491227 C137.902768,68.221746 136.911324,68.4605609 135.907769,68.4429588 Z M135.907769,64.0276383 C135.029516,64.0098864 134.161212,64.2161087 133.384729,64.6268604 C132.824053,64.7903907 132.438588,65.3043434 132.438588,65.8883805 C132.438588,66.4724176 132.824053,66.9863702 133.384729,67.1499006 C134.975631,67.9486476 136.850419,67.9486476 138.441322,67.1499006 L138.441322,67.1499006 C139.001997,66.9863702 139.387462,66.4724176 139.387462,65.8883805 C139.387462,65.3043434 139.001997,64.7903907 138.441322,64.6268604 C137.660414,64.217827 136.789173,64.0117659 135.907769,64.0276383 Z" id="Shape" fill="#1270ED"></path>
                <path d="M153.21162,71.0711257 C152.206613,71.0902488 151.213928,70.8475118 150.331149,70.366777 C149.555162,70.0762326 149.040952,69.3346312 149.040952,68.5060348 C149.040952,67.6774383 149.555162,66.9358369 150.331149,66.6452926 C152.136468,65.7207257 154.276259,65.7207257 156.081578,66.6452926 C156.82078,66.9820017 157.316823,67.6958186 157.374636,68.5060348 C157.321354,69.3178428 156.823852,70.0337595 156.081578,70.366777 C155.202617,70.8475584 154.213296,71.0903587 153.21162,71.0711257 Z M153.21162,66.6452926 C152.330216,66.6294202 151.458975,66.8354813 150.678067,67.2445146 C150.117391,67.408045 149.731927,67.9219977 149.731927,68.5060348 C149.731927,69.0900719 150.117391,69.6040245 150.678067,69.7675549 C152.267773,70.5713377 154.144955,70.5713377 155.73466,69.7675549 C156.295336,69.6040245 156.6808,69.0900719 156.6808,68.5060348 C156.6808,67.9219977 156.295336,67.408045 155.73466,67.2445146 C154.958177,66.833763 154.089873,66.6275407 153.21162,66.6452926 Z" id="Shape" fill="#1270ED"></path>
                <path d="M171.566738,73.0790452 C170.565062,73.0982783 169.575741,72.855478 168.69678,72.3746965 C167.920792,72.0841522 167.406583,71.3425507 167.406583,70.5139543 C167.406583,69.6853579 167.920792,68.9437565 168.69678,68.6532121 C170.499549,67.7181321 172.644439,67.7181321 174.447209,68.6532121 C175.223196,68.9437565 175.737406,69.6853579 175.737406,70.5139543 C175.737406,71.3425507 175.223196,72.0841522 174.447209,72.3746965 L174.447209,72.3746965 C173.56443,72.8554314 172.571745,73.0981683 171.566738,73.0790452 Z M171.566738,68.6532121 C170.688485,68.6354603 169.820181,68.8416825 169.043698,69.2524342 C168.483022,69.4159646 168.097558,69.9299172 168.097558,70.5139543 C168.097558,71.0979914 168.483022,71.611944 169.043698,71.7754744 C170.633403,72.5792572 172.510585,72.5792572 174.100291,71.7754744 C174.660966,71.611944 175.046431,71.0979914 175.046431,70.5139543 C175.046431,69.9299172 174.660966,69.4159646 174.100291,69.2524342 C173.319383,68.8434008 172.448142,68.6373397 171.566738,68.6532121 L171.566738,68.6532121 Z" id="Shape" fill="#1270ED"></path>
                <path d="M176.476154,82.8453136 C175.475939,82.8629857 174.487874,82.6241129 173.606195,82.1514775 C172.830208,81.8609332 172.315999,81.1193318 172.315999,80.2907353 C172.315999,79.4621389 172.830208,78.7205375 173.606195,78.4299931 C175.408965,77.4949132 177.553855,77.4949132 179.356625,78.4299931 C180.132612,78.7205375 180.646822,79.4621389 180.646822,80.2907353 C180.646822,81.1193318 180.132612,81.8609332 179.356625,82.1514775 L179.356625,82.1514775 C178.471153,82.6241008 177.479709,82.8629157 176.476154,82.8453136 L176.476154,82.8453136 Z M176.476154,78.4299931 C175.597901,78.4122413 174.729597,78.6184635 173.953114,79.0292152 C173.392438,79.1927456 173.006973,79.7066982 173.006973,80.2907353 C173.006973,80.8747724 173.392438,81.3887251 173.953114,81.5522555 C175.544016,82.3510024 177.418804,82.3510024 179.009707,81.5522555 L179.009707,81.5522555 C179.570382,81.3887251 179.955847,80.8747724 179.955847,80.2907353 C179.955847,79.7066982 179.570382,79.1927456 179.009707,79.0292152 C178.228799,78.6201818 177.357558,78.4141207 176.476154,78.4299931 L176.476154,78.4299931 Z" id="Shape" fill="#1270ED"></path>
                <path d="M205.207275,78.8610125 C204.203872,78.8772267 203.212771,78.6384944 202.326804,78.1671764 C201.553058,77.8717266 201.041916,77.129413 201.041916,76.3011779 C201.041916,75.4729428 201.553058,74.7306292 202.326804,74.4351794 C204.134964,73.5070191 206.279585,73.5070191 208.087746,74.4351794 C208.861492,74.7306292 209.372633,75.4729428 209.372633,76.3011779 C209.372633,77.129413 208.861492,77.8717266 208.087746,78.1671764 C207.202274,78.6397997 206.21083,78.8786146 205.207275,78.8610125 Z M205.207275,74.4351794 C204.327586,74.4159148 203.458043,74.6260545 202.684235,75.0449141 C202.119576,75.2013273 201.728655,75.7152566 201.728655,76.3011779 C201.728655,76.8870992 202.119576,77.4010285 202.684235,77.5574417 C204.272719,78.3663282 206.152343,78.3663282 207.740828,77.5574417 C208.292683,77.3880945 208.669403,76.8784322 208.669403,76.3011779 C208.669403,75.7239236 208.292683,75.2142613 207.740828,75.0449141 C206.961884,74.6306447 206.089268,74.4242583 205.207275,74.445692 L205.207275,74.4351794 Z" id="Shape" fill="#1270ED"></path>
                <path d="M225.023654,80.0384313 C224.020098,80.0560334 223.028654,79.8172185 222.143183,79.3445952 C221.406988,79.0042926 220.912355,78.2925036 220.850124,77.483853 C220.907938,76.6736369 221.403981,75.95982 222.143183,75.6231108 C223.945952,74.6880309 226.090842,74.6880309 227.893612,75.6231108 C228.631794,75.9590999 229.124845,76.6744283 229.176157,77.483853 C229.118343,78.2940692 228.622301,79.0078861 227.883099,79.3445952 L227.883099,79.3445952 C227.004543,79.8154864 226.020321,80.054305 225.023654,80.0384313 L225.023654,80.0384313 Z M225.023654,75.6231108 C224.142249,75.6072385 223.271008,75.8132995 222.490101,76.2223329 C221.925443,76.3787461 221.534521,76.8926754 221.534521,77.4785967 C221.534521,78.064518 221.925443,78.5784473 222.490101,78.7348605 C224.078585,79.543747 225.958209,79.543747 227.546694,78.7348605 L227.546694,78.7348605 C228.111352,78.5784473 228.502273,78.064518 228.502273,77.4785967 C228.502273,76.8926754 228.111352,76.3787461 227.546694,76.2223329 C226.770211,75.8115812 225.901906,75.605359 225.023654,75.6231108 Z" id="Shape" fill="#1270ED"></path>
                <path d="M221.218068,77.5994924 L221.218068,77.5994924 L209.01286,76.884631 C208.92079,76.8792206 208.834664,76.8373709 208.773513,76.7683292 C208.712361,76.6992876 208.681219,76.6087375 208.686968,76.5166876 C208.686293,76.4224509 208.726224,76.3324868 208.796771,76.2700024 C208.867318,76.2075179 208.961459,76.1786316 209.054911,76.1907949 L221.260118,76.9056563 C221.352189,76.9110666 221.438315,76.9529164 221.499466,77.021958 C221.560618,77.0909997 221.59176,77.1815498 221.586011,77.2735997 C221.583513,77.3667236 221.542512,77.4546425 221.472775,77.5164091 C221.403039,77.5781757 221.310812,77.6082594 221.218068,77.5994924 Z" id="Path" fill="#1270ED"></path>
                <path d="M180.197638,80.1225561 C180.024821,80.1245262 179.876895,79.9990126 179.85072,79.8281779 C179.835671,79.7360093 179.858417,79.6416658 179.913816,79.5664823 C179.969214,79.4912988 180.052585,79.4416259 180.145075,79.4286966 L201.44374,76.4851496 C201.628964,76.4529671 201.806118,76.5741775 201.843221,76.758479 C201.862042,76.9488219 201.727681,77.1202478 201.538354,77.1474477 L180.239689,80.1225561 L180.197638,80.1225561 Z" id="Path" fill="#1270ED"></path>
                <path d="M175.414374,78.5141528 C175.281711,78.5165202 175.159284,78.4430639 175.098994,78.3248665 L172.32365,72.7952032 C172.267313,72.6844067 172.274364,72.5519709 172.342148,72.4477832 C172.409932,72.3435954 172.528151,72.2834843 172.652272,72.2900932 C172.776393,72.296702 172.88756,72.3690266 172.943897,72.4798232 L175.719242,78.0094864 C175.763402,78.0915554 175.772685,78.1879407 175.745,78.2769293 C175.717314,78.3659179 175.654989,78.4400251 175.572064,78.4825565 C175.522019,78.5031156 175.468477,78.5138241 175.414374,78.5141528 Z" id="Path" fill="#1270ED"></path>
                <path d="M167.813716,70.4508783 L167.813716,70.4508783 L156.964642,69.2629468 C156.776876,69.2409361 156.641303,69.0726382 156.659775,68.8844908 C156.664865,68.7911858 156.708534,68.7042018 156.78032,68.6443806 C156.852105,68.5845594 156.945538,68.5572916 157.038231,68.5691108 L167.897817,69.7570422 C167.990113,69.7675423 168.074344,69.8146184 168.131647,69.8877295 C168.18895,69.9608406 168.214539,70.0538787 168.202684,70.1460109 C168.192184,70.2383074 168.145108,70.3225376 168.071997,70.3798409 C167.998886,70.4371442 167.905848,70.4627333 167.813716,70.4508783 Z" id="Path" fill="#1270ED"></path>
                <path d="M149.511161,68.3483447 L149.458598,68.3483447 L139.555665,66.8450333 C139.431723,66.8262542 139.327214,66.7427794 139.281506,66.6260531 C139.235799,66.5093267 139.255836,66.3770823 139.33407,66.279135 C139.412304,66.1811877 139.536849,66.1324181 139.660791,66.1511972 L149.563724,67.6545087 C149.755322,67.6690236 149.898876,67.8361108 149.884361,68.0277084 C149.869846,68.2193059 149.702758,68.3628597 149.511161,68.3483447 L149.511161,68.3483447 Z" id="Path" fill="#1270ED"></path>
                <path d="M133.637033,64.4271436 C133.56048,64.4280477 133.486044,64.4019953 133.426779,64.353531 L128.748642,60.6425593 C128.597686,60.5206336 128.574153,60.2994195 128.696079,60.1484639 C128.818004,59.9975083 129.039219,59.9739748 129.190174,60.0959006 L133.857799,63.8068723 C133.989959,63.945058 133.989959,64.162782 133.857799,64.3009677 C133.803547,64.3702805 133.724291,64.4155698 133.637033,64.4271436 Z" id="Path" fill="#1270ED"></path>
                <path d="M122.914112,58.8133551 L122.914112,58.8133551 L109.804815,58.403361 C109.712792,58.4006148 109.625635,58.3614035 109.562538,58.2943628 C109.499441,58.2273221 109.465579,58.1379504 109.468409,58.0459303 C109.479249,57.8607686 109.62992,57.7146632 109.815327,57.709525 L109.815327,57.709525 L122.924624,58.119519 C123.016647,58.1222653 123.103804,58.1614766 123.166901,58.2285173 C123.229998,58.295558 123.26386,58.3849297 123.26103,58.4769497 C123.25019,58.6621115 123.099519,58.8082168 122.914112,58.8133551 L122.914112,58.8133551 Z" id="Path" fill="#1270ED"></path>
                <path d="M109.478922,71.1026637 C108.478667,71.1369724 107.486496,70.9124664 106.598451,70.4508783 C105.822464,70.160334 105.308254,69.4187325 105.308254,68.5901361 C105.308254,67.7615397 105.822464,67.0199383 106.598451,66.7293939 C108.406611,65.8012337 110.551233,65.8012337 112.359393,66.7293939 C113.13538,67.0199383 113.64959,67.7615397 113.64959,68.5901361 C113.64959,69.4187325 113.13538,70.160334 112.359393,70.4508783 C111.47168,70.9133699 110.479267,71.1379304 109.478922,71.1026637 L109.478922,71.1026637 Z M109.478922,66.6768306 C108.600669,66.6590787 107.732365,66.865301 106.955882,67.2760526 C106.395206,67.439583 106.009742,67.9535357 106.009742,68.5375728 C106.009742,69.1216099 106.395206,69.6355625 106.955882,69.7990929 C108.546784,70.5978398 110.421572,70.5978398 112.012475,69.7990929 L112.012475,69.7990929 C112.573151,69.6355625 112.958615,69.1216099 112.958615,68.5375728 C112.958615,67.9535357 112.573151,67.439583 112.012475,67.2760526 C111.231567,66.8670193 110.360326,66.6609582 109.478922,66.6768306 L109.478922,66.6768306 Z" id="Shape" fill="#FFFFFF"></path>
                <path d="M88.7584539,70.4508783 C87.7539792,70.4652518 86.7624814,70.2228053 85.877983,69.7465296 C85.1019958,69.4559852 84.587786,68.7143838 84.587786,67.8857874 C84.587786,67.0571909 85.1019958,66.3155895 85.877983,66.0250452 C87.6807524,65.0899652 89.8256428,65.0899652 91.6284122,66.0250452 C92.4043994,66.3155895 92.9186092,67.0571909 92.9186092,67.8857874 C92.9186092,68.7143838 92.4043994,69.4559852 91.6284122,69.7465296 C90.7475413,70.2223783 89.7595385,70.4648552 88.7584539,70.4508783 Z M88.7584539,66.0250452 C87.8767075,66.0059637 87.0046772,66.2122115 86.224901,66.6242672 C85.6642254,66.7877976 85.2787609,67.3017503 85.2787609,67.8857874 C85.2787609,68.4698245 85.6642254,68.9837771 86.224901,69.1473075 C87.8158036,69.9460544 89.6905916,69.9460544 91.2814942,69.1473075 L91.2814942,69.1473075 C91.8421698,68.9837771 92.2276343,68.4698245 92.2276343,67.8857874 C92.2276343,67.3017503 91.8421698,66.7877976 91.2814942,66.6242672 C90.5040441,66.2171624 89.6357923,66.0145703 88.7584539,66.0355578 L88.7584539,66.0250452 Z" id="Shape" fill="#FFFFFF"></path>
                <path d="M118.666994,78.3984551 C117.666779,78.4161272 116.678714,78.1772545 115.797035,77.7046191 C115.057833,77.3679099 114.561791,76.654093 114.503977,75.8438769 C114.55726,75.0320688 115.054761,74.3161521 115.797035,73.9831347 C117.599805,73.0480547 119.744695,73.0480547 121.547465,73.9831347 C122.286667,74.3198438 122.782709,75.0336607 122.840523,75.8438769 C122.778292,76.6525274 122.283659,77.3643164 121.547465,77.7046191 L121.547465,77.7046191 C120.661993,78.1772424 119.670549,78.4160573 118.666994,78.3984551 L118.666994,78.3984551 Z M118.666994,73.9831347 C117.788741,73.9653828 116.920437,74.1716051 116.143953,74.5823567 C115.579295,74.7387699 115.188374,75.2526992 115.188374,75.8386205 C115.188374,76.4245419 115.579295,76.9384711 116.143953,77.0948843 C117.732438,77.9037708 119.612062,77.9037708 121.200547,77.0948843 C121.765205,76.9384711 122.156126,76.4245419 122.156126,75.8386205 C122.156126,75.2526992 121.765205,74.7387699 121.200547,74.5823567 C120.419639,74.1733234 119.548398,73.9672623 118.666994,73.9831347 Z" id="Shape" fill="#FFFFFF"></path>
                <path d="M135.970845,81.0266221 C134.965838,81.0457451 133.973153,80.8030082 133.090374,80.3222733 C132.314387,80.031729 131.800177,79.2901276 131.800177,78.4615311 C131.800177,77.6329347 132.314387,76.8913333 133.090374,76.6007889 C134.893143,75.665709 137.038034,75.665709 138.840803,76.6007889 C139.61679,76.8913333 140.131,77.6329347 140.131,78.4615311 C140.131,79.2901276 139.61679,80.031729 138.840803,80.3222733 L138.840803,80.3222733 C137.961841,80.8030548 136.972521,81.0458551 135.970845,81.0266221 L135.970845,81.0266221 Z M135.970845,76.6007889 C135.089098,76.5817075 134.217068,76.7879553 133.437292,77.200011 C132.876616,77.3635414 132.491152,77.877494 132.491152,78.4615311 C132.491152,79.0455682 132.876616,79.5595209 133.437292,79.7230513 C135.028195,80.5217982 136.902983,80.5217982 138.493885,79.7230513 L138.493885,79.7230513 C139.054561,79.5595209 139.440025,79.0455682 139.440025,78.4615311 C139.440025,77.877494 139.054561,77.3635414 138.493885,77.200011 C137.717402,76.7892593 136.849098,76.5830371 135.970845,76.6007889 L135.970845,76.6007889 Z" id="Shape" fill="#FFFFFF"></path>
                <path d="M154.325963,83.0660796 C153.324878,83.0800565 152.336875,82.8375796 151.456004,82.3617309 C150.680017,82.0711865 150.165808,81.3295851 150.165808,80.5009887 C150.165808,79.6723922 150.680017,78.9307908 151.456004,78.6402465 C153.258774,77.7051665 155.403664,77.7051665 157.206434,78.6402465 C157.982421,78.9307908 158.496631,79.6723922 158.496631,80.5009887 C158.496631,81.3295851 157.982421,82.0711865 157.206434,82.3617309 L157.206434,82.3617309 C156.321935,82.8380066 155.330438,83.0804532 154.325963,83.0660796 Z M154.325963,78.6402465 C153.44771,78.6224946 152.579406,78.8287169 151.802923,79.2394685 C151.242247,79.4029989 150.856782,79.9169516 150.856782,80.5009887 C150.856782,81.0850258 151.242247,81.5989784 151.802923,81.7625088 C153.393825,82.5612558 155.268613,82.5612558 156.859516,81.7625088 L156.859516,81.7625088 C157.420191,81.5989784 157.805656,81.0850258 157.805656,80.5009887 C157.805656,79.9169516 157.420191,79.4029989 156.859516,79.2394685 C156.081487,78.8194818 155.210089,78.6025361 154.325963,78.6087085 L154.325963,78.6402465 Z" id="Shape" fill="#FFFFFF"></path>
                <path d="M159.235379,92.80081 C158.231976,92.8170242 157.240875,92.5782919 156.354908,92.1069739 C155.578921,91.8164295 155.064711,91.0748281 155.064711,90.2462317 C155.064711,89.4176353 155.578921,88.6760338 156.354908,88.3854895 C158.163068,87.4573293 160.307689,87.4573293 162.11585,88.3854895 C162.891837,88.6760338 163.406047,89.4176353 163.406047,90.2462317 C163.406047,91.0748281 162.891837,91.8164295 162.11585,92.1069739 C161.230378,92.5795972 160.238934,92.8184121 159.235379,92.80081 L159.235379,92.80081 Z M159.235379,88.3854895 C158.357126,88.3677377 157.488822,88.5739599 156.712338,88.9847116 C156.151663,89.148242 155.766198,89.6621946 155.766198,90.2462317 C155.766198,90.8302688 156.151663,91.3442214 156.712338,91.5077518 C158.303241,92.3064988 160.178029,92.3064988 161.768932,91.5077518 C162.329607,91.3442214 162.715072,90.8302688 162.715072,90.2462317 C162.715072,89.6621946 162.329607,89.148242 161.768932,88.9847116 C160.988024,88.5756782 160.116783,88.3696171 159.235379,88.3854895 Z" id="Shape" fill="#FFFFFF"></path>
                <path d="M187.9665,88.8270216 C186.9616,88.84518 185.969158,88.6025025 185.086029,88.1226728 C184.334076,87.7789571 183.835691,87.0455601 183.792971,86.2198799 C183.855201,85.4112294 184.349834,84.6994404 185.086029,84.3591378 C186.894189,83.4309775 189.03881,83.4309775 190.846971,84.3591378 C191.583165,84.6994404 192.077798,85.4112294 192.140029,86.2198799 C192.082215,87.0300961 191.586173,87.743913 190.846971,88.0806221 L190.846971,88.0806221 C189.968189,88.5760017 188.97527,88.8332909 187.9665,88.8270216 Z M187.9665,84.4011884 C187.086811,84.3819239 186.217268,84.5920635 185.443459,85.0109232 C184.878801,85.1673363 184.48788,85.6812656 184.48788,86.267187 C184.48788,86.8531083 184.878801,87.3670376 185.443459,87.5234507 C187.033165,88.3272335 188.910347,88.3272335 190.500053,87.5234507 L190.500053,87.5234507 C191.051908,87.3541036 191.428628,86.8444413 191.428628,86.267187 C191.428628,85.6899326 191.051908,85.1802703 190.500053,85.0109232 C189.722091,84.5930033 188.849421,84.3829829 187.9665,84.4011884 L187.9665,84.4011884 Z" id="Shape" fill="#FFFFFF"></path>
                <path d="M207.782878,89.9939277 C206.779323,90.0115298 205.787879,89.7727149 204.902407,89.3000916 C204.128661,89.0046418 203.61752,88.2623281 203.61752,87.4340931 C203.61752,86.605858 204.128661,85.8635443 204.902407,85.5680945 C206.707727,84.6435277 208.847517,84.6435277 210.652837,85.5680945 C211.426583,85.8635443 211.937724,86.605858 211.937724,87.4340931 C211.937724,88.2623281 211.426583,89.0046418 210.652837,89.3000916 L210.652837,89.3000916 C209.771158,89.772727 208.783093,90.0115997 207.782878,89.9939277 Z M207.782878,85.5680945 C206.900569,85.5554592 206.029276,85.7651479 205.249325,86.1778293 C204.684667,86.3342425 204.293746,86.8481717 204.293746,87.4340931 C204.293746,88.0200144 204.684667,88.5339437 205.249325,88.6903569 C206.83781,89.4992433 208.717434,89.4992433 210.305919,88.6903569 L210.305919,88.6903569 C210.870577,88.5339437 211.261498,88.0200144 211.261498,87.4340931 C211.261498,86.8481717 210.870577,86.3342425 210.305919,86.1778293 C209.530239,85.7638631 208.661996,85.5540377 207.782878,85.5680945 Z" id="Shape" fill="#FFFFFF"></path>
                <path d="M203.945755,87.5549888 L203.945755,87.5549888 L191.740547,86.8401273 C191.647423,86.8376296 191.559505,86.7966281 191.497738,86.7268915 C191.435971,86.657155 191.405888,86.5649279 191.414655,86.472184 C191.413866,86.3779472 191.453911,86.2879832 191.524458,86.2254987 C191.595005,86.1630143 191.689146,86.134128 191.782598,86.1462913 L203.987805,86.8611527 C204.079876,86.866563 204.166002,86.9084127 204.227153,86.9774544 C204.288304,87.0464961 204.319446,87.1370462 204.313698,87.2290961 C204.308288,87.3211664 204.266438,87.4072928 204.197396,87.468444 C204.128355,87.5295952 204.037804,87.5607372 203.945755,87.5549888 Z" id="Path" fill="#FFFFFF"></path>
                <path d="M162.94635,90.078029 C162.754753,90.078029 162.599432,89.9227085 162.599432,89.731111 C162.599432,89.5395134 162.754753,89.3841929 162.94635,89.3841929 L184.245015,86.4301333 C184.437643,86.4108392 184.612273,86.54411 184.644497,86.7350007 C184.663317,86.9253436 184.528957,87.0967695 184.339629,87.1239694 L163.040964,90.078029 L162.94635,90.078029 Z" id="Path" fill="#FFFFFF"></path>
                <path d="M158.173599,88.4695908 C158.042227,88.4673499 157.922019,88.3952251 157.858219,88.2803628 L155.082875,82.7506996 C155.026538,82.6399031 155.033589,82.5074673 155.101373,82.4032796 C155.169157,82.2990918 155.287376,82.2389807 155.411497,82.2455895 C155.535618,82.2521983 155.646785,82.324523 155.703122,82.4353195 L158.478467,87.9649828 C158.522627,88.0470518 158.53191,88.1434371 158.504225,88.2324257 C158.476539,88.3214143 158.414214,88.3955215 158.331289,88.4380528 L158.173599,88.4695908 Z" id="Path" fill="#FFFFFF"></path>
                <path d="M150.57294,80.4063747 L150.57294,80.4063747 L139.723867,79.2184432 C139.536101,79.1964324 139.400528,79.0281345 139.419,78.8399872 C139.42409,78.7466822 139.467759,78.6596981 139.539544,78.5998769 C139.61133,78.5400557 139.704763,78.512788 139.797456,78.5246071 L150.657042,79.7125386 C150.749338,79.7230386 150.833568,79.7701148 150.890872,79.8432259 C150.948175,79.9163369 150.973764,80.009375 150.961909,80.1015073 C150.951409,80.1938038 150.904333,80.278034 150.831222,80.3353373 C150.758111,80.3926406 150.665073,80.4182296 150.57294,80.4063747 Z" id="Path" fill="#FFFFFF"></path>
                <path d="M132.270386,78.2512778 L132.270386,78.2512778 L122.314889,76.758479 C122.125265,76.7262133 121.99518,76.549669 122.020535,76.3589976 C122.033464,76.2665077 122.083137,76.1831369 122.158321,76.1277386 C122.233504,76.0723402 122.327847,76.0495937 122.420016,76.0646429 L132.322949,77.5679544 C132.446891,77.5773439 132.556409,77.6521424 132.610248,77.764174 C132.664088,77.8762056 132.654069,78.00845 132.583966,78.111092 C132.513864,78.2137341 132.394328,78.27118 132.270386,78.2617904 L132.270386,78.2512778 Z" id="Path" fill="#FFFFFF"></path>
                <path d="M116.396257,74.382616 C116.316391,74.3842353 116.238413,74.3582426 116.175491,74.3090274 L111.507867,70.5980556 C111.356911,70.4761299 111.333378,70.2549159 111.455304,70.1039603 C111.577229,69.9530046 111.798443,69.9294712 111.949399,70.0513969 L116.617024,73.7623686 C116.749184,73.9005543 116.749184,74.1182783 116.617024,74.256464 C116.561385,74.3241526 116.482821,74.3690462 116.396257,74.382616 Z" id="Path" fill="#FFFFFF"></path>
                <path d="M105.662824,68.7688515 L105.662824,68.7688515 L92.5114763,68.3483447 C92.4194537,68.3455985 92.3322964,68.3063872 92.2691993,68.2393465 C92.2061021,68.1723058 92.1722402,68.0829341 92.175071,67.990914 C92.1807548,67.8034341 92.3344229,67.6544225 92.521989,67.6545086 L92.521989,67.6545086 L105.631286,68.0645027 C105.723308,68.067249 105.810466,68.1064603 105.873563,68.173501 C105.93666,68.2405417 105.970522,68.3299134 105.967691,68.4219334 C105.964449,68.5965163 105.835543,68.7432032 105.662824,68.7688515 Z" id="Path" fill="#FFFFFF"></path>
                <path d="M144.875074,42.4346187 L154.073659,48.0694086 C158.898973,44.9156083 158.741283,40.1954205 153.569051,37.2098228 C149.868592,35.1072893 144.58072,34.4134532 139.902583,35.243954 L144.875074,42.4346187 Z" id="Path" fill="#1270ED"></path>
                <path d="M134.194204,44.5581776 L142.436136,42.455644 L137.789536,35.7590747 C136.54845,36.1045641 135.354937,36.6024499 134.236255,37.2413608 C130.399131,39.4490211 129.316326,42.6553847 130.98784,45.4202164 L134.194204,44.5581776 Z" id="Path" fill="#1270ED" opacity="0.4"></path>
                <path d="M143.624067,43.5804995 C140.060273,44.4845889 135.497775,45.683033 131.912955,46.5976351 C132.600822,47.2952104 133.382822,47.89321 134.236255,48.374276 C139.198234,51.2442343 147.040684,51.443975 152.412657,48.9734981 L143.624067,43.5804995 Z" id="Path" fill="#1270ED" opacity="0.4"></path>
            </g>
        </g>
    </g>
</svg>