<?xml version="1.0" encoding="UTF-8"?>
<svg width="253px" height="205px" viewBox="0 0 253 205" version="1.1" xmlns="http://www.w3.org/2000/svg" xmlns:xlink="http://www.w3.org/1999/xlink">
    <title>Asset 1</title>
    <g id="Design" stroke="none" stroke-width="1" fill="none" fill-rule="evenodd">
        <g id="001-Home" transform="translate(-299.000000, -3869.000000)">
            <g id="Asset-1" transform="translate(299.000000, 3869.000000)">
                <path d="M243.506553,103.028392 L172.831005,62.0834923 C168.99348,59.8596262 162.281201,60.1308294 157.840249,62.6869193 L9.49211119,148.048119 C5.05115917,150.604209 4.56299345,154.475635 8.40051841,156.699501 L79.0760663,197.62406 C82.9135913,199.847926 89.6258699,199.583503 94.0668219,197.027413 L242.39462,111.666213 C246.855912,109.130463 247.344077,105.238698 243.506553,103.028392 Z" id="Path" fill="#173D7A" fill-rule="nonzero" opacity="0.5"></path>
                <path d="M77.0488226,182.640085 L3.49852098,140.047626 C1.07803263,138.644149 -0.047460556,136.759287 0.0339003971,134.799844 L0,134.799844 L0,124.127999 L4.06804765,128.921515 C4.33247075,128.745233 4.60367393,128.568951 4.89521734,128.406229 L155.419761,41.8110548 C161.393011,38.3735545 170.424076,38.0142103 175.590497,41.0042253 L248.137347,83.0000373 L252.68,77.9963387 L252.6461,88.437661 L252.6461,88.437661 C252.754581,90.7903486 251.079901,93.2989779 247.703422,95.2177404 L97.2127788,181.833255 C91.2395288,185.270755 82.2152431,185.6301 77.0488226,182.640085 Z" id="Path" fill="#396CAA" fill-rule="nonzero"></path>
                <path d="M37.2904368,156.509658 L41.5212064,158.957267 C42.083953,159.282711 42.5449984,158.957267 42.5449984,158.184338 L42.5449984,158.184338 C42.5317536,157.410025 42.1518414,156.68794 41.5212064,156.238455 L37.2904368,153.790847 C36.7276902,153.465403 36.2666448,153.790847 36.2666448,154.563776 L36.2666448,154.563776 C36.2798896,155.338089 36.6598018,156.060174 37.2904368,156.509658 L37.2904368,156.509658 Z" id="Path" fill="#173D7A" fill-rule="nonzero"></path>
                <path d="M155.419761,41.8110548 C161.393011,38.3735545 170.424076,38.0142103 175.590497,41.0042253 L248.137347,83.0000373 L252.68,77.9963387 L252.6461,88.437661 L252.6461,88.437661 C252.754581,90.7903486 251.079901,93.2989779 247.703422,95.2177404 L97.2127788,181.833255 C93.8800723,183.642033 90.1563154,184.61021 86.3646517,184.653768 L86.5070334,81.4812995 L155.419761,41.8110548 Z" id="Path" fill="#5793CE" fill-rule="nonzero"></path>
                <path d="M249.174699,72.8705986 L175.604057,30.2781397 C170.437637,27.2813446 161.406571,27.6474689 155.433321,31.0849691 L4.99013846,117.673363 C-0.983111517,121.110864 -1.64077922,126.324745 3.5256413,129.31476 L77.0759429,171.907219 C82.2423634,174.897234 91.2734292,174.53789 97.2466792,171.100389 L247.710202,84.511995 C253.683452,81.0744947 254.334339,75.8606137 249.174699,72.8705986 Z" id="Path" fill="#D4ECFF" fill-rule="nonzero"></path>
                <path d="M77.0217023,173.046272 L3.47140067,130.453813 C0.806829452,128.914735 -0.298323495,126.77901 0.0813609531,124.602605 C0.210182462,126.372205 1.34245573,128.046885 3.53920146,129.34866 L77.0895031,171.941119 C82.2559236,174.931134 91.2869894,174.57179 97.2602393,171.13429 L247.710202,84.511995 C250.598516,82.8440955 252.232515,80.7626111 252.578299,78.7218072 C252.754581,81.1083951 251.086681,83.6712652 247.649181,85.6510484 L97.1924386,172.239443 C91.2191886,175.676943 82.1881228,176.036287 77.0217023,173.046272 Z" id="Path" fill="#FFFFFF" fill-rule="nonzero"></path>
                <path d="M243.506553,74.5520583 L172.831005,33.6207188 C168.99348,31.3968528 162.281201,31.668056 157.840249,34.2173658 L9.49211119,119.585346 C5.05115917,122.134656 4.56299345,126.012861 8.40051841,128.236727 L79.0760663,169.161287 C82.9135913,171.385153 89.6258699,171.11395 94.0668219,168.55786 L242.39462,83.1966596 C246.855912,80.6541298 247.344077,76.7691443 243.506553,74.5520583 Z" id="Path" fill="#173D7A" fill-rule="nonzero"></path>
                <polygon id="Path" fill="#D4ECFF" fill-rule="nonzero" points="96.9076752 147.905738 47.033411 119.11074 50.2200483 117.273339 100.087532 146.068336"></polygon>
                <polygon id="Path" fill="#D4ECFF" fill-rule="nonzero" points="62.2072287 139.511999 36.9514329 124.934829 40.1380702 123.090647 65.387086 137.674598"></polygon>
                <polygon id="Path" fill="#1270ED" fill-rule="nonzero" points="74.4588322 146.583622 66.2684963 141.857907 69.4551336 140.020505 77.6454696 144.746221"></polygon>
                <polygon id="Path" fill="#FFFFFF" fill-rule="nonzero" points="86.8256971 153.723046 78.6353612 148.99733 81.8219985 147.159929 90.0055544 151.885644"></polygon>
                <polygon id="Path" fill="#FFFFFF" fill-rule="nonzero" points="62.4919921 133.857413 41.995812 122.019394 45.1756692 120.181993 65.6718493 132.013231"></polygon>
                <polygon id="Path" fill="#D4ECFF" fill-rule="nonzero" points="87.5037051 148.298982 67.014305 136.467744 70.1941623 134.630342 90.6903424 146.461581"></polygon>
                <path d="M72.3298873,123.002506 C71.1655579,123.5988 69.7855133,123.5988 68.6211839,123.002506 C67.5906118,122.412639 67.5906118,121.449868 68.6211839,120.860001 C69.7871011,120.270328 71.1639701,120.270328 72.3298873,120.860001 C73.3604594,121.449868 73.3604594,122.412639 72.3298873,123.002506 Z" id="Path" fill="#1270ED" fill-rule="nonzero"></path>
                <path d="M77.8827724,126.209483 C76.7144922,126.799263 75.335569,126.799263 74.1672888,126.209483 C73.1434968,125.612836 73.1434968,124.656845 74.1672888,124.066978 C75.3334505,123.468367 76.7166107,123.468367 77.8827724,124.066978 C78.9065643,124.656845 78.9065643,125.612836 77.8827724,126.209483 Z" id="Path" fill="#FFFFFF" fill-rule="nonzero"></path>
                <path d="M83.4288773,129.409681 C82.2645479,130.005975 80.8845033,130.005975 79.7201739,129.409681 C78.6896018,128.819814 78.6896018,127.857043 79.7201739,127.267176 C80.8860911,126.677503 82.2629601,126.677503 83.4288773,127.267176 C84.4594494,127.857043 84.4594494,128.792694 83.4288773,129.409681 Z" id="Path" fill="#D4ECFF" fill-rule="nonzero"></path>
                <path d="M88.9817624,132.616659 C87.8134822,133.206439 86.434559,133.206439 85.2662788,132.616659 C84.2424869,132.026792 84.2424869,131.06402 85.2662788,130.474153 C86.4324405,129.875542 87.8156007,129.875542 88.9817624,130.474153 C90.0055544,131.06402 90.0055544,132.026792 88.9817624,132.616659 Z" id="Path" fill="#1270ED" fill-rule="nonzero"></path>
                <path d="M94.5278673,135.816856 C93.3635379,136.41315 91.9834933,136.41315 90.8191639,135.816856 C89.7885918,135.226989 89.7885918,134.264218 90.8191639,133.674351 C91.9850811,133.084678 93.3619501,133.084678 94.5278673,133.674351 C95.5584394,134.264218 95.5584394,135.226989 94.5278673,135.816856 Z" id="Path" fill="#FFFFFF" fill-rule="nonzero"></path>
                <polygon id="Path" fill="#1270ED" fill-rule="nonzero" points="206.066954 74.863942 197.673216 70.0161852 200.934434 68.1313231 209.334952 72.9790799"></polygon>
                <polygon id="Path" fill="#FFFFFF" fill-rule="nonzero" points="217.762591 81.610121 209.362073 76.7623642 212.630071 74.8775021 221.023809 79.7252589"></polygon>
                <polygon id="Path" fill="#FFFFFF" fill-rule="nonzero" points="168.566335 53.0049659 160.165816 48.1572091 163.427034 46.2723471 171.827553 51.1201038"></polygon>
                <polygon id="Path" fill="#FFFFFF" fill-rule="nonzero" points="204.195652 79.7455992 192.506795 72.9994201 195.768013 71.1145581 207.46365 77.8607371"></polygon>
                <polygon id="Path" fill="#D4ECFF" fill-rule="nonzero" points="212.59617 84.593356 207.46365 81.6304613 210.724869 79.7523793 215.857389 82.7084939"></polygon>
                <polygon id="Path" fill="#5793CE" fill-rule="nonzero" points="139.479794 73.6299675 133.289581 70.0568657 135.194784 68.9517127 141.384996 72.5315947"></polygon>
                <polygon id="Path" fill="#5793CE" fill-rule="nonzero" points="159.487808 81.3321378 136.62538 68.1313231 138.530583 67.0261702 161.393011 80.2269848"></polygon>
                <polygon id="Path" fill="#5793CE" fill-rule="nonzero" points="170.919022 87.929155 162.342222 82.9796971 164.247424 81.8813242 172.824225 86.8307822"></polygon>
                <polygon id="Path" fill="#5793CE" fill-rule="nonzero" points="154.246807 82.1525274 141.866382 75.0063237 143.771584 73.9011707 156.152009 81.0541545"></polygon>
                <path d="M179.970428,98.4382781 L171.766532,93.6922226 L179.970428,88.946167 L188.174324,93.6922226 L179.970428,98.4382781 Z M174.837908,93.6922226 L179.970428,96.6551173 L185.102948,93.6922226 L179.970428,90.7293278 L174.837908,93.6922226 Z" id="Shape" fill="#FFFFFF" fill-rule="nonzero"></path>
                <polygon id="Path" fill="#5793CE" fill-rule="nonzero" points="128.529966 79.9557816 122.332973 76.3758997 124.238175 75.2775268 130.435168 78.8506287"></polygon>
                <polygon id="Path" fill="#5793CE" fill-rule="nonzero" points="135.669389 79.6777984 126.143378 74.179154 128.04858 73.0807811 137.574592 78.5794255"></polygon>
                <polygon id="Path" fill="#5793CE" fill-rule="nonzero" points="151.392393 88.7563247 138.530583 81.3321378 140.435785 80.2269848 153.297596 87.6511718"></polygon>
                <polygon id="Path" fill="#5793CE" fill-rule="nonzero" points="151.866999 93.4277995 130.909774 81.3321378 132.814976 80.2269848 153.772201 92.3294266"></polygon>
                <path d="M169.01382,104.764092 L160.809924,100.018037 L169.01382,95.2719811 L177.217716,100.018037 L169.01382,104.764092 Z M163.8813,100.018037 L169.01382,102.980931 L174.14634,100.018037 L169.01382,97.0551419 L163.8813,100.018037 Z" id="Shape" fill="#FFFFFF" fill-rule="nonzero"></path>
                <polygon id="Path" fill="#5793CE" fill-rule="nonzero" points="126.624763 90.9530705 111.85775 82.4305106 113.762953 81.3321378 128.529966 89.8546976"></polygon>
                <polygon id="Path" fill="#5793CE" fill-rule="nonzero" points="122.332973 84.6272564 115.193549 80.5049681 117.098752 79.4065952 124.238175 83.5288835"></polygon>
                <polygon id="Path" fill="#5793CE" fill-rule="nonzero" points="136.62538 92.878613 125.194167 86.2815957 127.099369 85.1764428 138.530583 91.7802402"></polygon>
                <polygon id="Path" fill="#5793CE" fill-rule="nonzero" points="146.625998 98.6552407 139.005188 94.2549691 140.910391 93.1565963 148.5312 97.5568678"></polygon>
                <polygon id="Path" fill="#5793CE" fill-rule="nonzero" points="141.384996 99.4756303 129.004571 92.3294266 130.909774 91.2310537 143.290199 98.3772574"></polygon>
                <path d="M158.057212,111.089906 L149.853315,106.343851 L158.057212,101.597795 L166.261108,106.343851 L158.057212,111.089906 Z M152.924691,106.343851 L158.057212,109.313526 L163.189732,106.343851 L158.057212,103.380956 L152.924691,106.343851 Z" id="Shape" fill="#FFFFFF" fill-rule="nonzero"></path>
                <polygon id="Path" fill="#5793CE" fill-rule="nonzero" points="107.091355 92.3294266 100.901142 88.7563247 102.806344 87.6511718 108.996557 91.2310537"></polygon>
                <polygon id="Path" fill="#5793CE" fill-rule="nonzero" points="120.909156 96.4517149 104.236941 86.8307822 106.142143 85.7256292 122.814359 95.353342"></polygon>
                <polygon id="Path" fill="#5793CE" fill-rule="nonzero" points="133.764187 103.875902 123.288964 97.828071 125.194167 96.7296981 135.669389 102.777529"></polygon>
                <path d="M147.127724,117.41572 L138.923827,112.669665 L147.127724,107.923609 L155.33162,112.669665 L147.127724,117.41572 Z M141.995203,112.669665 L147.127724,115.63934 L152.260244,112.676445 L147.127724,109.71355 L141.995203,112.669665 Z" id="Shape" fill="#FFFFFF" fill-rule="nonzero"></path>
                <polygon id="Path" fill="#5793CE" fill-rule="nonzero" points="96.1415262 98.6552407 89.9445336 95.0753588 91.849736 93.9769859 98.0467286 97.5568678"></polygon>
                <polygon id="Path" fill="#5793CE" fill-rule="nonzero" points="107.091355 101.12997 93.2803327 93.1565963 95.185535 92.0514433 108.996557 100.024817"></polygon>
                <polygon id="Path" fill="#5793CE" fill-rule="nonzero" points="121.383762 109.381326 110.427154 103.055512 112.332356 101.950359 123.288964 108.276173"></polygon>
                <polygon id="Path" fill="#5793CE" fill-rule="nonzero" points="103.762336 103.055512 98.0467286 99.7536136 99.9519309 98.6552407 105.667538 101.950359"></polygon>
                <path d="M136.150775,123.741535 L127.946879,118.995479 L136.150775,114.249423 L144.354671,118.995479 L136.150775,123.741535 Z M131.018255,118.995479 L136.150775,121.958374 L141.283295,118.995479 L136.150775,116.032584 L131.018255,118.995479 Z" id="Shape" fill="#FFFFFF" fill-rule="nonzero"></path>
                <polygon id="Path" fill="#5793CE" fill-rule="nonzero" points="85.1849179 104.981055 78.9947054 101.401173 80.8999077 100.3028 87.0901202 103.875902"></polygon>
                <polygon id="Path" fill="#5793CE" fill-rule="nonzero" points="97.0907374 108.00497 82.3237244 99.4756303 84.2289267 98.3772574 98.9959397 106.906597"></polygon>
                <polygon id="Path" fill="#5793CE" fill-rule="nonzero" points="104.236941 112.127259 99.9519309 109.65253 101.857133 108.554157 106.142143 111.028886"></polygon>
                <polygon id="Path" fill="#5793CE" fill-rule="nonzero" points="110.901759 115.978344 106.616749 113.503615 108.521951 112.405242 112.806961 114.879971"></polygon>
                <polygon id="Path" fill="#5793CE" fill-rule="nonzero" points="92.8057272 109.381326 87.5647258 106.350631 89.4699281 105.252258 94.7109295 108.276173"></polygon>
                <path d="M125.668772,129.789365 L117.464876,125.04331 L125.668772,120.297254 L133.872668,125.04331 L125.668772,129.789365 Z M120.536252,125.04331 L125.668772,128.012985 L130.801292,125.04331 L125.668772,122.080415 L120.536252,125.04331 Z" id="Shape" fill="#FFFFFF" fill-rule="nonzero"></path>
                <path d="M127.357012,125.9315 L133.16076,125.9315 C134.00149,125.9315 134.679498,125.538256 134.679498,125.05009 C134.679498,124.561924 134.00149,124.17546 133.16076,124.17546 L127.357012,124.17546 L127.357012,120.8261 C127.357012,120.337935 126.679004,119.94469 125.838274,119.94469 C124.997544,119.94469 124.319536,120.337935 124.319536,120.8261 L124.319536,124.17546 L118.515788,124.17546 C117.675058,124.17546 116.99027,124.568704 116.99027,125.05009 C116.99027,125.531476 117.668278,125.9315 118.515788,125.9315 L124.319536,125.9315 L124.319536,129.280859 C124.319536,129.769025 124.997544,130.16227 125.838274,130.16227 C126.679004,130.16227 127.357012,129.769025 127.357012,129.280859 L127.357012,125.9315 Z" id="Path" fill="#1270ED" fill-rule="nonzero"></path>
                <path d="M149.37193,113.279872 L155.175678,113.279872 C156.016408,113.279872 156.694416,112.886627 156.694416,112.405242 C156.694416,111.923856 156.016408,111.523831 155.175678,111.523831 L149.37193,111.523831 L149.37193,108.174472 C149.37193,107.686306 148.693922,107.299842 147.853192,107.299842 C147.012462,107.299842 146.334454,107.686306 146.334454,108.174472 L146.334454,111.523831 L140.523926,111.523831 C139.689976,111.523831 139.005188,111.917076 139.005188,112.405242 C139.005188,112.893407 139.683196,113.279872 140.523926,113.279872 L146.334454,113.279872 L146.334454,116.629231 C146.334454,117.117397 147.012462,117.510642 147.853192,117.510642 C148.693922,117.510642 149.37193,117.117397 149.37193,116.629231 L149.37193,113.279872 Z" id="Path" fill="#1270ED" fill-rule="nonzero"></path>
                <path d="M160.437019,106.838797 L166.247547,106.838797 C167.081497,106.838797 167.766285,106.445552 167.766285,105.957386 C167.766285,105.469221 167.088277,105.082756 166.247547,105.082756 L160.437019,105.082756 L160.437019,101.733397 C160.437019,101.245231 159.759011,100.851986 158.918282,100.851986 C158.077552,100.851986 157.399544,101.245231 157.399544,101.733397 L157.399544,105.062416 L151.595796,105.062416 C150.755066,105.062416 150.077058,105.45566 150.077058,105.937046 C150.077058,106.418432 150.755066,106.818456 151.595796,106.818456 L157.399544,106.818456 L157.399544,110.167816 C157.399544,110.655981 158.077552,111.049226 158.918282,111.049226 C159.759011,111.049226 160.437019,110.655981 160.437019,110.167816 L160.437019,106.838797 Z" id="Path" fill="#1270ED" fill-rule="nonzero"></path>
                <path d="M191.828787,33.4376567 L180.519615,33.6139388 C179.539127,32.3913674 178.330155,31.3712253 176.960073,30.6103636 C170.73596,27.0169215 160.952305,26.7389382 154.179006,29.7696337 L147.453167,23.4505997 L137.106766,23.6133216 C137.615272,23.2743176 138.144118,22.9353137 138.700085,22.6302101 C153.080633,14.3246128 176.404106,14.3246128 190.784655,22.6302101 C193.182156,23.9798198 195.36457,25.6800464 197.259631,27.6745892 L191.828787,33.4376567 Z" id="Path" fill="#0A51B0" fill-rule="nonzero"></path>
                <polygon id="Path" fill="#2B86FF" fill-rule="nonzero" points="137.093206 7.18518917 137.093206 23.6133216 147.446387 23.4505997 147.446387 7.02246726"></polygon>
                <polygon id="Path" fill="#0A51B0" fill-rule="nonzero" points="154.165446 13.3482814 154.165446 29.7696337 147.446387 23.4505997 147.446387 7.02246726"></polygon>
                <path d="M180.519615,17.1858063 L180.519615,33.6139388 L165.63734,21.4843767 L154.165446,29.8035341 L154.165446,13.3482814 L164.75593,8.22254132 C164.75593,8.22254132 179.2653,12.6702734 180.024669,12.8533356 C180.784038,13.0363977 180.519615,17.1858063 180.519615,17.1858063 Z" id="Path" fill="#0A51B0" fill-rule="nonzero"></path>
                <polygon id="Path" fill="#0A51B0" fill-rule="nonzero" points="191.828787 17.0095243 191.828787 33.4376567 180.519615 33.6139388 180.519615 17.1858063"></polygon>
                <polygon id="Path" fill="#0A51B0" fill-rule="nonzero" points="197.246071 11.2396767 197.246071 27.6678091 191.828787 33.4376567 191.828787 17.0095243"></polygon>
                <path d="M191.828787,17.0095243 L180.519615,17.1858063 C179.536546,15.972999 178.327745,14.9622112 176.960073,14.2093515 C170.73596,10.6159094 160.952305,10.3379261 154.179006,13.3754017 L147.453167,7.04958758 L137.106766,7.21230949 C137.615272,6.8800856 138.144118,6.53430155 138.700085,6.22919797 C153.080633,-2.07639932 176.404106,-2.07639932 190.784655,6.22919797 C193.183288,7.57434812 195.366015,9.2725332 197.259631,11.266797 L191.828787,17.0095243 Z" id="Path" fill="#1270ED" fill-rule="nonzero"></path>
                <path d="M150.755066,15.368745 L150.755066,30.4815421 L140.964631,28.1356346 C140.964631,28.1356346 141.540938,19.3215313 141.751121,19.0638883 C141.961303,18.8062453 150.755066,15.368745 150.755066,15.368745 Z" id="Path" fill="#5793CE" fill-rule="nonzero"></path>
                <path d="M158.165693,30.4815421 L158.165693,46.8961144 L157.108,48.0216075 L150.20588,44.0417009 C150.20588,44.0417009 151.277132,31.498554 151.405954,31.247691 C151.534775,30.9968281 158.165693,30.4815421 158.165693,30.4815421 Z" id="Path" fill="#173D7A" fill-rule="nonzero"></path>
                <path d="M144.836057,26.2236522 L150.755066,31.7900974 C145.825948,35.6954232 146.409035,41.1940676 152.511107,44.7197089 C154.281649,45.7130087 156.186079,46.4460087 158.165693,46.8961144 L152.063621,53.4117707 L157.487685,58.5103904 C150.605904,57.7171211 144.042787,55.7983586 138.700085,52.6998623 C126.31966,45.5604387 124.59074,34.6106104 133.486204,26.4134944 L144.836057,26.2236522 Z" id="Path" fill="#396CAA" fill-rule="nonzero"></path>
                <polygon id="Path" fill="#396CAA" fill-rule="nonzero" points="157.467345 42.082258 157.467345 58.5103904 144.049567 53.3304097 127.899418 37.9260693 127.960439 20.4809249 145.046239 34.0207435"></polygon>
                <path d="M144.836057,9.79551975 L150.755066,15.368745 C145.825948,19.2672907 146.409035,24.7659351 152.511107,28.2915764 C154.280896,29.2895879 156.185358,30.0271672 158.165693,30.4815421 L152.063621,36.9971984 L157.487685,42.0958181 C150.605904,41.3025488 144.042787,39.3837864 138.700085,36.2852901 C126.31966,29.1255262 124.59074,18.182478 133.486204,9.97858189 L144.836057,9.79551975 Z" id="Path" fill="#D4ECFF" fill-rule="nonzero"></path>
                <path d="M157.514805,53.3304097 L162.938869,47.5809024 C167.949347,47.886006 173.108988,46.9028944 176.980413,44.7197089 C180.93998,42.428042 182.573979,39.2956453 181.882411,36.3259705 L194.723881,36.1293482 L199.659779,30.8680066 C203.978689,38.2786334 201.015795,46.7944132 190.804995,52.6998623 C183.285887,57.0391132 173.33273,59.1070374 163.488055,58.9104151 L157.514805,53.3304097 Z" id="Path" fill="#396CAA" fill-rule="nonzero"></path>
                <polygon id="Path" fill="#396CAA" fill-rule="nonzero" points="163.454155 42.4822827 163.454155 58.9104151 201.551421 37.7972478 201.551421 21.3623352 195.984976 23.6133216"></polygon>
                <polygon id="Path" fill="#173D7A" fill-rule="nonzero" points="157.514805 36.9022773 157.514805 53.3236297 163.454155 58.9104151 163.454155 42.4822827"></polygon>
                <path d="M157.514805,36.9022773 L162.938869,31.1527699 C167.949347,31.4578735 173.108988,30.474762 176.980413,28.2915764 C180.93998,25.9999096 182.573979,22.8675129 181.882411,19.8978381 L194.723881,19.7012158 L199.659779,14.4398742 C203.978689,21.850501 201.015795,30.3662807 190.804995,36.2717299 C183.285887,40.6109807 173.33273,42.678905 163.488055,42.4822827 L157.514805,36.9022773 Z" id="Path" fill="#5793CE" fill-rule="nonzero"></path>
                <polygon id="Path" fill="#173D7A" fill-rule="nonzero" opacity="0.5" points="230.841364 52.5507006 219.159287 45.8113017 230.841364 39.0651226 242.523441 45.8113017"></polygon>
                <polygon id="Path" fill="#0A51B0" fill-rule="nonzero" points="242.523441 37.2480613 230.841364 43.9874603 230.841364 30.5018823 242.523441 23.7557033"></polygon>
                <text id="0A51B0" font-family="OrtoRNIDS, Orto RNIDS" font-size="12" font-weight="normal" line-spacing="12" fill="#0A51B0">
                    <tspan x="142.882902" y="91.8190405">0A51B0</tspan>
                </text>
                <polygon id="Path" fill="#1270ED" fill-rule="nonzero" points="230.841364 30.5018823 219.159287 23.7557033 230.841364 17.0095243 242.523441 23.7557033"></polygon>
                <polygon id="Path" fill="#2B86FF" fill-rule="nonzero" points="230.841364 43.9874603 219.159287 37.2480613 219.159287 23.7557033 230.841364 30.5018823"></polygon>
                <polygon id="Path" fill="#FFFFFF" fill-rule="nonzero" points="226.630935 36.6988749 223.362937 34.8140128 223.362937 31.0442887 226.630935 32.9291507"></polygon>
                <polygon id="Path" fill="#173D7A" fill-rule="nonzero" opacity="0.5" points="150.755066 204.47872 138.591604 197.454558 150.755066 190.430396 162.918528 197.454558"></polygon>
                <polygon id="Path" fill="#173D7A" fill-rule="nonzero" points="162.918528 188.538754 150.755066 195.562916 150.755066 181.521371 162.918528 174.497209"></polygon>
                <polygon id="Path" fill="#D4ECFF" fill-rule="nonzero" points="150.755066 181.521371 138.591604 174.497209 150.755066 167.473047 162.918528 174.497209"></polygon>
                <polygon id="Path" fill="#5793CE" fill-rule="nonzero" points="150.755066 195.562916 138.591604 188.538754 138.591604 174.497209 150.755066 181.521371"></polygon>
                <polygon id="Path" fill="#FFFFFF" fill-rule="nonzero" points="146.375135 187.976007 142.978315 186.009784 142.978315 182.084118 146.375135 184.050341"></polygon>
                <path d="M122.719438,175.717623 L122.719438,168.795162 L121.363422,168.795162 C119.909728,166.466249 117.871332,164.558759 115.451192,163.262618 C105.82348,157.702952 90.2225169,157.702952 80.5948041,163.262618 C78.1746645,164.558759 76.1362683,166.466249 74.6825749,168.795162 L73.3807996,168.795162 L73.3807996,175.676943 C73.3807996,179.331406 75.7673876,182.985869 80.5948041,185.779261 C90.2225169,191.332146 105.83026,191.332146 115.451192,185.779261 C120.285389,183.033329 122.719438,179.365306 122.719438,175.717623 Z" id="Path" fill="#1270ED" fill-rule="nonzero"></path>
                <path d="M115.471533,163.269398 C110.657676,160.489565 104.352202,159.099649 98.0467286,159.099649 L98.0467286,189.94901 C104.352202,189.94901 110.657676,188.592994 115.471533,185.786041 C120.285389,182.979088 122.719438,179.365306 122.719438,175.717623 L122.719438,168.795162 L121.363422,168.795162 C119.914431,166.471371 117.883383,164.566533 115.471533,163.269398 Z" id="Path" fill="#0A51B0" fill-rule="nonzero"></path>
                <ellipse id="Oval" fill="#1270ED" fill-rule="nonzero" cx="98.0467286" cy="168.801942" rx="24.6455887" ry="14.2313867"></ellipse>
                <path d="M115.471533,178.86358 C105.8506,184.423245 90.2428571,184.423245 80.6151444,178.86358 C76.0046904,176.199009 73.6248825,172.761509 73.4350402,169.256208 C73.2248578,173.046272 75.6046657,176.877017 80.6151444,179.765331 C90.2428571,185.324996 105.8506,185.324996 115.471533,179.765331 C120.482011,176.877017 122.861819,173.046272 122.651637,169.256208 C122.461795,172.741169 120.088767,176.199009 115.471533,178.86358 Z" id="Path" fill="#FFFFFF" fill-rule="nonzero"></path>
                <path d="M86.1612493,173.541218 C85.7871774,173.38378 85.5277117,173.036096 85.4832414,172.632687 L85.4832414,163.357539 C85.4832414,162.679531 86.4799131,162.082884 87.7071074,162.082884 C88.9343018,162.082884 89.9241934,162.65919 89.9241934,163.364319 L89.9241934,171.052929 L112.230655,168.340897 C113.430729,168.191735 114.610463,168.639221 114.861326,169.330789 C115.112188,170.022357 114.35282,170.686804 113.152746,170.849526 L88.1613728,173.907342 C87.5302172,173.992489 86.887794,173.903394 86.303631,173.649699 L86.1612493,173.541218 Z" id="Path" fill="#FFFFFF" fill-rule="nonzero"></path>
            </g>
        </g>
    </g>
</svg>