<svg version="1.2" xmlns="http://www.w3.org/2000/svg" xmlns:xlink="http://www.w3.org/1999/xlink" overflow="visible" preserveAspectRatio="none" viewBox="0 0 33 8" width="33" height="8"><g transform="translate(0, 0)"><defs><path id="path-166118461595217739" d="M24.77062500000001 3 C24.77062500000001 3 0 3 0 3 C0 3 0 5 0 5 C0 5 24.770625000000003 5 24.770625000000003 5 C24.770625000000003 5 24.770625000000003 8 24.770625000000003 8 C24.770625000000003 8 33.00000000000001 4 33.00000000000001 4 C33.00000000000001 4 24.770625000000003 0 24.770625000000003 0 C24.770625000000003 0 24.77062500000001 3 24.77062500000001 3 Z" vector-effect="non-scaling-stroke"/></defs><g transform="translate(0, 0)"><path style="stroke-width: 0px; stroke-linecap: butt; stroke-linejoin: miter; fill: rgb(18, 112, 237);" d="M24.77062500000001 3 C24.77062500000001 3 0 3 0 3 C0 3 0 5 0 5 C0 5 24.770625000000003 5 24.770625000000003 5 C24.770625000000003 5 24.770625000000003 8 24.770625000000003 8 C24.770625000000003 8 33.00000000000001 4 33.00000000000001 4 C33.00000000000001 4 24.770625000000003 0 24.770625000000003 0 C24.770625000000003 0 24.77062500000001 3 24.77062500000001 3 Z" vector-effect="non-scaling-stroke"/></g></g></svg>