<?xml version="1.0" encoding="UTF-8"?>
<svg width="70px" height="70px" viewBox="0 0 70 70" version="1.1" xmlns="http://www.w3.org/2000/svg" xmlns:xlink="http://www.w3.org/1999/xlink">
    <title>Home</title>
    <g id="Design" stroke="none" stroke-width="1" fill="none" fill-rule="evenodd">
        <g id="001-Home" transform="translate(-150.000000, -5197.000000)">
            <g id="Home" transform="translate(150.000000, 5197.000000)">
                <path d="M34.7287226,70 C53.9096736,70 69.512595,54.2316292 69.512595,34.9985095 C69.5118498,15.7094947 53.9096736,0 34.7287226,0 C15.6029214,0 0,15.7094947 0,34.9985095 C0,54.2316292 15.6029214,70 34.7287226,70 L34.7287226,70 Z" id="Path" fill="#FFFFFF"></path>
                <path d="M8.99388881,52.8797138 L7.47652407,53.9625876 C13.4908332,62.3058578 23.7308094,68.3209122 34.7287226,68.3209122 C52.9341183,68.3209122 67.779848,53.4736921 67.779848,35.2712774 C67.779848,17.0636458 52.9341183,2.22238784 34.7287226,2.22238784 C16.5248174,2.22238784 1.67908779,17.0636458 1.67908779,35.2712774 C1.67908779,39.1712625 2.60023849,42.7478015 3.52138918,46.4301684 L4.60426293,46.3213594 L7.85511999,37.6531525 L18.8545238,37.6531525 L21.1849754,43.5072291 L16.5248174,43.5072291 L16.5248174,44.913549 L32.2372932,45.1304218 L32.2372932,43.5072291 L26.60158,43.5072291 L24.4887465,37.8700253 L31.261738,37.8700253 L31.261738,11.8631689 L40.4180951,12.080787 L40.4180951,36.2453421 L36.1924281,36.2453421 L36.1924281,37.6524072 L40.4180951,37.6524072 L40.4180951,61.8169623 L36.4093009,61.8169623 L36.4093009,63.2292443 L45.7817857,63.2292443 L45.7817857,52.442987 L53.0406916,52.442987 C65.4479058,50.0618572 62.9013266,37.4370249 53.0406916,36.2460873 L45.9979133,36.2460873 L45.7817857,12.2984051 L50.2235803,12.2984051 L50.4948577,10.6737219 L20.966612,10.6737219 L21.1849754,11.8639141 L26.1149203,11.8639141 L26.1149203,36.2460873 L24.0013415,36.2460873 L16.3086898,16.0895812 L15.3323893,16.0895812 L4.4417946,42.8558653 C3.89998509,40.415114 3.57430317,37.8692801 3.57430317,35.2705321 C3.57430317,18.1472649 17.6069459,4.11685795 34.7279773,4.11685795 C51.9041586,4.11685795 65.883142,18.1472649 65.883142,35.2705321 C65.883142,52.442987 51.9041586,66.423461 34.7279773,66.423461 C24.3814279,66.423461 14.6817708,60.7355791 8.99388881,52.8797138 L8.99388881,52.8797138 Z M45.7825309,37.8171113 L51.4719034,37.7083023 C56.2930392,39.0646892 57.4310628,49.4648979 51.4174989,51.2527948 L45.5656581,51.0359219 L45.7825309,37.8171113 Z M8.77627068,36.0284692 L13.4908332,24.7585333 L18.4215233,36.2453421 L8.77627068,36.0284692 Z" id="Shape" fill="#005595"></path>
            </g>
        </g>
    </g>
</svg>