<?xml version="1.0" encoding="UTF-8"?>
<svg width="488px" height="454px" viewBox="0 0 488 454" version="1.1" xmlns="http://www.w3.org/2000/svg" xmlns:xlink="http://www.w3.org/1999/xlink">
    <title>Group 15</title>
    <defs>
        <filter x="-42.3%" y="-47.9%" width="184.7%" height="195.8%" filterUnits="objectBoundingBox" id="filter-1">
            <feOffset dx="0" dy="22" in="SourceAlpha" result="shadowOffsetOuter1"></feOffset>
            <feGaussianBlur stdDeviation="22" in="shadowOffsetOuter1" result="shadowBlurOuter1"></feGaussianBlur>
            <feColorMatrix values="0 0 0 0 0.111136435   0 0 0 0 0.37748439   0 0 0 0 0.584295743  0 0 0 1 0" type="matrix" in="shadowBlurOuter1" result="shadowMatrixOuter1"></feColorMatrix>
            <feMerge>
                <feMergeNode in="shadowMatrixOuter1"></feMergeNode>
                <feMergeNode in="SourceGraphic"></feMergeNode>
            </feMerge>
        </filter>
        <linearGradient x1="95.8296619%" y1="31.2792136%" x2="13.9483451%" y2="69.7454879%" id="linearGradient-2">
            <stop stop-color="#7BDAFF" offset="0%"></stop>
            <stop stop-color="#59BDEF" offset="100%"></stop>
        </linearGradient>
        <linearGradient x1="26.2021036%" y1="147.347719%" x2="57.1660276%" y2="40.5902079%" id="linearGradient-3">
            <stop stop-color="#59BDEF" offset="77%"></stop>
            <stop stop-color="#55B8EB" offset="85%"></stop>
            <stop stop-color="#49ABE1" offset="93%"></stop>
            <stop stop-color="#3A9BD5" offset="100%"></stop>
        </linearGradient>
        <linearGradient x1="77.3982811%" y1="99.5208843%" x2="37.0205638%" y2="42.1784081%" id="linearGradient-4">
            <stop stop-color="#59BDEF" offset="77%"></stop>
            <stop stop-color="#55B8EB" offset="85%"></stop>
            <stop stop-color="#49ABE1" offset="93%"></stop>
            <stop stop-color="#3A9BD5" offset="100%"></stop>
        </linearGradient>
        <linearGradient x1="62.0211652%" y1="110.016794%" x2="53.6400419%" y2="34.9969386%" id="linearGradient-5">
            <stop stop-color="#3A9BD5" offset="77%"></stop>
            <stop stop-color="#3896D2" offset="84%"></stop>
            <stop stop-color="#3189C9" offset="92%"></stop>
            <stop stop-color="#2573BA" offset="100%"></stop>
        </linearGradient>
        <linearGradient x1="-1985.06469%" y1="-102.532337%" x2="-1878.18413%" y2="-64.2745509%" id="linearGradient-6">
            <stop stop-color="#7BDAFF" offset="0%"></stop>
            <stop stop-color="#59BDEF" offset="100%"></stop>
        </linearGradient>
        <linearGradient x1="89.5981632%" y1="31.5177131%" x2="18.0379825%" y2="74.0226983%" id="linearGradient-7">
            <stop stop-color="#7BDAFF" offset="0%"></stop>
            <stop stop-color="#59BDEF" offset="100%"></stop>
        </linearGradient>
        <linearGradient x1="30.0515341%" y1="150.362444%" x2="56.0403959%" y2="43.4118214%" id="linearGradient-8">
            <stop stop-color="#59BDEF" offset="77%"></stop>
            <stop stop-color="#55B8EB" offset="85%"></stop>
            <stop stop-color="#49ABE1" offset="93%"></stop>
            <stop stop-color="#3A9BD5" offset="100%"></stop>
        </linearGradient>
        <linearGradient x1="81.4613202%" y1="88.5871331%" x2="38.7464982%" y2="38.0135068%" id="linearGradient-9">
            <stop stop-color="#59BDEF" offset="77%"></stop>
            <stop stop-color="#55B8EB" offset="85%"></stop>
            <stop stop-color="#49ABE1" offset="93%"></stop>
            <stop stop-color="#3A9BD5" offset="100%"></stop>
        </linearGradient>
        <linearGradient x1="67.6169937%" y1="117.603774%" x2="50.2333405%" y2="33.9650969%" id="linearGradient-10">
            <stop stop-color="#3A9BD5" offset="77%"></stop>
            <stop stop-color="#3896D2" offset="84%"></stop>
            <stop stop-color="#3189C9" offset="92%"></stop>
            <stop stop-color="#2573BA" offset="100%"></stop>
        </linearGradient>
        <linearGradient x1="87.0626123%" y1="18.7491704%" x2="7.78491841%" y2="98.1101779%" id="linearGradient-11">
            <stop stop-color="#7BDAFF" offset="0%"></stop>
            <stop stop-color="#59BDEF" offset="100%"></stop>
        </linearGradient>
        <linearGradient x1="81.55401%" y1="29.7400599%" x2="14.7977945%" y2="74.2074574%" id="linearGradient-12">
            <stop stop-color="#7BDAFF" offset="0%"></stop>
            <stop stop-color="#59BDEF" offset="100%"></stop>
        </linearGradient>
        <linearGradient x1="27.583245%" y1="149.403307%" x2="50.9339586%" y2="42.4965608%" id="linearGradient-13">
            <stop stop-color="#59BDEF" offset="77%"></stop>
            <stop stop-color="#55B8EB" offset="85%"></stop>
            <stop stop-color="#49ABE1" offset="93%"></stop>
            <stop stop-color="#3A9BD5" offset="100%"></stop>
        </linearGradient>
        <linearGradient x1="57.2323114%" y1="53.1835015%" x2="47.172427%" y2="42.3537016%" id="linearGradient-14">
            <stop stop-color="#59BDEF" offset="0%"></stop>
            <stop stop-color="#55B8EB" offset="85%"></stop>
            <stop stop-color="#49ABE1" offset="93%"></stop>
            <stop stop-color="#3A9BD5" offset="100%"></stop>
        </linearGradient>
        <linearGradient x1="62.6777701%" y1="119.608777%" x2="40.5002065%" y2="31.590038%" id="linearGradient-15">
            <stop stop-color="#3A9BD5" offset="77%"></stop>
            <stop stop-color="#3896D2" offset="84%"></stop>
            <stop stop-color="#3189C9" offset="92%"></stop>
            <stop stop-color="#2573BA" offset="100%"></stop>
        </linearGradient>
        <linearGradient x1="77.7658637%" y1="16.0851428%" x2="1.51644873%" y2="102.516136%" id="linearGradient-16">
            <stop stop-color="#7BDAFF" offset="0%"></stop>
            <stop stop-color="#59BDEF" offset="100%"></stop>
        </linearGradient>
    </defs>
    <g id="Design" stroke="none" stroke-width="1" fill="none" fill-rule="evenodd">
        <g id="002-Funkcionalnosti" transform="translate(-181.000000, -3658.000000)">
            <g id="Group-15" filter="url(#filter-1)" transform="translate(275.000000, 3752.000000)">
                <g id="Asset-1" transform="translate(0.000000, 39.772727)" fill-rule="nonzero">
                    <g id="Group" opacity="0.5" transform="translate(0.000000, 11.068333)">
                        <path d="M1.67223827,67.4722623 L1.67223827,67.4722623 L1.8086019,67.2222623 L1.91087463,67.0404441 L2.01314736,66.8586259 C3.13011967,64.715015 4.90152571,62.9834158 7.06996554,61.9154441 L7.63814736,61.6654441 L7.63814736,61.6654441 L77.4108746,31.2449896 L147.183602,0.813171368 L147.183602,0.813171368 L147.763147,0.563171368 C149.51125,-0.301599049 151.588791,-0.162807154 153.206329,0.926807732 L153.331329,1.01771682 L153.456329,1.09726228 L161.535875,7.10862591 L156.308602,8.65408046 L163.24042,102.324535 C163.361006,104.849323 162.749344,107.355161 161.479056,109.540444 L161.36542,109.733626 L161.274511,109.90408 C160.157539,112.047691 158.386133,113.779291 156.217693,114.847262 L17.0586019,175.483626 L17.6040564,181.381353 L9.95632918,175.699535 L9.83132918,175.608626 C8.17751087,174.35287 7.18610459,172.411889 7.13814736,170.335899 L0.013147358,74.4381714 C-0.0962275116,72.0067296 0.478572944,69.5933551 1.67223827,67.4722623 Z" id="Path" fill="#FFFFFF"></path>
                        <path d="M23.4563292,182.02908 L164.160875,120.665444 C168.410875,118.813171 171.535875,112.892717 171.126784,107.460899 L164.138147,12.9154441 C163.729056,7.48362591 159.956329,4.574535 155.706329,6.42680773 L15.0017837,67.7904441 C10.7517837,69.6086259 7.62678372,75.5631714 8.03587463,80.9722623 L15.024511,175.506353 C15.4336019,180.972262 19.2063292,183.892717 23.4563292,182.02908 Z" id="Path" fill="url(#linearGradient-2)"></path>
                        <path d="M15.5813292,67.5404441 L85.3540564,37.1199896 L93.5813292,148.24499 L24.0358746,181.77908 C19.4904201,183.77908 15.4563292,181.290444 15.0813292,176.222262 L7.96769281,80.324535 C7.78723754,74.9409585 10.7618463,69.9462797 15.5813292,67.5404441 Z" id="Path" fill="url(#linearGradient-3)"></path>
                        <path d="M155.126784,6.68817137 L85.3540564,37.1199896 L93.524511,147.551808 L163.581329,120.926808 C168.396608,118.523806 171.367404,113.532514 171.183602,108.15408 L164.081329,12.2449896 C163.706329,7.18817137 159.694966,4.699535 155.126784,6.68817137 Z" id="Path" fill="url(#linearGradient-4)"></path>
                        <path d="M169.547238,115.11999 C168.253759,117.660819 166.156184,119.70246 163.581329,120.926808 L24.0358746,181.77908 C21.9824928,182.842063 19.5108308,182.689222 17.6040564,181.381353 L88.524511,79.8358986 L169.547238,115.11999 Z" id="Path" fill="url(#linearGradient-5)"></path>
                        <path d="M9.61542009,73.3472623 C10.9157929,70.8115186 13.0113727,68.771821 15.5813292,67.5404441 L155.126784,6.68817137 C157.181693,5.62597836 159.654828,5.78328025 161.558602,7.09726228 L90.649511,108.597262 L9.61542009,73.3472623 Z" id="Path" fill="url(#linearGradient-6)"></path>
                        <path d="M39.5926928,85.7108986 L39.5926928,85.7108986 C39.5926928,85.6199896 39.6722383,85.5290805 39.7176928,85.4268077 C39.7526155,85.3646907 39.7829979,85.3001282 39.8086019,85.2336259 L39.9108746,85.0177168 C40.9436069,82.6376603 42.7066308,80.6477914 44.9449655,79.3358986 L45.5358746,79.0177168 L45.5358746,79.0177168 L118.126784,40.5972623 L190.717693,2.17680773 L190.717693,2.17680773 L191.319966,1.86998955 C193.138016,0.806629658 195.388278,0.806629658 197.206329,1.86998955 L197.342693,1.949535 L197.479056,2.02908046 L206.660875,7.7904441 L201.149511,9.77908046 L216.24042,109.99499 C216.582556,112.718248 216.124528,115.48221 214.922238,117.949535 C214.887237,118.01553 214.856861,118.083877 214.831329,118.15408 L214.729056,118.358626 C213.703121,120.743005 211.93841,122.734778 209.694966,124.040444 L64.9449655,200.665444 L66.0131474,206.960899 L57.3199655,201.483626 L57.1836019,201.40408 C55.2941124,200.194556 54.0661914,198.182945 53.8540564,195.949535 L38.399511,93.3472623 C38.0758794,90.7403218 38.4892334,88.0948562 39.5926928,85.7108986 Z" id="Path" fill="#FFFFFF"></path>
                        <path d="M72.3654201,207.188171 L218.74042,129.710899 C223.172238,127.36999 226.047238,120.756353 225.172238,114.938171 L209.944966,13.8018077 C209.069966,7.98362591 204.763147,5.1654441 200.342693,7.50635319 L53.9676928,84.9722623 C49.5358746,87.3131714 46.6608746,93.9268077 47.5358746,99.7449896 L62.7631474,200.881353 C63.649511,206.710899 67.9449655,209.52908 72.3654201,207.188171 Z" id="Path" fill="url(#linearGradient-7)"></path>
                        <path d="M54.5586019,84.6540805 L127.149511,46.2336259 L145.058602,165.131353 L72.9676928,206.86999 C68.2063292,209.392717 63.6949655,207.040444 62.8767837,201.61999 L47.4222383,99.0177168 C46.7891811,93.2465594 49.5768931,87.6356231 54.5586019,84.6540805 Z" id="Path" fill="url(#linearGradient-8)"></path>
                        <path d="M199.74042,7.81317137 L127.149511,46.2336259 L144.944966,164.415444 L218.194966,130.02908 C223.176674,127.047538 225.964386,121.436601 225.331329,115.665444 L209.876784,13.0631714 C209.013147,7.64271682 204.558602,5.2904441 199.74042,7.81317137 Z" id="Path" fill="url(#linearGradient-9)"></path>
                        <path d="M224.092693,123.290444 C222.905085,126.128169 220.816595,128.496189 218.149511,130.02908 L72.9676928,206.86999 C70.8447406,208.184196 68.1697267,208.219164 66.0131474,206.960899 L134.104056,91.9836259 L224.092693,123.290444 Z" id="Path" fill="url(#linearGradient-10)"></path>
                        <path d="M48.6154201,91.3927168 C49.8001152,88.5531688 51.8893448,86.1843099 54.5586019,84.6540805 L199.74042,7.81317137 C201.863372,6.49896453 204.538386,6.46399703 206.694966,7.72226228 L138.649511,122.699535 L48.6154201,91.3927168 Z" id="Path" fill="url(#linearGradient-11)"></path>
                    </g>
                    <path d="M79.7290564,96.3474134 L79.7290564,96.3474134 C79.7290564,96.2451407 79.8086019,96.1428679 79.8540564,96.0405952 C79.8795029,95.9666757 79.9098739,95.8945445 79.9449655,95.8246861 L80.0358746,95.5974134 C81.0321186,93.001474 82.8317436,90.7917575 85.1722383,89.2905952 L85.7972383,88.9383225 L85.7972383,88.9383225 L161.61542,45.1428679 L237.433602,1.35877702 L237.433602,1.35877702 L238.058602,0.995140659 C239.945997,-0.221586829 242.341675,-0.33008673 244.331329,0.71104975 L244.479056,0.790595204 L244.626784,0.870140659 L254.638147,6.64286793 L248.876784,9.08604975 L268.899511,115.245141 C269.352385,118.125008 268.957549,121.074428 267.763147,123.733777 L267.660875,123.96105 C267.635343,124.031254 267.604967,124.0996 267.569966,124.165595 C266.584326,126.767661 264.782243,128.980395 262.433602,130.472413 L111.263147,217.813322 L112.649511,224.472413 L103.172238,218.983777 L103.024511,218.904232 C100.966727,217.686288 99.5806075,215.592452 99.2631474,213.222413 L78.7631474,104.540595 C78.3061831,101.77309 78.6410327,98.9327773 79.7290564,96.3474134 Z" id="Path" fill="#FFFFFF"></path>
                    <path d="M119.433602,224.472413 L272.319966,136.165595 C276.944966,133.495141 279.74042,126.33605 278.581329,120.165595 L258.376784,13.0178679 C257.24042,6.84741339 252.513147,4.01786793 247.899511,6.68832248 L95.0131474,94.983777 C90.3881474,97.6542316 87.5813292,104.824686 88.7404201,110.983777 L108.956329,218.176959 C110.11542,224.301959 114.785875,227.142868 119.433602,224.472413 Z" id="Path" fill="url(#linearGradient-12)"></path>
                    <path d="M95.6381474,94.6201407 L171.456329,50.8360497 L195.206329,176.790595 L120.058602,224.108777 C115.081329,226.972413 110.183602,224.654232 109.104056,218.915595 L88.649511,110.222413 C87.5131474,104.472413 90.6608746,97.4951407 95.6381474,94.6201407 Z" id="Path" fill="url(#linearGradient-13)"></path>
                    <path d="M247.274511,7.0405952 L171.456329,50.8360497 L195.058602,176.006504 L271.694966,136.529232 C276.660875,133.654232 279.808602,126.676959 278.729056,120.938322 L258.274511,12.233777 C257.149511,6.49514066 252.285875,4.17695884 247.274511,7.0405952 Z" id="Path" fill="url(#linearGradient-14)"></path>
                    <path d="M277.763147,129.108777 C276.609429,132.181092 274.477113,134.788587 271.694966,136.529232 L120.058602,224.108777 C117.844216,225.584848 114.997797,225.72455 112.649511,224.472413 L180.592693,99.3019588 L277.763147,129.108777 Z" id="Path" fill="url(#linearGradient-15)"></path>
                    <path d="M89.5586019,102.040595 C90.7122946,98.9648939 92.8494873,96.3563204 95.6381474,94.6201407 L247.274511,7.0405952 C249.484561,5.56407982 252.328036,5.42430839 254.672238,6.67695884 L186.729056,131.813322 L89.5586019,102.040595 Z" id="Path" fill="url(#linearGradient-16)"></path>
                </g>
                <g id="Group-14" transform="translate(186.363636, 0.000000)">
                    <g id="Group-11" fill="#FFFFFF">
                        <circle id="Oval" cx="56.8181818" cy="56.8181818" r="40.5844156"></circle>
                        <circle id="Oval" opacity="0.2" cx="56.8181818" cy="56.8181818" r="56.8181818"></circle>
                        <circle id="Oval" opacity="0.5" cx="56.8181818" cy="56.8181818" r="48.7012987"></circle>
                    </g>
                    <g id="Group-6" transform="translate(37.500000, 37.500000)" fill="#1270ED" fill-rule="nonzero">
                        <circle id="Oval" cx="31.8181818" cy="6.81818182" r="6.81818182"></circle>
                        <path d="M20.4545455,6.81818182 C20.4545455,5.2 20.8022727,3.66590909 21.4136364,2.27272727 L4.54545455,2.27272727 C2.03863636,2.27272727 0,4.31136364 0,6.81818182 L0,34.0909091 C0,36.5977273 2.03863636,38.6363636 4.54545455,38.6363636 L31.8181818,38.6363636 C34.325,38.6363636 36.3636364,36.5977273 36.3636364,34.0909091 L36.3636364,17.2227273 C34.9314657,17.8544159 33.383475,18.1810419 31.8181818,18.1818182 C25.5422188,18.1818182 20.4545455,13.0941449 20.4545455,6.81818182 L20.4545455,6.81818182 Z" id="Path"></path>
                    </g>
                </g>
            </g>
        </g>
    </g>
</svg>