<?xml version="1.0" encoding="UTF-8"?>
<svg width="568px" height="392px" viewBox="0 0 568 392" version="1.1" xmlns="http://www.w3.org/2000/svg" xmlns:xlink="http://www.w3.org/1999/xlink">
    <title>Group 10</title>
    <defs>
        <path d="M47.0022273,40 C43.5520629,40 40.7552479,42.796815 40.7552479,46.2469793 L40,225.082497 C40,228.532661 42.796815,231.328277 46.2469793,231.328277 L413.753021,231.328277 C417.203185,231.328277 420,228.531462 420,225.082497 L420,46.2469793 C420,42.796815 417.203185,40 413.753021,40 L47.0022273,40 Z" id="path-1"></path>
        <filter x="-20.3%" y="-28.7%" width="140.5%" height="180.5%" filterUnits="objectBoundingBox" id="filter-2">
            <feOffset dx="0" dy="22" in="SourceAlpha" result="shadowOffsetOuter1"></feOffset>
            <feGaussianBlur stdDeviation="22" in="shadowOffsetOuter1" result="shadowBlurOuter1"></feGaussianBlur>
            <feColorMatrix values="0 0 0 0 0.0773525914   0 0 0 0 0.178018379   0 0 0 0 0.363620924  0 0 0 1 0" type="matrix" in="shadowBlurOuter1"></feColorMatrix>
        </filter>
        <path d="M27.0022273,20 C23.5520629,20 20.7552479,22.796815 20.7552479,26.2469793 L20,205.082497 C20,208.532661 22.796815,211.328277 26.2469793,211.328277 L393.753021,211.328277 C397.203185,211.328277 400,208.531462 400,205.082497 L400,26.2469793 C400,22.796815 397.203185,20 393.753021,20 L27.0022273,20 Z" id="path-3"></path>
        <filter x="-20.3%" y="-28.7%" width="140.5%" height="180.5%" filterUnits="objectBoundingBox" id="filter-4">
            <feOffset dx="0" dy="22" in="SourceAlpha" result="shadowOffsetOuter1"></feOffset>
            <feGaussianBlur stdDeviation="22" in="shadowOffsetOuter1" result="shadowBlurOuter1"></feGaussianBlur>
            <feColorMatrix values="0 0 0 0 0.0773525914   0 0 0 0 0.178018379   0 0 0 0 0.363620924  0 0 0 1 0" type="matrix" in="shadowBlurOuter1"></feColorMatrix>
        </filter>
        <filter x="-33.4%" y="-66.4%" width="166.8%" height="232.8%" filterUnits="objectBoundingBox" id="filter-5">
            <feOffset dx="0" dy="22" in="SourceAlpha" result="shadowOffsetOuter1"></feOffset>
            <feGaussianBlur stdDeviation="22" in="shadowOffsetOuter1" result="shadowBlurOuter1"></feGaussianBlur>
            <feColorMatrix values="0 0 0 0 0.0773525914   0 0 0 0 0.178018379   0 0 0 0 0.363620924  0 0 0 1 0" type="matrix" in="shadowBlurOuter1" result="shadowMatrixOuter1"></feColorMatrix>
            <feMerge>
                <feMergeNode in="shadowMatrixOuter1"></feMergeNode>
                <feMergeNode in="SourceGraphic"></feMergeNode>
            </feMerge>
        </filter>
    </defs>
    <g id="Design" stroke="none" stroke-width="1" fill="none" fill-rule="evenodd">
        <g id="002-Funkcionalnosti" transform="translate(-711.000000, -1025.000000)">
            <g id="Group-10" transform="translate(805.000000, 1119.000000)">
                <g id="Fill-24">
                    <use fill="black" fill-opacity="1" filter="url(#filter-2)" xlink:href="#path-1"></use>
                    <use fill="#A1B6F5" fill-rule="evenodd" xlink:href="#path-1"></use>
                </g>
                <g id="Fill-24">
                    <use fill="black" fill-opacity="1" filter="url(#filter-4)" xlink:href="#path-3"></use>
                    <use fill="#BACBFF" fill-rule="evenodd" xlink:href="#path-3"></use>
                </g>
                <g id="Group" filter="url(#filter-5)">
                    <path d="M7.00222726,0 C3.55206289,0 0.755247932,2.79681496 0.755247932,6.24697932 L0,185.082497 C0,188.532661 2.79681496,191.328277 6.24697932,191.328277 L373.753021,191.328277 C377.203185,191.328277 380,188.531462 380,185.082497 L380,6.24697932 C380,2.79681496 377.203185,0 373.753021,0 L7.00222726,0 Z" id="Fill-24" fill="#EBF0FF"></path>
                    <path d="M332.054987,51 L42.2172048,51 C39.3364734,51 37,53.3352746 37,56.2172048 L37,83.2442915 C37,86.1262217 39.3364734,88.4614962 42.2172048,88.4614962 L332.054987,88.4614962 C334.935719,88.4614962 337.272192,86.1262217 337.272192,83.2442915 L337.272192,56.2172048 C337.272192,53.3352746 334.935719,51 332.054987,51" id="Fill-26" fill="#1270ED" opacity="0.1"></path>
                    <path d="M107.968131,51 L42.2172048,51 C39.3364734,51 37,53.3352746 37,56.2172048 L37,83.2442915 C37,86.1262217 39.3364734,88.4614962 42.2172048,88.4614962 L107.968131,88.4614962 C110.898013,88.4614962 113.272848,86.0866611 113.272848,83.1567786 L113.272848,56.3047176 C113.272848,53.3748352 110.898013,51 107.968131,51" id="Fill-28" fill="#1270ED"></path>
                    <path d="M83.8539791,107.511941 L46.725751,107.511941 C43.3547078,107.511941 40.6214296,110.245219 40.6214296,113.617461 L40.6214296,150.74449 C40.6214296,154.116732 43.3547078,156.85001 46.725751,156.85001 L83.8539791,156.85001 C87.226221,156.85001 89.9583005,154.116732 89.9583005,150.74449 L89.9583005,113.617461 C89.9583005,110.245219 87.226221,107.511941 83.8539791,107.511941" id="Fill-30" fill="#1270ED" opacity="0.5"></path>
                    <path d="M181.786019,107.511941 L144.657791,107.511941 C141.286748,107.511941 138.55347,110.245219 138.55347,113.617461 L138.55347,150.74449 C138.55347,154.116732 141.286748,156.85001 144.657791,156.85001 L181.786019,156.85001 C185.158261,156.85001 187.890341,154.116732 187.890341,150.74449 L187.890341,113.617461 C187.890341,110.245219 185.158261,107.511941 181.786019,107.511941" id="Fill-32" fill="#1270ED"></path>
                    <path d="M96.3568089,112.821214 C95.9324315,112.821214 95.5859765,112.475958 95.5859765,112.05158 C95.5859765,111.626004 95.9324315,111.280748 96.3568089,111.280748 L129.114189,111.280748 C129.538567,111.280748 129.883823,111.626004 129.883823,112.05158 C129.883823,112.475958 129.538567,112.821214 129.114189,112.821214 L96.3568089,112.821214 Z" id="Fill-34" fill="#88B7F6"></path>
                    <path d="M96.3568089,120.784644 C95.9324315,120.784644 95.5859765,120.438189 95.5859765,120.013812 C95.5859765,119.589434 95.9324315,119.244178 96.3568089,119.244178 L129.114189,119.244178 C129.538567,119.244178 129.883823,119.589434 129.883823,120.013812 C129.883823,120.438189 129.538567,120.784644 129.114189,120.784644 L96.3568089,120.784644 Z" id="Fill-36" fill="#88B7F6"></path>
                    <path d="M96.3568089,128.747235 C95.9324315,128.747235 95.5859765,128.401979 95.5859765,127.977601 C95.5859765,127.552025 95.9324315,127.206769 96.3568089,127.206769 L129.114189,127.206769 C129.538567,127.206769 129.883823,127.552025 129.883823,127.977601 C129.883823,128.401979 129.538567,128.747235 129.114189,128.747235 L96.3568089,128.747235 Z" id="Fill-38" fill="#88B7F6"></path>
                    <path d="M96.3568089,136.710665 C95.9324315,136.710665 95.5859765,136.365409 95.5859765,135.941031 C95.5859765,135.515455 95.9324315,135.170199 96.3568089,135.170199 L129.114189,135.170199 C129.538567,135.170199 129.883823,135.515455 129.883823,135.941031 C129.883823,136.365409 129.538567,136.710665 129.114189,136.710665 L96.3568089,136.710665 Z" id="Fill-40" fill="#88B7F6"></path>
                    <path d="M96.3568089,144.674215 C95.9324315,144.674215 95.5859765,144.32776 95.5859765,143.903383 C95.5859765,143.479005 95.9324315,143.133749 96.3568089,143.133749 L129.114189,143.133749 C129.538567,143.133749 129.883823,143.479005 129.883823,143.903383 C129.883823,144.32776 129.538567,144.674215 129.114189,144.674215 L96.3568089,144.674215 Z" id="Fill-42" fill="#88B7F6"></path>
                    <path d="M96.3568089,152.636686 C95.9324315,152.636686 95.5859765,152.29143 95.5859765,151.867052 C95.5859765,151.441476 95.9324315,151.09622 96.3568089,151.09622 L110.367257,151.09622 C110.791635,151.09622 111.13809,151.441476 111.13809,151.867052 C111.13809,152.29143 110.791635,152.636686 110.367257,152.636686 L96.3568089,152.636686 Z" id="Fill-44" fill="#88B7F6"></path>
                    <path d="M196.200825,112.821214 C195.776448,112.821214 195.429993,112.475958 195.429993,112.05158 C195.429993,111.626004 195.776448,111.280748 196.200825,111.280748 L228.958206,111.280748 C229.382583,111.280748 229.727839,111.626004 229.727839,112.05158 C229.727839,112.475958 229.382583,112.821214 228.958206,112.821214 L196.200825,112.821214 Z" id="Fill-46" fill="#88B7F6"></path>
                    <path d="M196.200825,120.784644 C195.776448,120.784644 195.429993,120.438189 195.429993,120.013812 C195.429993,119.589434 195.776448,119.244178 196.200825,119.244178 L228.958206,119.244178 C229.382583,119.244178 229.727839,119.589434 229.727839,120.013812 C229.727839,120.438189 229.382583,120.784644 228.958206,120.784644 L196.200825,120.784644 Z" id="Fill-48" fill="#88B7F6"></path>
                    <path d="M196.200825,128.747235 C195.776448,128.747235 195.429993,128.401979 195.429993,127.977601 C195.429993,127.552025 195.776448,127.206769 196.200825,127.206769 L228.958206,127.206769 C229.382583,127.206769 229.727839,127.552025 229.727839,127.977601 C229.727839,128.401979 229.382583,128.747235 228.958206,128.747235 L196.200825,128.747235 Z" id="Fill-50" fill="#88B7F6"></path>
                    <path d="M196.200825,136.710665 C195.776448,136.710665 195.429993,136.365409 195.429993,135.941031 C195.429993,135.515455 195.776448,135.170199 196.200825,135.170199 L228.958206,135.170199 C229.382583,135.170199 229.727839,135.515455 229.727839,135.941031 C229.727839,136.365409 229.382583,136.710665 228.958206,136.710665 L196.200825,136.710665 Z" id="Fill-52" fill="#88B7F6"></path>
                    <path d="M196.200825,144.674215 C195.776448,144.674215 195.429993,144.32776 195.429993,143.903383 C195.429993,143.479005 195.776448,143.133749 196.200825,143.133749 L228.958206,143.133749 C229.382583,143.133749 229.727839,143.479005 229.727839,143.903383 C229.727839,144.32776 229.382583,144.674215 228.958206,144.674215 L196.200825,144.674215 Z" id="Fill-54" fill="#88B7F6"></path>
                    <path d="M196.200825,152.636686 C195.776448,152.636686 195.429993,152.29143 195.429993,151.867052 C195.429993,151.441476 195.776448,151.09622 196.200825,151.09622 L210.211274,151.09622 C210.635651,151.09622 210.982106,151.441476 210.982106,151.867052 C210.982106,152.29143 210.635651,152.636686 210.211274,152.636686 L196.200825,152.636686 Z" id="Fill-56" fill="#88B7F6"></path>
                    <path d="M282.232549,108 L245.104321,108 C241.733278,108 239,110.733278 239,114.10552 L239,151.232549 C239,154.604791 241.733278,157.33807 245.104321,157.33807 L282.232549,157.33807 C285.604791,157.33807 288.336871,154.604791 288.336871,151.232549 L288.336871,114.10552 C288.336871,110.733278 285.604791,108 282.232549,108" id="Fill-58" fill="#1D4271"></path>
                    <path d="M296.894556,112.821214 C296.470178,112.821214 296.123723,112.475958 296.123723,112.05158 C296.123723,111.626004 296.470178,111.280748 296.894556,111.280748 L329.651936,111.280748 C330.076313,111.280748 330.42157,111.626004 330.42157,112.05158 C330.42157,112.475958 330.076313,112.821214 329.651936,112.821214 L296.894556,112.821214 Z" id="Fill-60" fill="#88B7F6"></path>
                    <path d="M296.894556,120.784644 C296.470178,120.784644 296.123723,120.438189 296.123723,120.013812 C296.123723,119.589434 296.470178,119.244178 296.894556,119.244178 L329.651936,119.244178 C330.076313,119.244178 330.42157,119.589434 330.42157,120.013812 C330.42157,120.438189 330.076313,120.784644 329.651936,120.784644 L296.894556,120.784644 Z" id="Fill-62" fill="#88B7F6"></path>
                    <path d="M296.894556,128.747235 C296.470178,128.747235 296.123723,128.401979 296.123723,127.977601 C296.123723,127.552025 296.470178,127.206769 296.894556,127.206769 L329.651936,127.206769 C330.076313,127.206769 330.42157,127.552025 330.42157,127.977601 C330.42157,128.401979 330.076313,128.747235 329.651936,128.747235 L296.894556,128.747235 Z" id="Fill-64" fill="#88B7F6"></path>
                    <path d="M296.894556,136.710665 C296.470178,136.710665 296.123723,136.365409 296.123723,135.941031 C296.123723,135.515455 296.470178,135.170199 296.894556,135.170199 L329.651936,135.170199 C330.076313,135.170199 330.42157,135.515455 330.42157,135.941031 C330.42157,136.365409 330.076313,136.710665 329.651936,136.710665 L296.894556,136.710665 Z" id="Fill-66" fill="#88B7F6"></path>
                    <path d="M296.894556,144.674215 C296.470178,144.674215 296.123723,144.32776 296.123723,143.903383 C296.123723,143.479005 296.470178,143.133749 296.894556,143.133749 L329.651936,143.133749 C330.076313,143.133749 330.42157,143.479005 330.42157,143.903383 C330.42157,144.32776 330.076313,144.674215 329.651936,144.674215 L296.894556,144.674215 Z" id="Fill-68" fill="#88B7F6"></path>
                    <path d="M296.894556,152.636686 C296.470178,152.636686 296.123723,152.29143 296.123723,151.867052 C296.123723,151.441476 296.470178,151.09622 296.894556,151.09622 L310.905004,151.09622 C311.329381,151.09622 311.675836,151.441476 311.675836,151.867052 C311.675836,152.29143 311.329381,152.636686 310.905004,152.636686 L296.894556,152.636686 Z" id="Fill-70" fill="#88B7F6"></path>
                    <path d="M371.482242,9.85562587 L361.829454,9.85562587 C361.301979,9.85562587 360.871608,10.2859973 360.871608,10.8122733 C360.871608,11.3385492 361.301979,11.7701194 361.829454,11.7701194 L371.482242,11.7701194 C372.008518,11.7701194 372.438889,11.3385492 372.438889,10.8122733 C372.438889,10.2859973 372.008518,9.85562587 371.482242,9.85562587" id="Fill-72" fill="#1270ED"></path>
                    <path d="M371.482242,14.4034172 L361.829454,14.4034172 C361.301979,14.4034172 360.871608,14.8337887 360.871608,15.3600646 C360.871608,15.8863405 361.301979,16.316712 361.829454,16.316712 L371.482242,16.316712 C372.008518,16.316712 372.438889,15.8863405 372.438889,15.3600646 C372.438889,14.8337887 372.008518,14.4034172 371.482242,14.4034172" id="Fill-74" fill="#1270ED"></path>
                    <path d="M371.482242,18.8740055 L361.829454,18.8740055 C361.301979,18.8740055 360.871608,19.3043769 360.871608,19.8306528 C360.871608,20.3569288 361.301979,20.7873002 361.829454,20.7873002 L371.482242,20.7873002 C372.008518,20.7873002 372.438889,20.3569288 372.438889,19.8306528 C372.438889,19.3043769 372.008518,18.8740055 371.482242,18.8740055" id="Fill-76" fill="#1270ED"></path>
                    <path d="M23.5856736,14.7821201 C23.5856736,17.1281839 21.6831681,19.0306894 19.3371043,19.0306894 C16.9910405,19.0306894 15.088535,17.1281839 15.088535,14.7821201 C15.088535,12.4360563 16.9910405,10.5335508 19.3371043,10.5335508 C21.6831681,10.5335508 23.5856736,12.4360563 23.5856736,14.7821201" id="Fill-78" fill="#1270ED"></path>
                    <path d="M46.4971386,14.7821201 C46.4971386,17.1281839 44.5946331,19.0306894 42.2485693,19.0306894 C39.9025055,19.0306894 38,17.1281839 38,14.7821201 C38,12.4360563 39.9025055,10.5335508 42.2485693,10.5335508 C44.5946331,10.5335508 46.4971386,12.4360563 46.4971386,14.7821201" id="Fill-80" fill="#1D4271"></path>
                    <path d="M69.4971386,14.7821201 C69.4971386,17.1281839 67.5946331,19.0306894 65.2485693,19.0306894 C62.9025055,19.0306894 61,17.1281839 61,14.7821201 C61,12.4360563 62.9025055,10.5335508 65.2485693,10.5335508 C67.5946331,10.5335508 69.4971386,12.4360563 69.4971386,14.7821201" id="Fill-82" fill="#1270ED"></path>
                    <path d="M176.090913,137.696374 L165.244114,122.260545 C164.06329,120.579818 161.57217,120.579818 160.391346,122.260545 L149.544547,137.696374 C148.163523,139.661217 149.568524,142.366923 151.970931,142.366923 L173.664529,142.366923 C176.065738,142.366923 177.471938,139.661217 176.090913,137.696374" id="Fill-84" fill="#1D4271"></path>
                    <path d="M276.501006,131.750503 C276.501006,124.708715 270.792291,119 263.750503,119 C256.708715,119 251,124.708715 251,131.750503 C251,138.792291 256.708715,144.501006 263.750503,144.501006 C270.792291,144.501006 276.501006,138.792291 276.501006,131.750503" id="Fill-86" fill="#1270ED"></path>
                    <g id="Group-2" transform="translate(60.000000, 56.000000)">
                        <path d="M15.1449989,14.2270318 C12.6358975,17.2408307 8.16315138,17.6484248 5.14935249,15.1393233 C2.1367524,12.6290231 1.72795948,8.15747577 4.23825975,5.14367688 C6.74736121,2.12987799 11.2201073,1.72228387 14.2327074,4.23138533 C17.2465063,6.7416856 17.6541004,11.2132329 15.1449989,14.2270318 M30.2991086,24.8592443 L18.6730857,15.2855777 C18.2798773,14.9583036 18.1611954,14.4020575 18.3877698,13.9393183 C20.4353309,9.76387614 19.2688924,4.52868928 15.1893548,1.70070536 C11.4466817,-0.88991493 6.28222439,-0.483519615 3.0010917,2.66454558 C2.35133872,3.28792482 1.81187591,3.97723841 1.37551044,4.70131738 C-1.04487936,8.73170396 -0.22849231,14.0364216 3.48900584,17.1329381 C6.99431529,20.0520313 11.9441863,20.0688146 15.4482969,17.4686038 C15.5585871,17.3858862 15.6820641,17.3295423 15.8103364,17.2911805 C16.1567914,17.1916796 16.5380118,17.2660056 16.8245265,17.504568 L28.4505494,27.0782347 C28.7586426,27.3335804 29.1350678,27.4390754 29.5054989,27.4019124 C29.8735324,27.3683458 30.2247826,27.1957177 30.4801284,26.8888233 C30.9920186,26.2750345 30.909301,25.3663394 30.2991086,24.8592443" id="Fill-88" fill="#FFFFFF"></path>
                        <path d="M14.2329471,4.23174497 C11.2191483,1.72264351 6.74760097,2.13023763 4.2373007,5.14403652 C1.72819924,8.15783542 2.13699217,12.6293827 5.14959225,15.1384842 C8.16339114,17.6487844 12.6349384,17.2399915 15.1452387,14.2273914 C17.6543402,11.2135925 17.246746,6.74084644 14.2329471,4.23174497" id="Fill-90" fill="#1270ED"></path>
                    </g>
                </g>
            </g>
        </g>
    </g>
</svg>