<?xml version="1.0" encoding="UTF-8"?>
<svg width="568px" height="392px" viewBox="0 0 568 392" version="1.1" xmlns="http://www.w3.org/2000/svg" xmlns:xlink="http://www.w3.org/1999/xlink">
    <title>Group 11</title>
    <defs>
        <path d="M47.0022273,40 C43.5520629,40 40.7552479,42.796815 40.7552479,46.2469793 L40,225.082497 C40,228.532661 42.796815,231.328277 46.2469793,231.328277 L413.753021,231.328277 C417.203185,231.328277 420,228.531462 420,225.082497 L420,46.2469793 C420,42.796815 417.203185,40 413.753021,40 L47.0022273,40 Z" id="path-1"></path>
        <filter x="-20.3%" y="-28.7%" width="140.5%" height="180.5%" filterUnits="objectBoundingBox" id="filter-2">
            <feOffset dx="0" dy="22" in="SourceAlpha" result="shadowOffsetOuter1"></feOffset>
            <feGaussianBlur stdDeviation="22" in="shadowOffsetOuter1" result="shadowBlurOuter1"></feGaussianBlur>
            <feColorMatrix values="0 0 0 0 0.235889946   0 0 0 0 0.337181924   0 0 0 0 0.700435915  0 0 0 1 0" type="matrix" in="shadowBlurOuter1"></feColorMatrix>
        </filter>
        <path d="M27.0022273,20 C23.5520629,20 20.7552479,22.796815 20.7552479,26.2469793 L20,205.082497 C20,208.532661 22.796815,211.328277 26.2469793,211.328277 L393.753021,211.328277 C397.203185,211.328277 400,208.531462 400,205.082497 L400,26.2469793 C400,22.796815 397.203185,20 393.753021,20 L27.0022273,20 Z" id="path-3"></path>
        <filter x="-20.3%" y="-28.7%" width="140.5%" height="180.5%" filterUnits="objectBoundingBox" id="filter-4">
            <feOffset dx="0" dy="22" in="SourceAlpha" result="shadowOffsetOuter1"></feOffset>
            <feGaussianBlur stdDeviation="22" in="shadowOffsetOuter1" result="shadowBlurOuter1"></feGaussianBlur>
            <feColorMatrix values="0 0 0 0 0.235294118   0 0 0 0 0.337254902   0 0 0 0 0.701960784  0 0 0 1 0" type="matrix" in="shadowBlurOuter1"></feColorMatrix>
        </filter>
        <filter x="-33.4%" y="-66.4%" width="166.8%" height="232.8%" filterUnits="objectBoundingBox" id="filter-5">
            <feOffset dx="0" dy="22" in="SourceAlpha" result="shadowOffsetOuter1"></feOffset>
            <feGaussianBlur stdDeviation="22" in="shadowOffsetOuter1" result="shadowBlurOuter1"></feGaussianBlur>
            <feColorMatrix values="0 0 0 0 0.235294118   0 0 0 0 0.337254902   0 0 0 0 0.701960784  0 0 0 0.5 0" type="matrix" in="shadowBlurOuter1" result="shadowMatrixOuter1"></feColorMatrix>
            <feMerge>
                <feMergeNode in="shadowMatrixOuter1"></feMergeNode>
                <feMergeNode in="SourceGraphic"></feMergeNode>
            </feMerge>
        </filter>
    </defs>
    <g id="Design" stroke="none" stroke-width="1" fill="none" fill-rule="evenodd">
        <g id="002-Funkcionalnosti" transform="translate(-121.000000, -1575.000000)">
            <g id="Group-11" transform="translate(215.000000, 1669.000000)">
                <g id="Fill-24">
                    <use fill="black" fill-opacity="1" filter="url(#filter-2)" xlink:href="#path-1"></use>
                    <use fill="#A1B6F5" fill-rule="evenodd" xlink:href="#path-1"></use>
                </g>
                <g id="Fill-24">
                    <use fill="black" fill-opacity="1" filter="url(#filter-4)" xlink:href="#path-3"></use>
                    <use fill="#BACBFF" fill-rule="evenodd" xlink:href="#path-3"></use>
                </g>
                <g id="Group-8" filter="url(#filter-5)">
                    <path d="M7.00222726,0 C3.55206289,0 0.755247932,2.79681496 0.755247932,6.24697932 L0,185.082497 C0,188.532661 2.79681496,191.328277 6.24697932,191.328277 L373.753021,191.328277 C377.203185,191.328277 380,188.531462 380,185.082497 L380,6.24697932 C380,2.79681496 377.203185,0 373.753021,0 L7.00222726,0 Z" id="Fill-24" fill="#EBF0FF"></path>
                    <path d="M218.262508,111 L121.737492,111 C120.778118,111 120,111.124676 120,111.278537 L120,112.721463 C120,112.875324 120.778118,113 121.737492,113 L218.262508,113 C219.221882,113 220,112.875324 220,112.721463 L220,111.278537 C220,111.124676 219.221882,111 218.262508,111" id="Fill-26" fill="#1270ED" opacity="0.5"></path>
                    <path d="M218.262508,121 L121.737492,121 C120.778118,121 120,121.124676 120,121.278537 L120,122.721463 C120,122.875324 120.778118,123 121.737492,123 L218.262508,123 C219.221882,123 220,122.875324 220,122.721463 L220,121.278537 C220,121.124676 219.221882,121 218.262508,121" id="Fill-26" fill="#1270ED" opacity="0.5"></path>
                    <path d="M218.262508,131 L121.737492,131 C120.778118,131 120,131.124676 120,131.278537 L120,132.721463 C120,132.875324 120.778118,133 121.737492,133 L218.262508,133 C219.221882,133 220,132.875324 220,132.721463 L220,131.278537 C220,131.124676 219.221882,131 218.262508,131" id="Fill-26" fill="#1270ED" opacity="0.5"></path>
                    <path d="M169.131254,141 L120.868746,141 C120.389059,141 120,141.124676 120,141.278537 L120,142.721463 C120,142.875324 120.389059,143 120.868746,143 L169.131254,143 C169.610941,143 170,142.875324 170,142.721463 L170,141.278537 C170,141.124676 169.610941,141 169.131254,141" id="Fill-26" fill="#1270ED" opacity="0.5"></path>
                    <path d="M169.131254,151 L120.868746,151 C120.389059,151 120,151.124676 120,151.278537 L120,152.721463 C120,152.875324 120.389059,153 120.868746,153 L169.131254,153 C169.610941,153 170,152.875324 170,152.721463 L170,151.278537 C170,151.124676 169.610941,151 169.131254,151" id="Fill-26" fill="#1270ED" opacity="0.5"></path>
                    <g id="Group-7" transform="translate(240.000000, 111.000000)" fill="#1270ED" opacity="0.5">
                        <path d="M98.2625082,0 L1.73749182,0 C0.778118462,0 0,0.12467599 0,0.278536913 L0,1.72146309 C0,1.87532401 0.778118462,2 1.73749182,2 L98.2625082,2 C99.2218815,2 100,1.87532401 100,1.72146309 L100,0.278536913 C100,0.12467599 99.2218815,0 98.2625082,0" id="Fill-26"></path>
                        <path d="M98.2625082,10 L1.73749182,10 C0.778118462,10 0,10.124676 0,10.2785369 L0,11.7214631 C0,11.875324 0.778118462,12 1.73749182,12 L98.2625082,12 C99.2218815,12 100,11.875324 100,11.7214631 L100,10.2785369 C100,10.124676 99.2218815,10 98.2625082,10" id="Fill-26"></path>
                        <path d="M98.2625082,20 L1.73749182,20 C0.778118462,20 0,20.124676 0,20.2785369 L0,21.7214631 C0,21.875324 0.778118462,22 1.73749182,22 L98.2625082,22 C99.2218815,22 100,21.875324 100,21.7214631 L100,20.2785369 C100,20.124676 99.2218815,20 98.2625082,20" id="Fill-26"></path>
                        <path d="M49.1312541,30 L0.868745908,30 C0.389059231,30 0,30.124676 0,30.2785369 L0,31.7214631 C0,31.875324 0.389059231,32 0.868745908,32 L49.1312541,32 C49.6109408,32 50,31.875324 50,31.7214631 L50,30.2785369 C50,30.124676 49.6109408,30 49.1312541,30" id="Fill-26"></path>
                        <path d="M49.1312541,40 L0.868745908,40 C0.389059231,40 0,40.124676 0,40.2785369 L0,41.7214631 C0,41.875324 0.389059231,42 0.868745908,42 L49.1312541,42 C49.6109408,42 50,41.875324 50,41.7214631 L50,40.2785369 C50,40.124676 49.6109408,40 49.1312541,40" id="Fill-26"></path>
                    </g>
                    <path d="M101.339084,101 L48.660916,101 C43.8780221,101 40,104.877928 40,109.662406 L40,162.337594 C40,167.122072 43.8780221,171 48.660916,171 L101.339084,171 C106.123679,171 110,167.122072 110,162.337594 L110,109.662406 C110,104.877928 106.123679,101 101.339084,101" id="Fill-30" fill="#1270ED"></path>
                    <g id="Shape-7" transform="translate(59.000000, 116.000000)" fill="#FFFFFF" fill-rule="nonzero">
                        <path d="M27.5037487,23.9927735 C29.9879717,23.9927735 32.0019524,26.0065543 32.0019524,28.4909773 L32.0019524,30.3279422 C32.0019524,31.4748451 31.6433202,32.5929455 30.9766604,33.5260292 C27.8845829,37.8530176 22.8355297,39.99641 15.9943156,39.99641 C9.15180145,39.99641 4.1054285,37.8520175 1.02083163,33.5228289 C0.35685203,32.5909453 0,31.4752452 0,30.3309424 L0,28.4909773 C0,26.0065543 2.01390076,23.9927735 4.49816375,23.9927735 L27.5037487,23.9927735 Z M15.9943156,0 C21.5176114,0 25.9952133,4.4775619 25.9952133,10.0008977 C25.9952133,15.5242534 21.5176114,20.0018153 15.9943156,20.0018153 C10.4710199,20.0018153 5.99345796,15.5242534 5.99345796,10.0008977 C5.99345796,4.4775619 10.4710199,0 15.9943156,0 Z" id="Shape"></path>
                    </g>
                    <path d="M371.482242,9.85562587 L361.829454,9.85562587 C361.301979,9.85562587 360.871608,10.2859973 360.871608,10.8122733 C360.871608,11.3385492 361.301979,11.7701194 361.829454,11.7701194 L371.482242,11.7701194 C372.008518,11.7701194 372.438889,11.3385492 372.438889,10.8122733 C372.438889,10.2859973 372.008518,9.85562587 371.482242,9.85562587" id="Fill-72" fill="#1270ED"></path>
                    <path d="M371.482242,14.4034172 L361.829454,14.4034172 C361.301979,14.4034172 360.871608,14.8337887 360.871608,15.3600646 C360.871608,15.8863405 361.301979,16.316712 361.829454,16.316712 L371.482242,16.316712 C372.008518,16.316712 372.438889,15.8863405 372.438889,15.3600646 C372.438889,14.8337887 372.008518,14.4034172 371.482242,14.4034172" id="Fill-74" fill="#1270ED"></path>
                    <path d="M371.482242,18.8740055 L361.829454,18.8740055 C361.301979,18.8740055 360.871608,19.3043769 360.871608,19.8306528 C360.871608,20.3569288 361.301979,20.7873002 361.829454,20.7873002 L371.482242,20.7873002 C372.008518,20.7873002 372.438889,20.3569288 372.438889,19.8306528 C372.438889,19.3043769 372.008518,18.8740055 371.482242,18.8740055" id="Fill-76" fill="#1270ED"></path>
                    <path d="M23.5856736,14.7821201 C23.5856736,17.1281839 21.6831681,19.0306894 19.3371043,19.0306894 C16.9910405,19.0306894 15.088535,17.1281839 15.088535,14.7821201 C15.088535,12.4360563 16.9910405,10.5335508 19.3371043,10.5335508 C21.6831681,10.5335508 23.5856736,12.4360563 23.5856736,14.7821201" id="Fill-78" fill="#1270ED"></path>
                    <path d="M46.4971386,14.7821201 C46.4971386,17.1281839 44.5946331,19.0306894 42.2485693,19.0306894 C39.9025055,19.0306894 38,17.1281839 38,14.7821201 C38,12.4360563 39.9025055,10.5335508 42.2485693,10.5335508 C44.5946331,10.5335508 46.4971386,12.4360563 46.4971386,14.7821201" id="Fill-80" fill="#1D4271"></path>
                    <path d="M69.4971386,14.7821201 C69.4971386,17.1281839 67.5946331,19.0306894 65.2485693,19.0306894 C62.9025055,19.0306894 61,17.1281839 61,14.7821201 C61,12.4360563 62.9025055,10.5335508 65.2485693,10.5335508 C67.5946331,10.5335508 69.4971386,12.4360563 69.4971386,14.7821201" id="Fill-82" fill="#1270ED"></path>
                    <g id="Group-2" transform="translate(310.000000, 57.000000)" fill="#1270ED">
                        <path d="M9.61947354,9.03641897 C8.02579662,10.9506587 5.1848943,11.2095455 3.27065457,9.61586863 C1.35717627,8.02143028 1.097528,5.18128939 2.69196635,3.26704966 C4.28564326,1.35280993 7.12654558,1.0939231 9.04002388,2.68760001 C10.9542636,4.28203835 11.2131504,7.12217924 9.61947354,9.03641897 M19.2447339,15.7895583 L11.8603675,9.70876332 C11.6106179,9.50089241 11.5352361,9.14758802 11.6791468,8.85367532 C12.9796724,6.2016081 12.2387992,2.87643511 9.64764652,1.08021732 C7.27045621,-0.565236958 3.99020769,-0.307111553 1.90616865,1.69240855 C1.49347258,2.08835312 1.15082824,2.52617645 0.873667033,2.9860813 C-0.66366392,5.54601526 -0.145128814,8.9153513 2.21607143,10.8821298 C4.44249823,12.7362164 7.58645043,12.7468765 9.8121158,11.0953308 C9.88216753,11.042792 9.96059502,11.0070047 10.0420682,10.9826388 C10.262122,10.91944 10.5042574,10.9666488 10.6862396,11.1181737 L18.0706059,17.1989687 C18.2662939,17.3611536 18.5053835,17.4281597 18.740666,17.4045553 C18.9744255,17.3832352 19.1975251,17.273589 19.3597101,17.0786624 C19.6848415,16.6888093 19.6323027,16.1116439 19.2447339,15.7895583" id="Fill-88"></path>
                    </g>
                    <rect id="Rectangle" stroke="#1270ED" x="40" y="51" width="300" height="30" rx="2"></rect>
                </g>
            </g>
        </g>
    </g>
</svg>