<?xml version="1.0" encoding="UTF-8"?>
<svg width="459px" height="356px" viewBox="0 0 459 356" version="1.1" xmlns="http://www.w3.org/2000/svg" xmlns:xlink="http://www.w3.org/1999/xlink">
    <title>Group 13</title>
    <defs>
        <path d="M177.731106,267.397799 L14.9916401,173.641311 C10.2061542,170.884326 8.56172972,164.769945 11.3187152,159.984459 C12.1933859,158.466234 13.4516144,157.204475 14.9673828,156.325554 L130.873597,89.1171326 C133.967065,87.3233798 137.782913,87.3179634 140.881461,89.102927 L298.626343,179.974163 C303.411931,182.730971 305.056583,188.845291 302.299775,193.630879 C301.425015,195.149389 300.166564,196.411357 298.650501,197.29035 L177.731106,267.397799 L177.731106,267.397799 Z" id="path-1"></path>
        <filter x="-21.5%" y="-29.8%" width="143.1%" height="184.7%" filterUnits="objectBoundingBox" id="filter-2">
            <feMorphology radius="0.5" operator="dilate" in="SourceAlpha" result="shadowSpreadOuter1"></feMorphology>
            <feOffset dx="0" dy="22" in="shadowSpreadOuter1" result="shadowOffsetOuter1"></feOffset>
            <feGaussianBlur stdDeviation="22" in="shadowOffsetOuter1" result="shadowBlurOuter1"></feGaussianBlur>
            <feComposite in="shadowBlurOuter1" in2="SourceAlpha" operator="out" result="shadowBlurOuter1"></feComposite>
            <feColorMatrix values="0 0 0 0 0.0211782068   0 0 0 0 0.128156215   0 0 0 0 0.305338542  0 0 0 0.5 0" type="matrix" in="shadowBlurOuter1"></feColorMatrix>
        </filter>
        <path d="M81.3475932,70.1075797 L197.253808,2.89915817 C200.347276,1.10540533 204.163123,1.09998893 207.261671,2.88495251 L365.006553,93.7561888 C369.792142,96.5129966 371.436793,102.627317 368.679985,107.412905 C367.805226,108.931415 366.546774,110.193383 365.030711,111.072376 L249.111217,178.280949 C246.017698,180.07453 242.201899,180.079783 239.103454,178.294725 L81.3718505,87.4233369 C76.5863646,84.6663514 74.9419401,78.5519702 77.6989257,73.7664843 C78.5735963,72.2482594 79.8318249,70.9865007 81.3475932,70.1075797 Z" id="path-3"></path>
        <filter x="-24.6%" y="-30.4%" width="149.1%" height="185.0%" filterUnits="objectBoundingBox" id="filter-4">
            <feOffset dx="0" dy="22" in="SourceAlpha" result="shadowOffsetOuter1"></feOffset>
            <feGaussianBlur stdDeviation="22" in="shadowOffsetOuter1" result="shadowBlurOuter1"></feGaussianBlur>
            <feColorMatrix values="0 0 0 0 0.0359445825   0 0 0 0 0.160631664   0 0 0 0 0.367498868  0 0 0 1 0" type="matrix" in="shadowBlurOuter1"></feColorMatrix>
        </filter>
    </defs>
    <g id="Design" stroke="none" stroke-width="1" fill="none" fill-rule="evenodd">
        <g id="002-Funkcionalnosti" transform="translate(-790.000000, -3179.000000)" fill-rule="nonzero">
            <g id="Group-13" transform="translate(825.000000, 3201.000000)">
                <path d="M275.897518,262.468878 L224.868685,233.002169 C219.710867,230.026504 220.29074,224.838166 226.303108,221.404706 L226.303108,221.404706 C232.254437,217.971247 241.24247,217.605012 246.400289,220.580676 L297.429122,250.032126 C302.571681,253.08409 302.007068,258.196129 295.979439,261.629588 L295.979439,261.629588 C290.04337,265.124086 281.040077,265.520842 275.897518,262.468878 Z" id="Path" fill="#1D4271"></path>
                <polygon id="Path" fill="#EBF0FF" points="275.073488 248.124649 273.730624 243.638262 271.594249 244.874307 257.799374 236.908682 255.662999 238.144727 269.457875 246.110353 267.30624 247.346398"></polygon>
                <polygon id="Path" fill="#EBF0FF" style="mix-blend-mode: screen;" points="270.999117 253.770781 273.898482 255.449361 279.163119 252.412658 276.263754 250.734078"></polygon>
                <polygon id="Path" fill="#EBF0FF" style="mix-blend-mode: screen;" points="274.783552 255.952936 277.682917 257.631516 286.899847 252.305839 284.000482 250.627259"></polygon>
                <polygon id="Path" fill="#EBF0FF" style="mix-blend-mode: screen;" points="291.73721 250.5357 278.567987 258.13509 281.467352 259.81367 294.636575 252.21428"></polygon>
                <g id="Path">
                    <use fill="black" fill-opacity="1" filter="url(#filter-2)" xlink:href="#path-1"></use>
                    <use stroke="#094375" stroke-width="1" fill="#1D4271" xlink:href="#path-1"></use>
                </g>
                <polygon id="Path" fill="#D1B4E3" style="mix-blend-mode: multiply;" points="267.214682 202.009477 143.106578 130.34937 143.76275 129.967874 267.870854 201.627982"></polygon>
                <polygon id="Path" fill="#D1B4E3" style="mix-blend-mode: multiply;" points="241.807084 216.674163 117.69898 145.014055 118.355152 144.63256 242.463256 216.292667"></polygon>
                <polygon id="Path" fill="#D1B4E3" style="mix-blend-mode: multiply;" points="279.910851 194.669504 155.802747 123.009397 156.458919 122.643161 280.567023 194.288009"></polygon>
                <polygon id="Path" fill="#D1B4E3" style="mix-blend-mode: multiply;" points="254.503253 209.33419 130.395149 137.689342 131.051321 137.307847 255.159425 208.967954"></polygon>
                <polygon id="Path" fill="#2780F7" points="135.888684 154.826118 127.434744 149.942976 158.580034 131.96691 167.033973 136.850052"></polygon>
                <polygon id="Path" fill="#2780F7" points="152.476106 164.409284 144.022167 159.526142 191.556501 132.073729 200.010441 136.956871"></polygon>
                <polygon id="Path" fill="#2780F7" points="169.063529 173.977191 160.60959 169.094049 197.889326 147.562445 206.343266 152.445587"></polygon>
                <polygon id="Path" fill="#2780F7" points="185.650952 183.545097 177.197012 178.677215 208.327042 160.701149 216.780981 165.569031"></polygon>
                <polygon id="Path" fill="#2780F7" points="202.223115 193.128263 193.769175 188.245121 216.719942 174.999598 225.173882 179.88274"></polygon>
                <polygon id="Path" fill="#2780F7" points="218.810537 202.696169 210.356598 197.828287 241.501887 179.836961 249.955827 184.720103"></polygon>
                <polygon id="Path" fill="#2780F7" points="235.39796 212.279335 226.944021 207.396193 270.373464 182.324311 278.827403 187.207453"></polygon>
                <polygon id="Path" fill="#D1B4E3" style="mix-blend-mode: multiply;" points="81.8384066 165.126496 205.94651 236.786603 206.602683 236.405108 82.4945787 164.745"></polygon>
                <polygon id="Path" fill="#D1B4E3" style="mix-blend-mode: multiply;" points="56.4308088 179.791181 180.538913 251.451289 181.195085 251.069794 57.086981 179.409686"></polygon>
                <polygon id="Path" fill="#D1B4E3" style="mix-blend-mode: multiply;" points="94.5345755 157.786523 218.642679 229.446631 219.314111 229.065135 95.1907477 157.420288"></polygon>
                <polygon id="Path" fill="#D1B4E3" style="mix-blend-mode: multiply;" points="69.1422376 172.466469 193.250341 244.111316 193.906514 243.729821 69.7984098 172.084973"></polygon>
                <polygon id="Path" fill="#247EF6" points="163.554735 240.952534 172.008674 245.820416 203.153964 227.84435 194.684764 222.961208"></polygon>
                <polygon id="Path" fill="#247EF6" points="146.967312 231.369368 155.421251 236.25251 202.955586 208.815356 194.501646 203.932214"></polygon>
                <polygon id="Path" fill="#247EF6" points="130.379889 221.786202 138.833829 226.669344 176.128825 205.153 167.674886 200.269858"></polygon>
                <polygon id="Path" fill="#247EF6" points="113.792466 212.218296 122.246406 217.101438 153.391695 199.125371 144.937756 194.24223"></polygon>
                <polygon id="Path" fill="#247EF6" points="97.2203036 202.65039 105.674243 207.518272 128.60975 194.272749 120.155811 189.389607"></polygon>
                <polygon id="Path" fill="#247EF6" points="80.6328809 193.067224 89.0868203 197.950365 124.871095 177.288571 116.417155 172.405429"></polygon>
                <polygon id="Path" fill="#247EF6" points="64.0454582 183.499317 72.4993976 188.367199 101.447273 171.657698 92.9933339 166.774556"></polygon>
                <path d="M133.874388,127.312666 C126.564935,131.524376 114.708056,131.509116 107.352823,127.312666 C99.9975906,123.116216 99.9823307,116.218778 107.352823,112.052847 C114.723315,107.886917 126.519155,107.856397 133.859128,112.052847 C141.1991,116.249297 141.168581,123.100956 133.874388,127.312666 Z" id="Path" fill="#247EF6" opacity="0.7"></path>
                <path d="M73.0792707,163.676813 C65.7850775,167.888523 53.9129387,167.873263 46.572966,163.676813 C39.2329933,159.480363 39.1872139,152.582925 46.4966669,148.416995 C53.80612,144.251064 65.662999,144.220545 73.0029716,148.416995 C80.3429443,152.613445 80.373464,159.465103 73.0792707,163.676813 Z" id="Path" fill="#2781F7" opacity="0.8"></path>
                <path d="M122.978877,122.582122 C122.522097,122.195168 122.227878,121.650319 122.154847,121.05614 C122.154847,120.720424 122.612642,120.461007 123.192515,120.461007 C123.942019,120.464452 124.689479,120.382538 125.420448,120.21685 C125.883856,120.384713 126.391463,120.384713 126.854871,120.21685 C127.236367,120.003213 127.358445,119.713276 127.175327,119.514898 C128.701309,118.55353 129.388001,117.424303 127.175327,116.188258 C125.397653,115.132003 123.18479,115.132003 121.407116,116.188258 C120.996641,116.09293 120.565243,116.158459 120.20159,116.371376 C120.052923,116.455244 119.960966,116.612699 119.960966,116.783391 C119.960966,116.954083 120.052923,117.111538 120.20159,117.195406 C119.929619,117.573771 119.780465,118.026561 119.774315,118.492491 C119.774315,118.828207 119.316521,119.102883 118.736648,119.087623 C117.793502,119.069706 116.859977,118.894347 115.974621,118.56879 C114.805116,118.166567 113.522628,118.254635 112.419083,118.812947 L110.771022,119.759055 C110.435306,119.957433 110.450566,120.24737 110.771022,120.445747 L119.667497,125.588306 C120.037846,125.771065 120.472154,125.771065 120.842503,125.588306 L122.505823,124.626938 C123.60453,124.077584 123.60453,123.223034 122.978877,122.582122 Z" id="Path" fill="#EBF0FF"></path>
                <path d="M67.7078146,151.163762 C62.8051324,148.683543 57.0149624,148.683543 52.1122801,151.163762 C47.8242711,153.651112 47.839531,157.694964 52.1122801,160.182315 C57.0202815,162.662772 62.8150731,162.662772 67.7230745,160.182315 C72.0568629,157.694964 72.0263433,153.651112 67.7078146,151.163762 Z M66.1818328,159.281985 C62.2465764,161.265277 57.604038,161.265277 53.6687816,159.281985 C50.2048028,157.282949 50.189543,154.032608 53.6687816,152.048831 C57.6022892,150.058197 62.2483252,150.058197 66.1818328,152.048831 C69.6305518,154.124167 69.6458116,157.298209 66.2123524,159.281985 L66.1818328,159.281985 Z M65.662999,152.323508 C65.1825739,152.083822 64.6174422,152.083822 64.1370171,152.323508 L58.3077664,155.650149 L63.7860413,158.808931 C64.265894,159.051034 64.8321704,159.051034 65.3120231,158.808931 C65.5073459,158.745856 65.6397082,158.564021 65.6397082,158.358766 C65.6397082,158.153512 65.5073459,157.971676 65.3120231,157.908602 L61.3902498,155.650149 L65.7087784,153.162798 C66.1207935,152.97968 66.1207935,152.598185 65.6935186,152.323508 L65.662999,152.323508 Z" id="Shape" fill="#EBF0FF" opacity="0.7"></path>
                <polygon id="Path" fill="#267FF6" opacity="0.8" points="57.2243193 174.938559 41.9645008 166.133644 38.9125371 167.858003 54.1723556 176.662919"></polygon>
                <polygon id="Path" fill="#267FF6" opacity="0.8" points="39.4924102 164.714481 31.4810055 160.136535 28.4290418 161.860895 36.4557064 166.43884"></polygon>
                <polygon id="Path" fill="#247EF6" opacity="0.7" points="87.6523974 125.969802 104.300859 135.583487 107.291784 133.859128 90.6433218 124.245442"></polygon>
                <polygon id="Path" fill="#247EF6" opacity="0.7" points="106.77295 137.00265 110.465826 139.139025 113.45675 137.414665 109.748615 135.278291"></polygon>
                <g id="Path">
                    <use fill="black" fill-opacity="1" filter="url(#filter-4)" xlink:href="#path-3"></use>
                    <use fill="#EBF0FF" xlink:href="#path-3"></use>
                </g>
                <path d="M216.689423,81.7773673 C220.477201,80.748972 224.121913,79.2521282 227.539153,77.3215003 C236.786603,71.9805638 240.555779,64.6711108 238.846679,57.7431532 C235.886274,46.8171231 219.481969,38.4547426 199.705245,38.4852622 C197.56887,38.4852622 195.478275,38.592081 193.433459,38.7904586 L190.579873,29.2988515 C200.257533,28.2202504 210.045352,28.6941869 219.573528,30.7027548 C224.012111,31.6197581 228.362351,32.9217666 232.574894,34.5940085 L232.574894,34.5940085 L232.956389,34.7618665 C233.627821,35.0365432 234.283993,35.3264798 234.924906,35.6164164 L236.450887,36.318368 L236.557706,36.318368 C242.216886,38.8254153 247.220053,42.6065145 251.176612,47.3664766 C264.208497,63.5876636 251.939603,82.9065938 223.708939,90.5365031 L216.689423,81.7773673 Z" id="Path" fill="#1270ED" opacity="0.7"></path>
                <path d="M157.069312,82.1741226 C148.233877,76.0701952 143.991647,69.2948358 144.03706,61.3292105 L159.892378,61.3292105 C159.892378,61.3292105 159.892378,61.4818087 159.892378,61.542848 C159.892378,67.173721 163.371617,72.3315396 169.200867,76.3143523 C176.464541,81.3043129 187.360051,84.4478355 199.522127,84.4325757 C206.490814,84.4699709 213.417009,83.345689 220.016063,81.1059353 L228.195326,89.3157176 C204.26793,97.2813429 174.709662,94.3209381 157.069312,82.1741226 Z" id="Path" fill="#1270ED" opacity="0.4"></path>
                <path d="M159.892378,61.2986909 L144.037427,61.2986909 C144.037427,45.39796 163.493695,32.0761385 190.640912,29.253072 L193.494498,38.7446791 C174.648623,40.5605975 160.121275,49.9759055 159.892378,61.2986909 Z" id="Path" fill="#1270ED"></path>
                <path d="M115.623645,91.1468958 L125.878243,85.2260863 C126.246535,85.1039305 126.495133,84.7595584 126.495133,84.3715364 C126.495133,83.9835144 126.246535,83.6391423 125.878243,83.5169866 L109.473938,74.0406393 C108.538488,73.5674365 107.433723,73.5674365 106.498273,74.0406393 L96.2436752,79.9614489 C95.8753831,80.0836046 95.6267845,80.4279767 95.6267845,80.8159987 C95.6267845,81.2040207 95.8753831,81.5483928 96.2436752,81.6705486 L103.019035,85.5923219 L101.493053,86.4163521 L100.501165,85.8517388 C99.5451197,85.3523881 98.4052457,85.3523881 97.4492009,85.8517388 L97.189784,85.9890772 L105.04859,90.5670227 L105.308007,90.4296844 C105.679672,90.2980479 105.928084,89.9465322 105.928084,89.5522448 C105.928084,89.1579574 105.679672,88.8064417 105.308007,88.6748052 L104.331379,88.110192 L105.765802,87.2709019 L112.541161,91.1926753 C113.51292,91.6884651 114.667038,91.6713247 115.623645,91.1468958 L115.623645,91.1468958 Z M98.1816722,81.044896 L108.344711,75.1546061 L123.909726,84.1426391 L113.746687,90.0329291 L98.1816722,81.044896 Z" id="Shape" fill="#1D4271"></path>
                <path d="M185.177897,117.119107 L176.754478,112.251225 C175.798433,111.751874 174.658559,111.751874 173.702514,112.251225 L158.244318,121.223998 C157.420288,121.697052 157.435547,122.460043 158.244318,122.933098 L166.652478,127.80098 C167.608523,128.300331 168.748397,128.300331 169.704441,127.80098 L185.238937,118.828207 C185.603494,118.693464 185.840433,118.339994 185.826562,117.95158 C185.81269,117.563167 185.551138,117.2275 185.177897,117.119107 L185.177897,117.119107 Z M169.292426,126.274998 L160.930046,121.452895 L175.274275,113.166814 L183.636656,118.004176 L169.292426,126.274998 Z" id="Shape" fill="#1D4271"></path>
                <path d="M156.39788,103.110594 L139.230584,93.2069713 C138.300457,92.7339936 137.200306,92.7339936 136.270179,93.2069713 L125.588306,99.3108987 C124.764276,99.7839531 124.779536,100.546944 125.588306,101.019998 L142.740342,110.923621 C143.670469,111.396598 144.77062,111.396598 145.700747,110.923621 L156.38262,104.819693 C156.75204,104.700863 157.003754,104.358698 157.007255,103.970652 C157.010683,103.582606 156.765119,103.236001 156.39788,103.110594 Z M143.518593,109.626536 L127.938318,100.714802 L138.513372,94.6108746 L154.124167,103.522609 L143.518593,109.626536 Z" id="Shape" fill="#1D4271"></path>
                <polygon id="Path" fill="#1270ED" opacity="0.8" points="120.628865 86.675769 128.289294 82.2656815 125.206811 80.4802827 117.546382 84.9056301 115.21163 83.5475062 113.990844 88.7358445 122.978877 88.0338929"></polygon>
                <polygon id="Path" fill="#1270ED" opacity="0.8" points="152.064091 101.416754 144.403662 105.842101 147.486146 107.61224 155.146575 103.202152 157.481327 104.545016 158.702112 99.3566782 149.714079 100.05863"></polygon>
                <polygon id="Path" fill="#1270ED" opacity="0.8" points="178.1889 117.439563 170.528472 121.86491 173.626215 123.635049 181.271384 119.224962 183.621396 120.567826 184.826922 115.379488 175.854148 116.081439"></polygon>
                <polygon id="Path" fill="#1D4271" points="299.29082 74.2084973 305.18111 70.8208176 299.336599 67.4483977 293.461569 70.8360774"></polygon>
                <polygon id="Path" fill="#1D4271" points="288.257971 80.5871014 294.133001 77.1994217 288.288491 73.811742 282.413461 77.2146816"></polygon>
                <polygon id="Path" fill="#1D4271" points="277.209863 86.9657056 283.084893 83.562766 277.240382 80.1903462 271.365352 83.5932857"></polygon>
                <polygon id="Path" fill="#1D4271" opacity="0.5" points="266.161754 93.3443097 272.036784 89.9413702 266.192274 86.5689503 260.317244 89.9718898"></polygon>
                <polygon id="Path" fill="#1D4271" opacity="0.5" points="255.113645 99.7229138 260.988676 96.3199743 255.159425 92.9475544 249.269135 96.3504939"></polygon>
                <polygon id="Path" fill="#1D4271" opacity="0.5" points="244.065537 106.101518 249.955827 102.698578 244.111316 99.3261585 238.221026 102.713838"></polygon>
                <polygon id="Path" fill="#1D4271" points="233.032688 112.464862 238.907718 109.077183 233.063208 105.704763 227.188178 109.092442"></polygon>
                <polygon id="Path" fill="#1D4271" opacity="0.5" points="221.98458 118.843466 227.85961 115.455787 222.015099 112.083367 216.140069 115.471047"></polygon>
                <polygon id="Path" fill="#1D4271" points="309.743796 80.2361256 315.618826 76.8331861 309.774315 73.4607662 303.899285 76.8637057"></polygon>
                <polygon id="Path" fill="#1D4271" opacity="0.5" points="298.695687 86.6147297 304.570717 83.2117902 298.726207 79.8393703 292.851177 83.2423099"></polygon>
                <polygon id="Path" fill="#1D4271" opacity="0.8" points="287.647579 92.9933339 293.522609 89.5903943 287.678098 86.2179745 281.803068 89.620914"></polygon>
                <polygon id="Path" fill="#1D4271" opacity="0.5" points="276.59947 99.371938 282.48976 95.9689985 276.62999 92.5965786 270.754959 95.9995181"></polygon>
                <polygon id="Path" fill="#1D4271" opacity="0.8" points="265.551361 105.750542 271.441651 102.347603 265.597141 98.9751827 259.706851 102.378122"></polygon>
                <polygon id="Path" fill="#1D4271" points="254.503253 112.113886 260.393543 108.726207 254.549032 105.353787 248.674002 108.756726"></polygon>
                <polygon id="Path" fill="#1D4271" opacity="0.5" points="243.470404 118.50775 249.345434 115.104811 243.500924 111.732391 237.625894 115.120071"></polygon>
                <polygon id="Path" fill="#1D4271" opacity="0.5" points="232.422295 124.871095 238.297326 121.483415 232.452815 118.110995 226.577785 121.498675"></polygon>
                <polygon id="Path" fill="#1D4271" opacity="0.5" points="320.181512 86.2637539 326.056542 82.8608144 320.212031 79.4883945 314.337001 82.891334"></polygon>
                <polygon id="Path" fill="#1D4271" points="309.133403 92.642358 315.008433 89.2394185 309.163923 85.8669986 303.288892 89.2699382"></polygon>
                <polygon id="Path" fill="#1D4271" points="298.085294 99.0209622 303.960324 95.6180226 298.131074 92.2456028 292.240784 95.6485423"></polygon>
                <polygon id="Path" fill="#1D4271" points="287.037186 105.399566 292.927476 101.996627 287.082965 98.6242069 281.192675 102.027146"></polygon>
                <polygon id="Path" fill="#1D4271" opacity="0.5" points="275.989077 111.77817 281.879367 108.375231 276.034857 105.002811 270.144567 108.390491"></polygon>
                <polygon id="Path" fill="#1D4271" points="264.956228 118.141515 270.831259 114.753835 264.986748 111.381415 259.111718 114.784355"></polygon>
                <polygon id="Path" fill="#1D4271" opacity="0.5" points="253.90812 124.520119 259.78315 121.132439 253.938639 117.760019 248.063609 121.147699"></polygon>
                <polygon id="Path" fill="#1D4271" points="242.860011 130.898723 248.735041 127.511043 242.890531 124.138623 237.015501 127.526303"></polygon>
                <polygon id="Path" fill="#1D4271" points="330.619227 92.2913822 336.494257 88.9037025 330.649747 85.5160228 324.774717 88.9189623"></polygon>
                <polygon id="Path" fill="#1D4271" opacity="0.5" points="319.571119 98.6699863 325.446149 95.2670468 319.601638 91.8946269 313.726608 95.2975665"></polygon>
                <polygon id="Path" fill="#1D4271" opacity="0.5" points="308.52301 105.04859 314.4133 101.645651 308.56879 98.2732311 302.6785 101.676171"></polygon>
                <polygon id="Path" fill="#1D4271" points="297.474902 111.427195 303.365192 108.024255 297.520681 104.651835 291.645651 108.054775"></polygon>
                <polygon id="Path" fill="#1D4271" points="286.442053 117.805799 292.317083 114.402859 286.472572 111.030439 280.597542 114.418119"></polygon>
                <polygon id="Path" fill="#1D4271" points="275.393944 124.184403 281.268974 120.781463 275.424464 117.409043 269.549434 120.796723"></polygon>
                <polygon id="Path" fill="#1D4271" opacity="0.8" points="264.345836 130.547747 270.220866 127.160067 264.376355 123.787648 258.501325 127.175327"></polygon>
                <polygon id="Path" fill="#1D4271" opacity="0.8" points="253.297727 136.926351 259.172757 133.538672 253.328247 130.166252 247.453217 133.553931"></polygon>
                <polygon id="Path" fill="#1D4271" opacity="0.5" points="341.056943 98.3190105 346.931973 94.916071 341.102723 91.5436511 335.212433 94.9465906"></polygon>
                <polygon id="Path" fill="#1D4271" points="330.008835 104.697615 335.899125 101.294675 330.054614 97.9222552 324.164324 101.325195"></polygon>
                <polygon id="Path" fill="#1D4271" opacity="0.8" points="318.960726 111.076219 324.851016 107.673279 319.006506 104.300859 313.116216 107.703799"></polygon>
                <polygon id="Path" fill="#1D4271" opacity="0.8" points="307.912617 117.454823 313.802907 114.051883 307.958397 110.679463 302.083367 114.082403"></polygon>
                <polygon id="Path" fill="#1D4271" opacity="0.5" points="296.879769 123.833427 302.754799 120.430488 296.910288 117.058068 291.035258 120.461007"></polygon>
                <polygon id="Path" fill="#1D4271" opacity="0.5" points="285.83166 130.212031 291.70669 126.809092 285.86218 123.436672 279.98715 126.824351"></polygon>
                <polygon id="Path" fill="#1D4271" opacity="0.5" points="274.783552 136.575375 280.658582 133.187696 274.814071 129.815276 268.939041 133.202956"></polygon>
                <polygon id="Path" fill="#1D4271" opacity="0.5" points="263.735443 142.95398 269.625733 139.5663 263.781222 136.19388 257.890932 139.58156"></polygon>
                <polygon id="Path" fill="#1D4271" points="351.494659 104.346639 357.369689 100.958959 351.540439 97.5712794 345.650149 100.974219"></polygon>
                <polygon id="Path" fill="#1D4271" points="340.44655 110.725243 346.33684 107.322303 340.49233 103.949884 334.60204 107.352823"></polygon>
                <polygon id="Path" fill="#1D4271" opacity="0.5" points="329.413702 117.103847 335.288732 113.700908 329.444221 110.328488 323.569191 113.731427"></polygon>
                <polygon id="Path" fill="#1D4271" points="318.365593 123.482451 324.240623 120.079512 318.396113 116.707092 312.521083 120.110031"></polygon>
                <polygon id="Path" fill="#1D4271" opacity="0.5" points="307.317485 129.861055 313.192515 126.458116 307.348004 123.085696 301.472974 126.488635"></polygon>
                <polygon id="Path" fill="#1D4271" opacity="0.5" points="296.269376 136.239659 302.144406 132.83672 296.299896 129.4643 290.424865 132.85198"></polygon>
                <polygon id="Path" fill="#1D4271" points="285.221267 142.603004 291.096297 139.215324 285.267047 135.842904 279.376757 139.230584"></polygon>
                <polygon id="Path" fill="#1D4271" opacity="0.2" points="274.173159 148.981608 280.063449 145.593928 274.218938 142.221508 268.328648 145.609188"></polygon>
                <polygon id="Path" fill="#5395F2" style="mix-blend-mode: multiply;" points="113.029476 65.2509839 269.259497 155.467031 270.083527 154.978717 113.853506 64.7779295"></polygon>
                <polygon id="Path" fill="#1270ED" points="191.449683 140.832865 211.531604 128.62501 205.687093 125.25259 185.605172 137.460445"></polygon>
                <polygon id="Path" fill="#1270ED" opacity="0.85" points="201.612722 146.936792 217.894948 136.956871 212.050438 133.584451 195.768211 143.564372"></polygon>
                <polygon id="Path" fill="#1270ED" opacity="0.75" points="212.294595 153.04072 224.517709 145.609188 218.673199 142.236768 206.450084 149.6683"></polygon>
                <polygon id="Path" fill="#1270ED" opacity="0.6" points="222.732311 158.90049 231.628785 152.97968 225.784274 149.60726 216.8878 155.52807"></polygon>
                <polygon id="Path" fill="#1270ED" opacity="0.4" points="232.89535 165.507991 238.75512 161.876155 232.91061 158.503735 227.050839 162.135571"></polygon>
                <polygon id="Path" fill="#1270ED" opacity="0.3" points="243.073649 171.352502 246.385029 169.261907 240.540519 165.889487 237.229138 167.980082"></polygon>
                <path d="M209.715685,67.2957995 C210.081921,67.0669023 210.448157,66.838005 210.814392,66.5633282 L215.499157,67.2195004 L215.758574,66.9600835 C216.550762,66.2019579 217.192738,65.3011203 217.650791,64.3048751 L217.788129,64.0149386 L213.637459,62.5652558 C213.767351,61.9257862 213.767351,61.2667284 213.637459,60.6272589 L217.72709,59.1775761 L217.589752,58.8876395 C217.120704,57.8939257 216.474295,56.9941241 215.682275,56.2324311 L215.407598,55.9730142 L210.722834,56.6139266 C209.987287,56.0622977 209.188031,55.6011883 208.342302,55.2405429 L209.456269,52.5395551 L209.013734,52.3869569 C207.5232,51.8826954 205.991366,51.509949 204.435788,51.2729901 L203.932214,51.196691 L201.429604,53.5467031 C200.311852,53.4703941 199.190196,53.4703941 198.072444,53.5467031 L195.554574,51.1661714 L195.051,51.1661714 C193.497233,51.3977703 191.965806,51.7602079 190.473054,52.2496185 L190.03052,52.4022167 L191.159746,55.1184644 C190.732207,55.3054529 190.314555,55.5142789 189.908441,55.7441169 C189.523416,55.9667686 189.151483,56.2113276 188.794474,56.4765882 L184.10971,55.820416 L183.850293,56.0798329 C183.062692,56.8419169 182.421367,57.7418406 181.958076,58.7350414 L181.835997,59.0249779 L185.940888,60.5509598 C185.81141,61.1904709 185.81141,61.8494456 185.940888,62.4889567 L181.835997,63.9386395 L181.973335,64.228576 C182.449289,65.2221117 183.100639,66.1215964 183.896073,66.8837844 L184.15549,67.1432013 L188.840254,66.502289 C189.574293,67.0561975 190.373837,67.517473 191.220785,67.8756726 L190.106819,70.5766605 L190.564613,70.7292587 C192.054389,71.2361258 193.586457,71.608929 195.142559,71.8432254 L195.646133,71.8432254 L198.148743,69.4779536 C199.266496,69.5542625 200.388151,69.5542625 201.505903,69.4779536 L204.039033,71.8584853 L204.542607,71.8584853 C206.09621,71.6260343 207.627566,71.2636135 209.120553,70.7750381 L209.578347,70.62244 L208.433861,67.9061923 C208.871157,67.7244768 209.298979,67.5207521 209.715685,67.2957995 L209.715685,67.2957995 Z M207.976066,70.195165 C206.897272,70.5364412 205.79586,70.8015959 204.679945,70.9886756 L202.207855,68.6691832 L201.75006,68.6691832 C200.465694,68.7836508 199.173692,68.7836508 197.889326,68.6691832 L197.431532,68.6691832 L194.989961,70.9734158 C193.869403,70.7845381 192.76304,70.5194188 191.67858,70.1799052 L192.762027,67.5552164 L192.380532,67.3873584 C191.400064,67.0155269 190.479691,66.5013517 189.649024,65.8613766 L189.374347,65.6172195 L184.796402,66.2276122 C184.247488,65.6626225 183.784733,65.0199074 183.423018,64.3201349 L187.421091,62.9162316 L187.421091,62.6415549 C187.222393,61.9173793 187.222393,61.1530568 187.421091,60.4288812 L187.421091,60.1542045 L183.407758,58.7350414 C183.764031,58.0357849 184.221682,57.393016 184.765882,56.8275641 L189.343828,57.4684764 L189.618505,57.254839 C190.016244,56.9426239 190.434265,56.6571467 190.86981,56.4002891 C191.360969,56.1256271 191.870896,55.8859615 192.395792,55.6830777 L192.777287,55.5304795 L191.66332,52.8905309 C192.747302,52.5492858 193.853785,52.2841376 194.974701,52.0970203 L197.431532,54.4165127 L197.889326,54.4165127 C199.173692,54.3020452 200.465694,54.3020452 201.75006,54.4165127 L202.207855,54.4165127 L204.649426,52.1122801 C205.770341,52.2993974 206.876825,52.5645456 207.960806,52.9057907 L206.877359,55.5304795 L207.258855,55.6983375 C208.239322,56.070169 209.159696,56.5843442 209.990362,57.2243193 L210.265039,57.4379568 L214.842984,56.8123042 C215.393645,57.3815226 215.856511,58.0295354 216.216368,58.7350414 L212.233556,60.1389447 L212.233556,60.3983616 C212.432049,61.1277427 212.432049,61.8969139 212.233556,62.6262951 L212.233556,62.9009718 L216.231628,64.3201349 C215.877261,65.0167461 215.425059,65.6590787 214.888764,66.2276122 L210.310818,65.5866999 L210.036142,65.8003373 C209.647319,66.1173543 209.234014,66.4030966 208.800096,66.6548872 C208.310099,66.9318049 207.800005,67.171549 207.274115,67.3720986 L206.892619,67.5246968 L207.976066,70.195165 Z M204.039033,59.0707574 C201.352207,57.7135134 198.18036,57.7135134 195.493535,59.0707574 C193.158782,60.4288812 193.158782,62.6415549 195.493535,63.9996787 C198.18036,65.3569227 201.352207,65.3569227 204.039033,63.9996787 C206.419565,62.6720745 206.404305,60.4594009 204.039033,59.101277 L204.039033,59.0707574 Z M196.515942,63.4198056 C195.694402,63.1508928 195.138779,62.3843901 195.138779,61.5199582 C195.138779,60.6555264 195.694402,59.8890237 196.515942,59.6201108 C198.580291,58.5832038 201.013316,58.5832038 203.077664,59.6201108 C203.887515,59.896043 204.431985,60.6567603 204.431985,61.5123283 C204.431985,62.3678964 203.887515,63.1286136 203.077664,63.4045458 C201.02235,64.4631934 198.585828,64.4801924 196.515942,63.4503253 L196.515942,63.4198056 Z" id="Shape" fill="#1270ED" opacity="0.8"></path>
            </g>
        </g>
    </g>
</svg>