<?xml version="1.0" encoding="UTF-8"?>
<svg width="271px" height="233px" viewBox="0 0 271 233" version="1.1" xmlns="http://www.w3.org/2000/svg" xmlns:xlink="http://www.w3.org/1999/xlink">
    <title>Asset 2</title>
    <defs>
        <linearGradient x1="-37.7451667%" y1="35.2267061%" x2="54.9663771%" y2="48.9084277%" id="linearGradient-1">
            <stop stop-color="#C0BFF6" offset="0%"></stop>
            <stop stop-color="#C5C4F7" offset="29%"></stop>
            <stop stop-color="#D3D2F9" offset="64%"></stop>
            <stop stop-color="#E9E9FD" offset="100%"></stop>
        </linearGradient>
        <linearGradient x1="89.638167%" y1="121.329135%" x2="49.0995733%" y2="37.8245709%" id="linearGradient-2">
            <stop stop-color="#C0BFF6" offset="0%"></stop>
            <stop stop-color="#C5C4F7" offset="29%"></stop>
            <stop stop-color="#D3D2F9" offset="64%"></stop>
            <stop stop-color="#E9E9FD" offset="100%"></stop>
        </linearGradient>
        <linearGradient x1="30.3229109%" y1="42.0271942%" x2="122.31528%" y2="72.98541%" id="linearGradient-3">
            <stop stop-color="#C0BFF6" offset="0%"></stop>
            <stop stop-color="#C5C4F7" offset="29%"></stop>
            <stop stop-color="#D3D2F9" offset="64%"></stop>
            <stop stop-color="#E9E9FD" offset="100%"></stop>
        </linearGradient>
    </defs>
    <g id="Design" stroke="none" stroke-width="1" fill="none" fill-rule="evenodd">
        <g id="001-Home" transform="translate(-880.000000, -4441.000000)" fill-rule="nonzero">
            <g id="Asset-2" transform="translate(880.000000, 4441.000000)">
                <ellipse id="Oval" fill="#0B0244" opacity="0.2" cx="140.043926" cy="138.41809" rx="19.5588404" ry="11.294336"></ellipse>
                <g id="Group" opacity="0.2" transform="translate(0.000000, 74.857334)" fill="#5761D7">
                    <polygon id="Path" points="66.2985554 45.0094256 62.4145303 42.7607795 66.2985554 40.5194342 70.1825804 42.7607795"></polygon>
                    <polygon id="Path" opacity="0.1" points="74.0666055 49.4921162 70.1825804 47.2507709 74.0666055 45.0094256 77.9579313 47.2507709"></polygon>
                    <polygon id="Path" opacity="0.4" points="81.8419564 53.9821075 77.9579313 51.7334615 81.8419564 49.4921162 85.7259814 51.7334615"></polygon>
                    <polygon id="Path" points="89.6100065 58.4647981 85.7259814 56.2234528 89.6100065 53.9821075 93.4940315 56.2234528"></polygon>
                    <polygon id="Path" opacity="0.4" points="97.3780566 62.9547895 93.4940315 60.7061434 97.3780566 58.4647981 101.262082 60.7061434"></polygon>
                    <polygon id="Path" points="105.153407 67.43748 101.262082 65.1961347 105.153407 62.9547895 109.037433 65.1961347"></polygon>
                    <polygon id="Path" points="112.921458 71.9274714 109.037433 69.6788253 112.921458 67.43748 116.805483 69.6788253"></polygon>
                    <polygon id="Path" points="120.689508 76.410162 116.805483 74.1688167 120.689508 71.9274714 124.573533 74.1688167"></polygon>
                    <polygon id="Path" opacity="0.1" points="128.464859 80.9001533 124.573533 78.6515072 128.464859 76.410162 132.348884 78.6515072"></polygon>
                    <polygon id="Path" points="58.4940013 49.5140186 54.6099762 47.2653725 58.4940013 45.0240272 62.3853271 47.2726733"></polygon>
                    <polygon id="Path" points="66.2693522 53.9967091 62.3853271 51.7553639 66.2693522 49.5140186 70.1533772 51.7553639"></polygon>
                    <polygon id="Path" points="74.0374023 58.4867005 70.1533772 56.2380544 74.0374023 53.9967091 77.9214273 56.2380544"></polygon>
                    <polygon id="Path" points="81.8054524 62.9693911 77.9214273 60.7280458 81.8054524 58.4867005 85.6967782 60.7280458"></polygon>
                    <polygon id="Path" points="89.5808033 67.4593824 85.6967782 65.2107363 89.5808033 62.9693911 93.4648283 65.2107363"></polygon>
                    <polygon id="Path" points="97.3488534 71.942073 93.4648283 69.7007277 97.3488534 67.4593824 101.232878 69.7007277"></polygon>
                    <polygon id="Path" points="105.116903 76.4320643 101.232878 74.1834183 105.116903 71.942073 109.000929 74.1834183"></polygon>
                    <polygon id="Path" points="112.892254 80.9147549 109.000929 78.6734096 112.892254 76.4320643 116.776279 78.6734096"></polygon>
                    <polygon id="Path" points="120.660304 85.3974455 116.776279 83.1561002 120.660304 80.9147549 124.54433 83.1561002"></polygon>
                    <polygon id="Path" points="50.696748 54.0186115 46.812723 51.7699655 50.696748 49.5286202 54.5807731 51.7699655"></polygon>
                    <polygon id="Path" points="58.4647981 58.5013021 54.5807731 56.2599568 58.4647981 54.0186115 62.3488231 56.2599568"></polygon>
                    <polygon id="Path" points="66.2328482 62.9912935 62.3488231 60.7426474 66.2328482 58.5013021 70.124174 60.7426474"></polygon>
                    <polygon id="Path" opacity="0.1" points="74.0081991 67.473984 70.124174 65.2326387 74.0081991 62.9912935 77.8922241 65.2326387"></polygon>
                    <polygon id="Path" opacity="0.4" points="81.7762492 71.9639754 77.8922241 69.7153293 81.7762492 67.473984 85.6602742 69.7153293"></polygon>
                    <polygon id="Path" opacity="0.4" points="89.5442993 76.4466659 85.6602742 74.2053207 89.5442993 71.9639754 93.4283243 74.2053207"></polygon>
                    <polygon id="Path" points="97.3196502 80.9293565 93.4283243 78.6880112 97.3196502 76.4466659 101.203675 78.6880112"></polygon>
                    <polygon id="Path" points="105.0877 85.4193479 101.203675 83.1780026 105.0877 80.9293565 108.971725 83.1780026"></polygon>
                    <polygon id="Path" points="112.85575 89.9093392 108.971725 87.6606932 112.85575 85.4193479 116.739775 87.6606932"></polygon>
                    <polygon id="Path" opacity="0.4" points="42.8921939 58.5232045 39.0081689 56.2745584 42.8921939 54.0332131 46.776219 56.2745584"></polygon>
                    <polygon id="Path" opacity="0.4" points="50.660244 63.0058951 46.776219 60.7645498 50.660244 58.5232045 54.5515699 60.7645498"></polygon>
                    <polygon id="Path" opacity="0.1" points="58.4355949 67.4958864 54.5515699 65.2472403 58.4355949 63.0058951 62.31962 65.2472403"></polygon>
                    <polygon id="Path" points="66.203645 71.978577 62.31962 69.7372317 66.203645 67.4958864 70.08767 69.7372317"></polygon>
                    <polygon id="Path" points="73.9716951 76.4612675 70.08767 74.2199223 73.9716951 71.978577 77.8630209 74.2199223"></polygon>
                    <polygon id="Path" points="81.747046 80.9512589 77.8630209 78.7099136 81.747046 76.4612675 85.631071 78.7099136"></polygon>
                    <polygon id="Path" opacity="0.4" points="89.5150961 85.4412503 85.631071 83.1926042 89.5150961 80.9512589 93.3991211 83.1926042"></polygon>
                    <polygon id="Path" points="97.2831462 89.9239408 93.3991211 87.6825956 97.2831462 85.4412503 101.167171 87.6825956"></polygon>
                    <polygon id="Path" points="105.058497 94.4066314 101.167171 92.1652861 105.058497 89.9239408 108.942522 92.1652861"></polygon>
                    <polygon id="Path" points="35.0949406 63.0277975 31.2036148 60.7791514 35.0949406 58.5378061 38.9789657 60.7791514"></polygon>
                    <polygon id="Path" points="42.8629907 67.510488 38.9789657 65.2691427 42.8629907 63.0277975 46.7470158 65.2691427"></polygon>
                    <polygon id="Path" points="50.6310408 72.0004794 46.7470158 69.7518333 50.6310408 67.510488 54.5150659 69.7518333"></polygon>
                    <polygon id="Path" points="58.4063917 76.4831699 54.5150659 74.2418247 58.4063917 72.0004794 62.2904168 74.2418247"></polygon>
                    <polygon id="Path" points="66.1744418 80.9731613 62.2904168 78.7245152 66.1744418 76.4831699 70.0584669 78.7245152"></polygon>
                    <polygon id="Path" points="73.9424919 85.4558519 70.0584669 83.2145066 73.9424919 80.9731613 77.826517 83.2145066"></polygon>
                    <polygon id="Path" points="81.710542 89.9385424 77.826517 87.6971971 81.710542 85.4558519 85.6018678 87.6971971"></polygon>
                    <polygon id="Path" points="89.4858929 94.4285338 85.6018678 92.1871885 89.4858929 89.9385424 93.3699179 92.1871885"></polygon>
                    <polygon id="Path" points="97.253943 98.9112244 93.3699179 96.6698791 97.253943 94.4285338 101.137968 96.6698791"></polygon>
                    <polygon id="Path" points="27.2903865 67.5323904 23.4063615 65.2837443 27.2903865 63.042399 31.1744116 65.2837443"></polygon>
                    <polygon id="Path" points="35.0584366 72.015081 31.1744116 69.7737357 35.0584366 67.5323904 38.9424617 69.7737357"></polygon>
                    <polygon id="Path" opacity="0.4" points="42.8337875 76.5050723 38.9424617 74.2564263 42.8337875 72.015081 46.7178126 74.2564263"></polygon>
                    <polygon id="Path" points="50.6018376 80.9877629 46.7178126 78.7464176 50.6018376 76.5050723 54.4858627 78.7464176"></polygon>
                    <polygon id="Path" opacity="0.1" points="58.3698877 85.4704535 54.4858627 83.2291082 58.3698877 80.9877629 62.2539128 83.2291082"></polygon>
                    <polygon id="Path" points="66.1379378 89.9604448 62.2539128 87.7190995 66.1379378 85.4704535 70.0292637 87.7190995"></polygon>
                    <polygon id="Path" points="73.9132887 94.4431354 70.0292637 92.2017901 73.9132887 89.9604448 77.7973138 92.2017901"></polygon>
                    <polygon id="Path" points="81.6813388 98.9331268 77.7973138 96.6917815 81.6813388 94.4431354 85.5653639 96.6917815"></polygon>
                    <polygon id="Path" points="89.4493889 103.415817 85.5653639 101.174472 89.4493889 98.9331268 93.3407147 101.174472"></polygon>
                    <polygon id="Path" points="19.4858324 72.0296826 15.6018074 69.7883373 19.4858324 67.546992 23.3771583 69.7883373"></polygon>
                    <polygon id="Path" points="27.2611833 76.5196739 23.3771583 74.2783287 27.2611833 72.0296826 31.1452084 74.2783287"></polygon>
                    <polygon id="Path" opacity="0.4" points="35.0292334 81.0023645 31.1452084 78.7610192 35.0292334 76.5196739 38.9132585 78.7610192"></polygon>
                    <polygon id="Path" points="42.7972835 85.4923559 38.9132585 83.2510106 42.7972835 81.0023645 46.6813086 83.2510106"></polygon>
                    <polygon id="Path" points="50.5726344 89.9750464 46.6813086 87.7337011 50.5726344 85.4923559 54.4566595 87.7337011"></polygon>
                    <polygon id="Path" opacity="0.1" points="58.3406845 94.4650378 54.4566595 92.2236925 58.3406845 89.9750464 62.2247096 92.2236925"></polygon>
                    <polygon id="Path" opacity="0.4" points="66.1087346 98.9477284 62.2247096 96.7063831 66.1087346 94.4650378 69.9927597 96.7063831"></polygon>
                    <polygon id="Path" points="73.8767847 103.43772 69.9927597 101.196374 73.8767847 98.9477284 77.7681106 101.196374"></polygon>
                    <polygon id="Path" opacity="0.1" points="81.6521356 107.92041 77.7681106 105.679065 81.6521356 103.43772 85.5361607 105.679065"></polygon>
                    <polygon id="Path" points="11.6885791 76.5415763 7.80455409 74.2929303 11.6885791 72.051585 15.5726042 74.2929303"></polygon>
                    <polygon id="Path" opacity="0.4" points="19.4566292 81.0242669 15.5726042 78.7829216 19.4566292 76.5415763 23.3406543 78.7829216"></polygon>
                    <polygon id="Path" points="27.2246793 85.5069575 23.3406543 83.2656122 27.2246793 81.0242669 31.1160052 83.2656122"></polygon>
                    <polygon id="Path" points="35.0000302 89.9969488 31.1160052 87.7556035 35.0000302 85.5069575 38.8840553 87.7556035"></polygon>
                    <polygon id="Path" points="42.7680803 94.4796394 38.8840553 92.2382941 42.7680803 89.9969488 46.6521054 92.2382941"></polygon>
                    <polygon id="Path" points="50.5361304 98.9696307 46.6521054 96.7282855 50.5361304 94.4796394 54.4201555 96.7282855"></polygon>
                    <polygon id="Path" points="58.3114813 103.452321 54.4201555 101.210976 58.3114813 98.9696307 62.1955064 101.210976"></polygon>
                    <polygon id="Path" opacity="0.4" points="66.0795314 107.942313 62.1955064 105.700967 66.0795314 103.452321 69.9635565 105.700967"></polygon>
                    <polygon id="Path" points="73.8475815 112.425003 69.9635565 110.183658 73.8475815 107.942313 77.7316066 110.183658"></polygon>
                    <polygon id="Path" points="3.88402505 81.0388685 0 78.7975232 3.88402505 76.5561779 7.7680501 78.7975232"></polygon>
                    <polygon id="Path" opacity="0.1" points="11.6520751 85.5288599 7.7680501 83.2875146 11.6520751 81.0388685 15.543401 83.2875146"></polygon>
                    <polygon id="Path" points="19.427426 90.0115504 15.543401 87.7702051 19.427426 85.5288599 23.3114511 87.7702051"></polygon>
                    <polygon id="Path" points="27.1954761 94.5015418 23.3114511 92.2601965 27.1954761 90.0115504 31.0795012 92.2601965"></polygon>
                    <polygon id="Path" points="34.9635262 98.9842323 31.0795012 96.7428871 34.9635262 94.5015418 38.8548521 96.7428871"></polygon>
                    <polygon id="Path" points="42.7388771 103.474224 38.8548521 101.232878 42.7388771 98.9842323 46.6229022 101.232878"></polygon>
                    <polygon id="Path" opacity="0.4" points="50.5069272 107.956914 46.6229022 105.715569 50.5069272 103.474224 54.3909523 105.715569"></polygon>
                    <polygon id="Path" points="58.2749773 112.446906 54.3909523 110.19826 58.2749773 107.956914 62.1590024 110.19826"></polygon>
                    <polygon id="Path" points="66.0503282 116.929596 62.1590024 114.688251 66.0503282 112.446906 69.9343533 114.688251"></polygon>
                    <polygon id="Path" points="204.429672 45.0094256 200.545647 42.7607795 204.429672 40.5194342 208.313697 42.7607795"></polygon>
                    <polygon id="Path" opacity="0.1" points="212.205023 49.4921162 208.313697 47.2507709 212.205023 45.0094256 216.089048 47.2507709"></polygon>
                    <polygon id="Path" opacity="0.4" points="219.973073 53.9821075 216.089048 51.7334615 219.973073 49.4921162 223.857098 51.7334615"></polygon>
                    <polygon id="Path" points="227.741123 58.4647981 223.857098 56.2234528 227.741123 53.9821075 231.625148 56.2234528"></polygon>
                    <polygon id="Path" opacity="0.4" points="235.516474 62.9547895 231.625148 60.7061434 235.509173 58.4647981 239.400499 60.7061434"></polygon>
                    <polygon id="Path" points="243.284524 67.43748 239.400499 65.1961347 243.284524 62.9547895 247.168549 65.1961347"></polygon>
                    <polygon id="Path" points="251.052574 71.9274714 247.168549 69.6788253 251.052574 67.43748 254.936599 69.6788253"></polygon>
                    <polygon id="Path" points="258.820624 76.410162 254.936599 74.1688167 258.820624 71.9274714 262.71195 74.1688167"></polygon>
                    <polygon id="Path" opacity="0.1" points="266.595975 80.9001533 262.71195 78.6515072 266.595975 76.410162 270.48 78.6515072"></polygon>
                    <polygon id="Path" points="196.632418 49.5140186 192.748393 47.2653725 196.632418 45.0240272 200.516444 47.2726733"></polygon>
                    <polygon id="Path" points="204.400469 53.9967091 200.516444 51.7553639 204.400469 49.5140186 208.284494 51.7553639"></polygon>
                    <polygon id="Path" points="212.168519 58.4867005 208.284494 56.2380544 212.168519 53.9967091 216.059845 56.2380544"></polygon>
                    <polygon id="Path" points="219.94387 62.9693911 216.059845 60.7280458 219.94387 58.4867005 223.827895 60.7280458"></polygon>
                    <polygon id="Path" points="227.71192 67.4593824 223.827895 65.2107363 227.71192 62.9693911 231.595945 65.2107363"></polygon>
                    <polygon id="Path" points="235.47997 71.942073 231.595945 69.7007277 235.47997 67.4593824 239.363995 69.7007277"></polygon>
                    <polygon id="Path" points="243.255321 76.4320643 239.363995 74.1834183 243.255321 71.942073 247.139346 74.1834183"></polygon>
                    <polygon id="Path" points="251.023371 80.9147549 247.139346 78.6734096 251.023371 76.4320643 254.907396 78.6734096"></polygon>
                    <polygon id="Path" points="258.791421 85.3974455 254.907396 83.1561002 258.791421 80.9147549 262.675446 83.1561002"></polygon>
                    <polygon id="Path" points="188.827864 54.0186115 184.943839 51.7699655 188.827864 49.5286202 192.711889 51.7699655"></polygon>
                    <polygon id="Path" points="196.595914 58.5013021 192.711889 56.2599568 196.595914 54.0186115 200.48724 56.2599568"></polygon>
                    <polygon id="Path" points="204.371265 62.9912935 200.48724 60.7426474 204.371265 58.5013021 208.25529 60.7426474"></polygon>
                    <polygon id="Path" opacity="0.1" points="212.139315 67.473984 208.25529 65.2326387 212.139315 62.9912935 216.023341 65.2326387"></polygon>
                    <polygon id="Path" opacity="0.4" points="219.907366 71.9639754 216.023341 69.7153293 219.907366 67.473984 223.798691 69.7153293"></polygon>
                    <polygon id="Path" opacity="0.4" points="227.682716 76.4466659 223.798691 74.2053207 227.682716 71.9639754 231.566742 74.2053207"></polygon>
                    <polygon id="Path" points="235.450767 80.9293565 231.566742 78.6880112 235.450767 76.4466659 239.334792 78.6880112"></polygon>
                    <polygon id="Path" points="243.218817 85.4193479 239.334792 83.1780026 243.218817 80.9293565 247.102842 83.1780026"></polygon>
                    <polygon id="Path" points="250.994168 89.9093392 247.102842 87.6606932 250.994168 85.4193479 254.878193 87.6606932"></polygon>
                    <polygon id="Path" opacity="0.4" points="181.030611 58.5232045 177.139285 56.2745584 181.030611 54.0332131 184.914636 56.2745584"></polygon>
                    <polygon id="Path" opacity="0.4" points="188.798661 63.0058951 184.914636 60.7645498 188.798661 58.5232045 192.682686 60.7645498"></polygon>
                    <polygon id="Path" opacity="0.1" points="196.566711 67.4958864 192.682686 65.2472403 196.566711 63.0058951 200.450736 65.2472403"></polygon>
                    <polygon id="Path" points="204.334761 71.978577 200.450736 69.7372317 204.334761 67.4958864 208.226087 69.7372317"></polygon>
                    <polygon id="Path" points="212.110112 76.4612675 208.226087 74.2199223 212.110112 71.978577 215.994137 74.2199223"></polygon>
                    <polygon id="Path" points="219.878162 80.9512589 215.994137 78.7099136 219.878162 76.4612675 223.762187 78.7099136"></polygon>
                    <polygon id="Path" opacity="0.4" points="227.646212 85.4412503 223.762187 83.1926042 227.646212 80.9512589 231.530238 83.1926042"></polygon>
                    <polygon id="Path" points="235.421563 89.9239408 231.530238 87.6825956 235.421563 85.4412503 239.305588 87.6825956"></polygon>
                    <polygon id="Path" points="243.189613 94.4066314 239.305588 92.1652861 243.189613 89.9239408 247.073639 92.1652861"></polygon>
                    <polygon id="Path" points="173.226057 63.0277975 169.342032 60.7791514 173.226057 58.5378061 177.110082 60.7791514"></polygon>
                    <polygon id="Path" points="180.994107 67.510488 177.110082 65.2691427 180.994107 63.0277975 184.878132 65.2691427"></polygon>
                    <polygon id="Path" points="188.769458 72.0004794 184.878132 69.7518333 188.769458 67.510488 192.653483 69.7518333"></polygon>
                    <polygon id="Path" points="196.537508 76.4831699 192.653483 74.2418247 196.537508 72.0004794 200.421533 74.2418247"></polygon>
                    <polygon id="Path" points="204.305558 80.9731613 200.421533 78.7245152 204.305558 76.4831699 208.189583 78.7245152"></polygon>
                    <polygon id="Path" points="212.073608 85.4558519 208.189583 83.2145066 212.073608 80.9731613 215.964934 83.2145066"></polygon>
                    <polygon id="Path" points="219.848959 89.9385424 215.964934 87.6971971 219.848959 85.4558519 223.732984 87.6971971"></polygon>
                    <polygon id="Path" points="227.617009 94.4285338 223.732984 92.1871885 227.617009 89.9385424 231.501034 92.1871885"></polygon>
                    <polygon id="Path" points="235.385059 98.9112244 231.501034 96.6698791 235.385059 94.4285338 239.276385 96.6698791"></polygon>
                    <polygon id="Path" points="165.421503 67.5323904 161.537478 65.2837443 165.421503 63.042399 169.305528 65.2837443"></polygon>
                    <polygon id="Path" points="173.196854 72.015081 169.305528 69.7737357 173.196854 67.5323904 177.080879 69.7737357"></polygon>
                    <polygon id="Path" opacity="0.4" points="180.964904 76.5050723 177.080879 74.2564263 180.964904 72.015081 184.848929 74.2564263"></polygon>
                    <polygon id="Path" points="188.732954 80.9877629 184.848929 78.7464176 188.732954 76.5050723 192.616979 78.7464176"></polygon>
                    <polygon id="Path" opacity="0.1" points="196.501004 85.4704535 192.616979 83.2291082 196.501004 80.9877629 200.39233 83.2291082"></polygon>
                    <polygon id="Path" points="204.276355 89.9604448 200.39233 87.7190995 204.276355 85.4704535 208.16038 87.7190995"></polygon>
                    <polygon id="Path" points="212.044405 94.4431354 208.16038 92.2017901 212.044405 89.9604448 215.92843 92.2017901"></polygon>
                    <polygon id="Path" points="219.812455 98.9331268 215.92843 96.6917815 219.812455 94.4431354 223.703781 96.6917815"></polygon>
                    <polygon id="Path" points="227.587806 103.415817 223.703781 101.174472 227.587806 98.9331268 231.471831 101.174472"></polygon>
                    <polygon id="Path" points="157.62425 72.0296826 153.732924 69.7883373 157.62425 67.546992 161.508275 69.7883373"></polygon>
                    <polygon id="Path" points="165.3923 76.5196739 161.508275 74.2783287 165.3923 72.0296826 169.276325 74.2783287"></polygon>
                    <polygon id="Path" opacity="0.4" points="173.16035 81.0023645 169.276325 78.7610192 173.16035 76.5196739 177.044375 78.7610192"></polygon>
                    <polygon id="Path" points="180.935701 85.4923559 177.044375 83.2510106 180.935701 81.0023645 184.819726 83.2510106"></polygon>
                    <polygon id="Path" points="188.703751 89.9750464 184.819726 87.7337011 188.703751 85.4923559 192.587776 87.7337011"></polygon>
                    <polygon id="Path" opacity="0.1" points="196.471801 94.4650378 192.587776 92.2236925 196.471801 89.9750464 200.355826 92.2236925"></polygon>
                    <polygon id="Path" opacity="0.4" points="204.239851 98.9477284 200.355826 96.7063831 204.239851 94.4650378 208.131177 96.7063831"></polygon>
                    <polygon id="Path" points="212.015202 103.43772 208.131177 101.196374 212.015202 98.9477284 215.899227 101.196374"></polygon>
                    <polygon id="Path" opacity="0.1" points="219.783252 107.92041 215.899227 105.679065 219.783252 103.43772 223.667277 105.679065"></polygon>
                    <polygon id="Path" points="149.819696 76.5415763 145.93567 74.2929303 149.819696 72.051585 153.703721 74.2929303"></polygon>
                    <polygon id="Path" opacity="0.4" points="157.587746 81.0242669 153.703721 78.7829216 157.587746 76.5415763 161.479071 78.7829216"></polygon>
                    <polygon id="Path" points="165.363097 85.5069575 161.479071 83.2656122 165.363097 81.0242669 169.247122 83.2656122"></polygon>
                    <polygon id="Path" points="173.131147 89.9969488 169.247122 87.7556035 173.131147 85.5069575 177.015172 87.7556035"></polygon>
                    <polygon id="Path" points="180.899197 94.4796394 177.015172 92.2382941 180.899197 89.9969488 184.783222 92.2382941"></polygon>
                    <polygon id="Path" points="188.674548 98.9696307 184.783222 96.7282855 188.674548 94.4796394 192.558573 96.7282855"></polygon>
                    <polygon id="Path" points="196.442598 103.452321 192.558573 101.210976 196.442598 98.9696307 200.326623 101.210976"></polygon>
                    <polygon id="Path" opacity="0.4" points="204.210648 107.942313 200.326623 105.700967 204.210648 103.452321 208.094673 105.700967"></polygon>
                    <polygon id="Path" points="211.985999 112.425003 208.094673 110.183658 211.985999 107.942313 215.870024 110.183658"></polygon>
                    <polygon id="Path" points="142.015141 81.0388685 138.131116 78.7975232 142.015141 76.5561779 145.906467 78.7975232"></polygon>
                    <polygon id="Path" opacity="0.1" points="149.790492 85.5288599 145.906467 83.2875146 149.790492 81.0388685 153.674517 83.2875146"></polygon>
                    <polygon id="Path" points="157.558542 90.0115504 153.674517 87.7702051 157.558542 85.5288599 161.442567 87.7702051"></polygon>
                    <polygon id="Path" points="165.326593 94.5015418 161.442567 92.2601965 165.326593 90.0115504 169.217918 92.2601965"></polygon>
                    <polygon id="Path" points="173.101943 98.9842323 169.217918 96.7428871 173.101943 94.5015418 176.985968 96.7428871"></polygon>
                    <polygon id="Path" points="180.869994 103.474224 176.985968 101.232878 180.869994 98.9842323 184.754019 101.232878"></polygon>
                    <polygon id="Path" opacity="0.4" points="188.638044 107.956914 184.754019 105.715569 188.638044 103.474224 192.522069 105.715569"></polygon>
                    <polygon id="Path" points="196.413395 112.446906 192.522069 110.19826 196.413395 107.956914 200.29742 110.19826"></polygon>
                    <polygon id="Path" points="204.181445 116.929596 200.29742 114.688251 204.181445 112.446906 208.06547 114.688251"></polygon>
                    <polygon id="Path" points="135.532032 4.48269056 131.648007 2.24134528 135.532032 1.03750593e-14 139.423358 2.24134528"></polygon>
                    <polygon id="Path" opacity="0.1" points="143.307383 8.97268193 139.423358 6.73133664 143.307383 4.48269056 147.191408 6.73133664"></polygon>
                    <polygon id="Path" opacity="0.4" points="151.075433 13.4626733 147.191408 11.2140272 151.075433 8.97268193 154.959458 11.2140272"></polygon>
                    <polygon id="Path" points="158.843483 17.9453639 154.959458 15.7040186 158.843483 13.4626733 162.734809 15.7040186"></polygon>
                    <polygon id="Path" opacity="0.4" points="166.618834 22.4280544 162.734809 20.1867091 166.618834 17.9453639 170.502859 20.1867091"></polygon>
                    <polygon id="Path" points="174.386884 26.9180458 170.502859 24.6767005 174.386884 22.4280544 178.270909 24.6767005"></polygon>
                    <polygon id="Path" points="182.154934 31.4007363 178.270909 29.1593911 182.154934 26.9180458 186.038959 29.1593911"></polygon>
                    <polygon id="Path" points="189.930285 35.8907277 186.038959 33.6493824 189.922984 31.4007363 193.81431 33.6493824"></polygon>
                    <polygon id="Path" opacity="0.1" points="197.698335 40.3734183 193.81431 38.132073 197.698335 35.8907277 201.58236 38.132073"></polygon>
                    <polygon id="Path" points="127.734779 8.99458432 123.850754 6.74593824 127.734779 4.50459296 131.618804 6.74593824"></polygon>
                    <polygon id="Path" points="135.502829 13.4772749 131.618804 11.2359296 135.502829 8.99458432 139.386854 11.2359296"></polygon>
                    <polygon id="Path" points="143.270879 17.9599655 139.386854 15.7186202 143.270879 13.4772749 147.162205 15.7186202"></polygon>
                    <polygon id="Path" points="151.04623 22.4499568 147.162205 20.2086115 151.04623 17.9599655 154.930255 20.2086115"></polygon>
                    <polygon id="Path" points="158.81428 26.9326474 154.930255 24.6913021 158.81428 22.4499568 162.698305 24.6913021"></polygon>
                    <polygon id="Path" points="166.58233 31.4226387 162.698305 29.1812935 166.58233 26.9326474 170.473656 29.1812935"></polygon>
                    <polygon id="Path" points="174.357681 35.9053293 170.473656 33.663984 174.357681 31.4226387 178.241706 33.663984"></polygon>
                    <polygon id="Path" points="182.125731 40.3953207 178.241706 38.1539754 182.125731 35.9053293 186.009756 38.1539754"></polygon>
                    <polygon id="Path" points="189.893781 44.8780112 186.009756 42.6366659 189.893781 40.3953207 193.777806 42.6366659"></polygon>
                    <polygon id="Path" points="119.930225 13.4991773 116.0462 11.2505312 119.930225 9.00918592 123.81425 11.2505312"></polygon>
                    <polygon id="Path" points="127.698275 17.9818678 123.81425 15.7405226 127.698275 13.4991773 131.589601 15.7405226"></polygon>
                    <polygon id="Path" points="135.473626 22.4645584 131.589601 20.2232131 135.473626 17.9818678 139.357651 20.2232131"></polygon>
                    <polygon id="Path" opacity="0.1" points="143.241676 26.9545498 139.357651 24.7132045 143.241676 22.4645584 147.125701 24.7132045"></polygon>
                    <polygon id="Path" opacity="0.4" points="151.009726 31.4372403 147.125701 29.1958951 151.009726 26.9545498 154.901052 29.1958951"></polygon>
                    <polygon id="Path" opacity="0.4" points="158.785077 35.9272317 154.901052 33.6858864 158.785077 31.4372403 162.669102 33.6858864"></polygon>
                    <polygon id="Path" points="166.553127 40.4099223 162.669102 38.168577 166.553127 35.9272317 170.437152 38.168577"></polygon>
                    <polygon id="Path" points="174.321177 44.8999136 170.437152 42.6585683 174.321177 40.4099223 178.205202 42.6585683"></polygon>
                    <polygon id="Path" points="182.096528 49.3826042 178.205202 47.1412589 182.096528 44.8999136 185.980553 47.1412589"></polygon>
                    <polygon id="Path" opacity="0.4" points="112.132971 17.9964694 108.241645 15.7551242 112.132971 13.5137789 116.016996 15.7551242"></polygon>
                    <polygon id="Path" opacity="0.4" points="119.901021 22.4864608 116.016996 20.2451155 119.901021 17.9964694 123.785046 20.2451155"></polygon>
                    <polygon id="Path" opacity="0.1" points="127.669071 26.9691514 123.785046 24.7278061 127.669071 22.4864608 131.553097 24.7278061"></polygon>
                    <polygon id="Path" points="135.437122 31.4591427 131.553097 29.2177975 135.437122 26.9691514 139.328447 29.2177975"></polygon>
                    <polygon id="Path" points="143.212472 35.9418333 139.328447 33.700488 143.212472 31.4591427 147.096498 33.700488"></polygon>
                    <polygon id="Path" points="150.980523 40.4318247 147.096498 38.1904794 150.980523 35.9418333 154.864548 38.1904794"></polygon>
                    <polygon id="Path" opacity="0.4" points="158.748573 44.9145152 154.864548 42.6731699 158.748573 40.4318247 162.639899 42.6731699"></polygon>
                    <polygon id="Path" points="166.523924 49.4045066 162.639899 47.1631613 166.523924 44.9145152 170.407949 47.1631613"></polygon>
                    <polygon id="Path" points="174.291974 53.8871971 170.407949 51.6458519 174.291974 49.4045066 178.175999 51.6458519"></polygon>
                    <polygon id="Path" points="104.328417 22.5010624 100.444392 20.2597171 104.328417 18.0183718 108.212442 20.2597171"></polygon>
                    <polygon id="Path" points="112.096467 26.9910538 108.212442 24.7497085 112.096467 22.5010624 115.980492 24.7497085"></polygon>
                    <polygon id="Path" points="119.871818 31.4737443 115.980492 29.232399 119.871818 26.9910538 123.755843 29.232399"></polygon>
                    <polygon id="Path" points="127.639868 35.9637357 123.755843 33.7223904 127.639868 31.4737443 131.523893 33.7223904"></polygon>
                    <polygon id="Path" points="135.407918 40.4464263 131.523893 38.205081 135.407918 35.9637357 139.291943 38.205081"></polygon>
                    <polygon id="Path" points="143.183269 44.9364176 139.291943 42.6877715 143.183269 40.4464263 147.067294 42.6877715"></polygon>
                    <polygon id="Path" points="150.951319 49.4191082 147.067294 47.1777629 150.951319 44.9364176 154.835344 47.1777629"></polygon>
                    <polygon id="Path" points="158.719369 53.9090995 154.835344 51.6604535 158.719369 49.4191082 162.603395 51.6604535"></polygon>
                    <polygon id="Path" points="166.48742 58.3917901 162.603395 56.1504448 166.48742 53.9090995 170.378745 56.1504448"></polygon>
                    <polygon id="Path" points="96.5238631 27.0056554 92.639838 24.7643101 96.5238631 22.5229648 100.407888 24.7643101"></polygon>
                    <polygon id="Path" points="104.299214 31.4956467 100.407888 29.2543014 104.299214 27.0056554 108.183239 29.2543014"></polygon>
                    <polygon id="Path" opacity="0.4" points="112.067264 35.9783373 108.183239 33.736992 112.067264 31.4956467 115.951289 33.736992"></polygon>
                    <polygon id="Path" points="119.835314 40.4683287 115.951289 38.2196826 119.835314 35.9783373 123.719339 38.2269834"></polygon>
                    <polygon id="Path" opacity="0.1" points="127.610665 44.9510192 123.719339 42.7096739 127.610665 40.4683287 131.49469 42.7096739"></polygon>
                    <polygon id="Path" points="135.378715 49.4410106 131.49469 47.1996653 135.378715 44.9510192 139.26274 47.1996653"></polygon>
                    <polygon id="Path" points="143.146765 53.9237011 139.26274 51.6823559 143.146765 49.4410106 147.03079 51.6823559"></polygon>
                    <polygon id="Path" points="150.922116 58.4136925 147.03079 56.1723472 150.922116 53.9237011 154.806141 56.1723472"></polygon>
                    <polygon id="Path" points="158.690166 62.8963831 154.806141 60.6550378 158.690166 58.4136925 162.574191 60.6550378"></polygon>
                    <polygon id="Path" points="88.7266098 31.5102483 84.8425848 29.268903 88.7266098 27.0275578 92.6106349 29.268903"></polygon>
                    <polygon id="Path" points="96.4946599 36.0002397 92.6106349 33.7588944 96.4946599 31.5102483 100.378685 33.7588944"></polygon>
                    <polygon id="Path" opacity="0.4" points="104.26271 40.4829303 100.378685 38.241585 104.26271 36.0002397 108.146735 38.241585"></polygon>
                    <polygon id="Path" points="112.038061 44.9729216 108.146735 42.7315763 112.038061 40.4829303 115.922086 42.7315763"></polygon>
                    <polygon id="Path" points="119.806111 49.4556122 115.922086 47.2142669 119.806111 44.9729216 123.690136 47.2142669"></polygon>
                    <polygon id="Path" opacity="0.1" points="127.574161 53.9456035 123.690136 51.7042583 127.574161 49.4556122 131.458186 51.7042583"></polygon>
                    <polygon id="Path" opacity="0.4" points="135.349512 58.4282941 131.458186 56.1869488 135.349512 53.9456035 139.233537 56.1869488"></polygon>
                    <polygon id="Path" points="143.117562 62.9182855 139.233537 60.6696394 143.117562 58.4282941 147.001587 60.6696394"></polygon>
                    <polygon id="Path" opacity="0.1" points="150.885612 67.400976 147.001587 65.1596307 150.885612 62.9182855 154.769637 65.1596307"></polygon>
                    <polygon id="Path" points="80.9220557 36.0148413 77.0380307 33.773496 80.9220557 31.5321507 84.8060808 33.773496"></polygon>
                    <polygon id="Path" opacity="0.4" points="88.6901058 40.5048326 84.8060808 38.2634874 88.6901058 36.0148413 92.5814317 38.2634874"></polygon>
                    <polygon id="Path" points="96.4654567 44.9875232 92.5814317 42.7461779 96.4654567 40.5048326 100.349482 42.7461779"></polygon>
                    <polygon id="Path" points="104.233507 49.4775146 100.349482 47.2288685 104.233507 44.9875232 108.117532 47.2288685"></polygon>
                    <polygon id="Path" points="112.001557 53.9602051 108.117532 51.7188599 112.001557 49.4775146 115.892883 51.7188599"></polygon>
                    <polygon id="Path" points="119.776908 58.4501965 115.892883 56.2015504 119.776908 53.9602051 123.660933 56.2015504"></polygon>
                    <polygon id="Path" points="127.544958 62.9328871 123.660933 60.6915418 127.544958 58.4501965 131.428983 60.6915418"></polygon>
                    <polygon id="Path" opacity="0.4" points="135.313008 67.4228784 131.428983 65.1742323 135.313008 62.9328871 139.197033 65.1742323"></polygon>
                    <polygon id="Path" points="143.088359 71.905569 139.197033 69.6642237 143.088359 67.4228784 146.972384 69.6642237"></polygon>
                    <polygon id="Path" points="73.1248024 40.5194342 69.2334766 38.278089 73.1248024 36.0367437 77.0088275 38.278089"></polygon>
                    <polygon id="Path" opacity="0.1" points="80.8928525 45.0094256 77.0088275 42.7607795 80.8928525 40.5194342 84.7768776 42.7607795"></polygon>
                    <polygon id="Path" points="88.6609026 49.4921162 84.7768776 47.2507709 88.6609026 45.0094256 92.5449277 47.2507709"></polygon>
                    <polygon id="Path" points="96.4289527 53.9821075 92.5449277 51.7334615 96.4289527 49.4921162 100.320279 51.7334615"></polygon>
                    <polygon id="Path" points="104.204304 58.4647981 100.320279 56.2234528 104.204304 53.9821075 108.088329 56.2234528"></polygon>
                    <polygon id="Path" points="111.972354 62.9547895 108.088329 60.7061434 111.972354 58.4647981 115.856379 60.7061434"></polygon>
                    <polygon id="Path" opacity="0.4" points="119.740404 67.43748 115.856379 65.1961347 119.740404 62.9547895 123.63173 65.1961347"></polygon>
                    <polygon id="Path" points="127.515755 71.9274714 123.63173 69.6788253 127.515755 67.43748 131.39978 69.6788253"></polygon>
                    <polygon id="Path" points="135.283805 76.410162 131.39978 74.1688167 135.283805 71.9274714 139.16783 74.1688167"></polygon>
                    <polygon id="Path" points="135.532032 85.3828439 131.648007 83.1414986 135.532032 80.9001533 139.423358 83.1414986"></polygon>
                    <polygon id="Path" opacity="0.1" points="143.307383 89.8728352 139.423358 87.6241892 143.307383 85.3828439 147.191408 87.6241892"></polygon>
                    <polygon id="Path" opacity="0.4" points="151.075433 94.3555258 147.191408 92.1141805 151.075433 89.8728352 154.959458 92.1141805"></polygon>
                    <polygon id="Path" points="158.843483 98.8382164 154.959458 96.5968711 158.843483 94.3555258 162.734809 96.5968711"></polygon>
                    <polygon id="Path" opacity="0.4" points="166.618834 103.328208 162.734809 101.086862 166.618834 98.8382164 170.502859 101.086862"></polygon>
                    <polygon id="Path" points="174.386884 107.810898 170.502859 105.569553 174.386884 103.328208 178.270909 105.569553"></polygon>
                    <polygon id="Path" points="182.154934 112.30089 178.270909 110.059544 182.154934 107.810898 186.038959 110.059544"></polygon>
                    <polygon id="Path" points="189.930285 116.78358 186.038959 114.542235 189.922984 112.30089 193.81431 114.542235"></polygon>
                    <polygon id="Path" opacity="0.1" points="197.698335 121.273572 193.81431 119.032226 197.698335 116.78358 201.58236 119.032226"></polygon>
                    <polygon id="Path" points="127.734779 89.8874368 123.850754 87.6460916 127.734779 85.3974455 131.618804 87.6460916"></polygon>
                    <polygon id="Path" points="135.502829 94.3701274 131.618804 92.1287821 135.502829 89.8874368 139.386854 92.1287821"></polygon>
                    <polygon id="Path" points="143.270879 98.8601188 139.386854 96.6187735 143.270879 94.3701274 147.162205 96.6187735"></polygon>
                    <polygon id="Path" points="151.04623 103.342809 147.162205 101.101464 151.04623 98.8601188 154.930255 101.101464"></polygon>
                    <polygon id="Path" points="158.81428 107.832801 154.930255 105.591455 158.81428 103.342809 162.698305 105.591455"></polygon>
                    <polygon id="Path" points="166.58233 112.315491 162.698305 110.074146 166.58233 107.832801 170.473656 110.074146"></polygon>
                    <polygon id="Path" points="174.357681 116.805483 170.473656 114.564137 174.357681 112.315491 178.241706 114.564137"></polygon>
                    <polygon id="Path" points="182.125731 121.288173 178.241706 119.046828 182.125731 116.805483 186.009756 119.046828"></polygon>
                    <polygon id="Path" points="189.893781 125.778165 186.009756 123.536819 189.893781 121.288173 193.777806 123.536819"></polygon>
                    <polygon id="Path" points="119.930225 94.3920298 116.0462 92.1506845 119.930225 89.9093392 123.81425 92.1506845"></polygon>
                    <polygon id="Path" points="127.698275 98.8747204 123.81425 96.6333751 127.698275 94.3920298 131.589601 96.6333751"></polygon>
                    <polygon id="Path" points="135.473626 103.364712 131.589601 101.123366 135.473626 98.8747204 139.357651 101.123366"></polygon>
                    <polygon id="Path" opacity="0.1" points="143.241676 107.847402 139.357651 105.606057 143.241676 103.364712 147.125701 105.606057"></polygon>
                    <polygon id="Path" opacity="0.4" points="151.009726 112.337394 147.125701 110.096048 151.009726 107.847402 154.901052 110.096048"></polygon>
                    <polygon id="Path" opacity="0.4" points="158.785077 116.820084 154.901052 114.578739 158.785077 112.337394 162.669102 114.578739"></polygon>
                    <polygon id="Path" points="166.553127 121.310076 162.669102 119.06873 166.553127 116.820084 170.437152 119.06873"></polygon>
                    <polygon id="Path" points="174.321177 125.792766 170.437152 123.551421 174.321177 121.310076 178.205202 123.551421"></polygon>
                    <polygon id="Path" points="182.096528 130.282758 178.205202 128.034111 182.096528 125.792766 185.980553 128.034111"></polygon>
                    <polygon id="Path" opacity="0.4" points="112.132971 98.8966228 108.241645 96.6552775 112.132971 94.4066314 116.016996 96.6552775"></polygon>
                    <polygon id="Path" opacity="0.4" points="119.901021 103.379313 116.016996 101.137968 119.901021 98.8966228 123.785046 101.137968"></polygon>
                    <polygon id="Path" opacity="0.1" points="127.669071 107.869305 123.785046 105.627959 127.669071 103.379313 131.553097 105.627959"></polygon>
                    <polygon id="Path" points="135.437122 112.351995 131.553097 110.11065 135.437122 107.869305 139.328447 110.11065"></polygon>
                    <polygon id="Path" points="143.212472 116.841987 139.328447 114.600641 143.212472 112.351995 147.096498 114.600641"></polygon>
                    <polygon id="Path" points="150.980523 121.324677 147.096498 119.083332 150.980523 116.841987 154.864548 119.083332"></polygon>
                    <polygon id="Path" opacity="0.4" points="158.748573 125.814669 154.864548 123.573323 158.748573 121.324677 162.639899 123.573323"></polygon>
                    <polygon id="Path" points="166.523924 130.297359 162.639899 128.056014 166.523924 125.814669 170.407949 128.056014"></polygon>
                    <polygon id="Path" points="174.291974 134.78735 170.407949 132.538704 174.291974 130.297359 178.175999 132.538704"></polygon>
                    <polygon id="Path" points="104.328417 103.401216 100.444392 101.15987 104.328417 98.9112244 108.212442 101.15987"></polygon>
                    <polygon id="Path" points="112.096467 107.883906 108.212442 105.642561 112.096467 103.401216 115.980492 105.642561"></polygon>
                    <polygon id="Path" points="119.871818 112.373898 115.980492 110.132552 119.871818 107.883906 123.755843 110.132552"></polygon>
                    <polygon id="Path" points="127.639868 116.856588 123.755843 114.615243 127.639868 112.373898 131.523893 114.615243"></polygon>
                    <polygon id="Path" points="135.407918 121.34658 131.523893 119.105234 135.407918 116.856588 139.291943 119.105234"></polygon>
                    <polygon id="Path" points="143.183269 125.82927 139.291943 123.587925 143.183269 121.34658 147.067294 123.587925"></polygon>
                    <polygon id="Path" points="150.951319 130.319261 147.067294 128.070615 150.951319 125.82927 154.835344 128.070615"></polygon>
                    <polygon id="Path" points="158.719369 134.801952 154.835344 132.560607 158.719369 130.319261 162.603395 132.560607"></polygon>
                    <polygon id="Path" points="166.48742 139.291943 162.603395 137.043297 166.48742 134.801952 170.378745 137.043297"></polygon>
                    <polygon id="Path" points="96.5238631 107.905809 92.639838 105.664463 96.5238631 103.415817 100.407888 105.664463"></polygon>
                    <polygon id="Path" points="104.299214 112.388499 100.407888 110.147154 104.299214 107.905809 108.183239 110.147154"></polygon>
                    <polygon id="Path" opacity="0.4" points="112.067264 116.878491 108.183239 114.637145 112.067264 112.388499 115.951289 114.637145"></polygon>
                    <polygon id="Path" points="119.835314 121.361181 115.951289 119.119836 119.835314 116.878491 123.719339 119.119836"></polygon>
                    <polygon id="Path" opacity="0.1" points="127.610665 125.851173 123.719339 123.602526 127.610665 121.361181 131.49469 123.602526"></polygon>
                    <polygon id="Path" points="135.378715 130.333863 131.49469 128.092518 135.378715 125.851173 139.26274 128.092518"></polygon>
                    <polygon id="Path" points="143.146765 134.823854 139.26274 132.575208 143.146765 130.333863 147.03079 132.582509"></polygon>
                    <polygon id="Path" points="150.922116 139.306545 147.03079 137.0652 150.922116 134.823854 154.806141 137.0652"></polygon>
                    <polygon id="Path" points="158.690166 143.796536 154.806141 141.54789 158.690166 139.306545 162.574191 141.54789"></polygon>
                    <polygon id="Path" points="88.7266098 112.410402 84.8425848 110.169056 88.7266098 107.92041 92.6106349 110.169056"></polygon>
                    <polygon id="Path" points="96.4946599 116.893092 92.6106349 114.651747 96.4946599 112.410402 100.378685 114.651747"></polygon>
                    <polygon id="Path" opacity="0.4" points="104.26271 121.383084 100.378685 119.134437 104.26271 116.893092 108.146735 119.134437"></polygon>
                    <polygon id="Path" points="112.038061 125.865774 108.146735 123.624429 112.038061 121.383084 115.922086 123.624429"></polygon>
                    <polygon id="Path" points="119.806111 130.355765 115.922086 128.107119 119.806111 125.865774 123.690136 128.107119"></polygon>
                    <polygon id="Path" opacity="0.1" points="127.574161 134.838456 123.690136 132.597111 127.574161 130.355765 131.458186 132.597111"></polygon>
                    <polygon id="Path" opacity="0.4" points="135.349512 139.328447 131.458186 137.079801 135.349512 134.838456 139.233537 137.079801"></polygon>
                    <polygon id="Path" points="143.117562 143.811138 139.233537 141.569793 143.117562 139.328447 147.001587 141.569793"></polygon>
                    <polygon id="Path" opacity="0.1" points="150.885612 148.301129 147.001587 146.052483 150.885612 143.811138 154.769637 146.052483"></polygon>
                    <polygon id="Path" points="80.9220557 116.914995 77.0380307 114.666349 80.9220557 112.425003 84.8060808 114.666349"></polygon>
                    <polygon id="Path" opacity="0.4" points="88.6901058 121.397685 84.8060808 119.15634 88.6901058 116.914995 92.5814317 119.15634"></polygon>
                    <polygon id="Path" points="96.4654567 125.887677 92.5814317 123.63903 96.4654567 121.397685 100.349482 123.63903"></polygon>
                    <polygon id="Path" points="104.233507 130.370367 100.349482 128.129022 104.233507 125.887677 108.117532 128.129022"></polygon>
                    <polygon id="Path" points="112.001557 134.860358 108.117532 132.611712 112.001557 130.370367 115.892883 132.611712"></polygon>
                    <polygon id="Path" points="119.776908 139.343049 115.892883 137.101704 119.776908 134.860358 123.660933 137.101704"></polygon>
                    <polygon id="Path" points="127.544958 143.83304 123.660933 141.584394 127.544958 139.343049 131.428983 141.584394"></polygon>
                    <polygon id="Path" opacity="0.4" points="135.313008 148.315731 131.428983 146.074386 135.313008 143.83304 139.197033 146.074386"></polygon>
                    <polygon id="Path" points="143.088359 152.805722 139.197033 150.557076 143.088359 148.315731 146.972384 150.557076"></polygon>
                    <polygon id="Path" points="73.1248024 121.419588 69.2334766 119.170941 73.1248024 116.929596 77.0088275 119.170941"></polygon>
                    <polygon id="Path" opacity="0.1" points="80.8928525 125.902278 77.0088275 123.660933 80.8928525 121.419588 84.7768776 123.660933"></polygon>
                    <polygon id="Path" points="88.6609026 130.392269 84.7768776 128.143623 88.6609026 125.902278 92.5449277 128.143623"></polygon>
                    <polygon id="Path" points="96.4289527 134.87496 92.5449277 132.633615 96.4289527 130.392269 100.320279 132.633615"></polygon>
                    <polygon id="Path" points="104.204304 139.364951 100.320279 137.116305 104.204304 134.87496 108.088329 137.116305"></polygon>
                    <polygon id="Path" points="111.972354 143.847642 108.088329 141.606297 111.972354 139.364951 115.856379 141.606297"></polygon>
                    <polygon id="Path" opacity="0.4" points="119.740404 148.337633 115.856379 146.088987 119.740404 143.847642 123.63173 146.088987"></polygon>
                    <polygon id="Path" points="127.515755 152.820324 123.63173 150.578979 127.515755 148.337633 131.39978 150.578979"></polygon>
                    <polygon id="Path" points="135.283805 157.310315 131.39978 155.061669 135.283805 152.820324 139.16783 155.061669"></polygon>
                </g>
                <polygon id="Path" fill="#0B0244" opacity="0.4" points="194.595496 118.22408 46.2578622 151.179886 82.944377 172.359504 91.8878558 206.366626 111.979655 189.122139 137.517849 203.869753"></polygon>
                <polygon id="Path" fill="#24126A" points="88.7485122 175.601059 233.078007 51.728403 101.320488 142.324017"></polygon>
                <polygon id="Path" fill="url(#linearGradient-1)" points="233.078007 51.728403 76.1692356 127.802728 24.6255949 98.0373708"></polygon>
                <polygon id="Path" fill="url(#linearGradient-2)" points="233.078007 51.728403 101.320488 142.324017 152.871429 172.082074"></polygon>
                <polygon id="Path" fill="url(#linearGradient-3)" points="101.320488 142.324017 233.078007 51.728403 76.1692356 127.802728 88.7485122 175.601059"></polygon>
                <polygon id="Path" fill="#FFFFFF" points="73.8767847 126.473983 233.078007 51.728403 76.1692356 127.802728"></polygon>
                <polygon id="Path" fill="#FFFFFF" points="101.320488 142.324017 233.078007 51.728403 103.379313 143.514048"></polygon>
                <ellipse id="Oval" fill="#0B0244" opacity="0.2" cx="77.5417858" cy="100.629154" rx="19.5588404" ry="11.294336"></ellipse>
                <path d="M88.9967394,58.3648292 C89.6297854,58.4986093 90.2838034,58.4986093 90.9168495,58.3648292 C92.0343807,57.9857055 93.2518289,58.0272389 94.3409242,58.481642 C94.9841013,58.7896474 95.6806841,58.9706102 96.3924487,59.0146004 C97.0524031,59.0281956 97.706759,59.1388949 98.3344612,59.3431363 C98.6556964,59.5475587 99.2762643,59.9418018 98.6995012,60.7594913 C98.1227381,61.5771808 95.983604,60.8105969 95.6331656,60.7594913 C95.2827273,60.7083857 94.9030857,61.314352 95.0783049,61.8692127 C95.2535241,62.4240735 98.487778,65.964961 98.9915331,66.3153993 C99.4952883,66.6658377 101.685528,68.1259975 101.780438,68.7027606 C101.875349,69.2795237 101.780438,69.3671333 101.780438,69.3671333 C101.780438,69.3671333 102.415608,69.9438964 102.196584,70.4768547 C101.97756,71.0098131 100.97735,70.1921236 100.79483,70.3162371 C100.79483,70.3162371 100.955448,70.9076019 100.714522,71.046317 C100.064857,70.9845796 99.4379801,70.774788 98.8820212,70.4330499 C98.8820212,70.4330499 98.7141028,70.8930003 97.9037141,70.4330499 C97.0933254,69.9730996 93.9977867,68.1990054 93.6327467,67.8631687 C92.9734101,67.2344823 92.2760882,66.6468789 91.5447182,66.1036761 C90.9030295,65.5681373 90.3003981,64.9874641 89.7414209,64.366086 C88.7978725,63.6590252 87.7447486,63.1114994 86.6239797,62.7453086 C85.886599,62.6284958 88.9967394,58.3648292 88.9967394,58.3648292 Z" id="Path" fill="#FCD1C5"></path>
                <path d="M91.4644094,64.7530283 C90.7343295,63.4534861 88.3615699,62.4459759 88.3615699,62.4459759 C88.799836,61.0681527 89.3643942,59.7337423 90.0480544,58.4597396 L90.0480544,58.4597396 C89.6959138,58.4511931 89.344717,58.4194878 88.9967394,58.3648292 C88.9967394,58.3648292 85.886599,62.6284958 86.6239797,62.7453086 C87.7280486,63.0829095 88.7707368,63.5956262 89.7122177,64.2638748 C90.2711949,64.8852529 90.8738263,65.4659261 91.515515,66.001465 C92.246885,66.5446678 92.9442069,67.1322712 93.6035435,67.7609575 C93.9685835,68.0967943 97.071423,69.8562868 97.8745109,70.3308387 C98.6775988,70.8053907 98.852818,70.3308387 98.852818,70.3308387 C99.4087769,70.6725768 100.035654,70.8823684 100.685319,70.9441059 C100.926245,70.8345939 100.765627,70.214026 100.765627,70.214026 C100.116752,69.8526534 99.4405784,69.5426389 98.743306,69.2868245 C97.7138933,68.9874917 92.1798877,66.0598714 91.4644094,64.7530283 Z" id="Path" fill="#E2B1A6"></path>
                <path d="M86.6750853,53.6704155 C86.8498111,54.6333954 86.913501,55.6132394 86.8649061,56.5907351 C86.7553941,57.8902773 84.1563097,56.196492 84.25122,55.9701672 C84.3461304,55.7438424 85.4850551,53.7799275 85.4850551,53.7799275 L86.6750853,53.6704155 Z" id="Path" fill="#FCD1C5"></path>
                <path d="M75.3296437,14.5599107 C75.3296437,14.5599107 76.7898035,14.4943283 78.5273937,17.3781439 C80.2649838,20.2619595 83.1926042,30.0888349 84.7476744,33.8925511 C84.8852308,34.2316989 84.9879697,34.5839464 85.0543079,34.9438662 C85.5580631,37.9152913 87.9308227,51.9036222 88.0403347,53.5828059 C87.116077,54.2054388 86.1179334,54.7106417 85.0689095,55.0867705 L82.4990283,54.2398778 L79.9802526,28.8988046 L75.9283092,15.5091393 L75.3296437,14.5599107 Z" id="Path" fill="#24126A"></path>
                <path d="M67.1673505,97.9716636 C67.1673505,97.9716636 66.6781969,100.31522 66.9483265,100.76787 C67.2184561,101.220519 70.2628892,104.666496 70.598726,105.148349 C70.9345627,105.630202 72.4969337,108.433709 75.3807493,109.119984 C78.2645649,109.806259 80.2430814,109.63104 80.6373246,108.273091 C81.0315677,106.915142 79.3304815,104.666496 78.5419952,103.943717 C77.753509,103.220938 74.4608486,99.2858074 73.8548823,98.7163451 C73.4419315,98.3607477 72.9347358,98.1325096 72.3947225,98.0592732 L68.6275103,98.7163451 L67.1673505,97.9716636 Z" id="Path" fill="#160A5B"></path>
                <path d="M78.8486288,90.9555958 C78.8486288,90.9555958 81.7689484,92.0726181 83.2291082,92.4157556 C84.689268,92.7588932 88.3396675,95.4820912 88.2958627,96.796235 C88.2520579,98.1103788 86.4852645,99.0813851 84.689268,98.9864747 C83.1586427,98.7920211 81.6927548,98.2501171 80.403699,97.4022013 C79.4724061,96.7531443 78.4416887,96.2599781 77.351965,95.9420415 C75.8918052,95.4820912 73.5117448,95.2630672 73.1248024,94.4818817 C72.848177,93.710379 72.6977964,92.8993098 72.6794537,92.0799189 L78.8486288,90.9555958 Z" id="Path" fill="#160A5B"></path>
                <path d="M72.3290153,90.4883447 C72.3290153,90.3496295 72.4531289,90.1160039 72.4677305,90.0210936 C72.5355337,88.8052383 72.5355337,87.5865494 72.4677305,86.3706941 L71.832561,87.2394891 C71.832561,87.2394891 72.2779097,90.1598087 73.1467048,94.6790033 C73.3657288,95.8325295 73.9716951,97.0225598 74.0593047,97.6723309 C74.3221334,99.6143434 73.1686072,99.9939849 73.1686072,99.9939849 C71.7320107,101.245817 69.6087993,101.300966 68.1091535,100.125399 C67.3790736,99.5632378 67.1454481,98.6652395 66.1452386,95.37988 C65.1450292,92.0945205 64.2981365,85.2682734 64.5098596,83.6401953 C64.9005293,80.9134452 65.1296873,78.1659874 65.1961347,75.4121948 C65.1961347,72.6670944 63.0570006,63.8915341 63.0570006,63.8915341 L71.8179594,62.1977487 L77.7608098,59.0949091 L82.3092075,59.7811842 C82.3092075,59.7811842 82.8859706,57.8610741 83.4846361,63.8404285 C84.0833017,69.8197828 80.4183006,80.6322661 80.4183006,80.6322661 C79.4472943,85.9545485 79.1990672,92.0653173 78.6515072,92.8976083 C78.1039473,93.7298994 75.9210084,95.6792127 73.9132887,94.1606466 C73.5384617,93.9166983 73.1972772,93.624605 72.8984777,93.2918515 L72.3290153,90.4883447 Z" id="Path" fill="#24126A"></path>
                <path d="M71.8398618,87.2540907 C73.6370001,82.2355614 75.0525142,77.0884593 76.0743252,71.8567057 C77.4103714,64.4098908 79.7247247,63.3658765 80.6957309,62.0298303 C81.400385,62.3604406 82.133438,62.6267832 82.8859706,62.8256174 L83.1341978,62.8256174 C83.7766681,62.8256174 79.9218463,67.6003399 79.2282704,68.8268742 C78.5346945,70.0534084 74.555759,80.6176645 74.2783287,82.0705235 C74.0008983,83.5233825 73.7161671,93.707997 74.0374023,94.2920609 C74.3586374,94.8761249 72.9422824,93.854013 72.9422824,93.854013 C72.2619924,91.7178583 71.8907592,89.4953763 71.8398618,87.2540907 L71.8398618,87.2540907 Z" id="Path" fill="#160A5B"></path>
                <path d="M79.2939775,59.3577379 L77.7608098,59.1241123 L71.796057,62.2123503 L63.0350983,63.9061357 C63.0350983,63.9061357 65.1450292,72.6670944 65.1742323,75.4267964 C65.1077849,78.180589 64.8786269,80.9280468 64.4879572,83.6547969 C64.2762341,85.2682734 65.1377284,92.145626 66.1233362,95.3944816 C66.5540834,96.8108366 66.8534161,97.7891436 67.1016433,98.4827195 C67.228168,99.4858412 67.9264779,100.323813 68.890339,100.629154 C68.890339,100.629154 65.4662643,90.0210936 65.7655971,83.8373168 C66.0649298,77.6535401 66.9410257,72.6305904 66.7804081,71.4259586 C66.7804081,71.4259586 76.7240963,68.3669238 78.5931008,61.9349199 C78.9070352,60.9493121 79.13336,60.0878178 79.2939775,59.3577379 Z" id="Path" fill="#160A5B"></path>
                <path d="M62.0567912,15.9325857 C61.6719018,16.2514025 61.3752749,16.6636636 61.1952969,17.1299167 C61.0419801,17.7431838 60.1658843,19.8969195 60.1658843,19.8969195 C60.1658843,19.8969195 56.0117296,25.4163235 55.2597474,27.1028081 C54.8269742,28.0563062 54.4942258,29.0521049 54.2668387,30.0742333 L65.2910451,43.6318169 C65.2910451,43.6318169 61.4362233,56.9046695 62.5167415,61.7743024 C63.5972598,66.6439353 65.0209156,68.505639 66.7512049,69.0751013 C68.4814943,69.6445636 77.7462082,65.7897418 78.3886785,60.9347105 C79.0311488,56.0796792 78.76832,55.5248184 78.76832,55.5248184 C78.76832,55.5248184 83.090393,56.6783447 83.3605226,55.575924 C83.6306521,54.4735034 82.8129626,46.5521365 82.5939387,45.4205127 C82.3749147,44.2888888 81.7032412,31.789921 81.7032412,31.789921 C81.7032412,31.789921 79.0676528,20.2181547 78.9216368,19.6705947 C78.7756208,19.1230348 77.132941,14.7717586 75.0303109,14.5600355 C72.9276808,14.3483123 70.2993932,17.662875 70.2993932,17.662875 L62.0567912,15.9325857 Z" id="Path" fill="#453C9E"></path>
                <path d="M62.5605463,15.5164401 C62.3078395,15.7080614 62.1297273,15.981683 62.0567912,16.2903248 C61.748657,17.0993518 61.8723915,18.0094881 62.3853271,18.7068893 C63.151911,19.6705947 69.4963053,24.8760644 72.0588858,29.2273406 C74.6214662,33.5786168 77.8995249,38.5285585 78.1404513,39.5433695 C78.1404513,39.5433695 79.3085791,32.5857081 78.2499633,29.3806574 C77.1913474,26.1756066 73.8694839,19.7217003 73.139404,19.2398476 C72.4093241,18.7579949 68.0726495,18.3491501 68.0726495,18.3491501 L62.5605463,15.5164401 Z" id="Path" fill="#F0F6FF"></path>
                <path d="M69.1166638,22.5179063 C68.926203,22.8309718 68.7765406,23.1670988 68.6713151,23.5181158 C68.6713151,23.5181158 66.8242129,22.5909143 66.057629,22.2331752 L68.8830382,24.1970901 C68.9379273,23.7920706 69.0408636,23.3950307 69.1896718,23.0143607 C69.8840455,23.5151224 70.5056607,24.1097108 71.0367739,24.781154 C71.2630987,25.3287139 74.2418247,32.8120329 74.2418247,32.8120329 L75.8114964,35.3673125 L76.2130404,34.7467446 L73.6504599,27.7671808 C73.6504599,27.7671808 72.1903002,25.5769411 72.1903002,25.5185347 C72.1903002,25.4601283 71.1973915,23.1019703 71.1973915,23.1019703 L69.1166638,22.5179063 Z" id="Path" fill="#C4CCD6"></path>
                <path d="M69.1166638,22.5179063 C69.6724069,21.5095864 70.7183395,20.8687099 71.869065,20.8314218 C71.869065,20.8314218 72.3874217,23.0216615 72.5334377,23.8685541 C72.5334377,23.8685541 71.3653099,24.3723093 70.8907579,23.9634645 C70.416206,23.5546198 69.1166638,22.5179063 69.1166638,22.5179063 Z" id="Path" fill="#160A5B"></path>
                <path d="M72.2779097,23.401303 C72.2779097,23.401303 76.9431203,29.1616334 78.5711984,36.1046932 L78.2353617,39.6893855 L75.7749924,35.3089061 C75.7749924,35.3089061 71.7376506,25.2630067 70.8177499,23.4232054 C69.8978493,21.5834041 72.2779097,23.401303 72.2779097,23.401303 Z" id="Path" fill="#160A5B"></path>
                <path d="M64.5244612,46.4937301 C64.2105269,47.7202644 63.8454869,49.2461313 63.5023494,50.8742095 C63.5023494,50.8742095 70.4089052,59.897997 77.1548434,63.5702989 C77.7984664,62.8008595 78.2244777,61.8732137 78.3886785,60.8836049 C78.61896,59.352451 78.7627704,57.8095362 78.8194256,56.2621991 L70.9710667,50.3339504 L64.5244612,46.4937301 Z" id="Path" fill="#24126A"></path>
                <path d="M64.0572101,33.24278 C64.0572101,33.24278 66.057629,35.965978 66.5832865,36.2142052 C67.1089441,36.4624324 71.4383179,44.0333609 72.3144137,45.4643175 C73.2495234,46.7190836 74.3248371,47.8629822 75.5194645,48.8737906 L73.3292248,49.0855138 L64.7069812,37.5721538 L64.0572101,33.24278 Z" id="Path" fill="#24126A"></path>
                <path d="M65.2764435,35.6447429 C64.4455193,33.4914427 63.0874571,31.5811187 61.3267113,30.0888349 C59.340894,28.4242527 56.7345087,26.8034753 55.3546577,28.2636351 C52.9307925,30.8262156 53.9675059,35.6520437 57.3331743,40.1712382 C60.6988426,44.6904328 66.094133,51.2465503 67.3863744,52.3416701 C68.6786158,53.4367899 79.0165472,61.2267424 84.9886007,64.1616636 C85.4377173,64.3761383 85.9762275,64.2072564 86.2224358,63.7747213 C87.047426,62.4167727 88.7485122,59.5767619 89.3617793,58.408634 C89.4863463,58.1725061 89.4141311,57.8805054 89.1938609,57.7296597 C87.0036212,56.3279063 76.1035284,49.3191393 72.8765753,47.1435012 C72.3805526,46.8019336 71.9767452,46.3429476 71.7011466,45.807455 C70.7593436,43.9676537 68.3354783,39.4338575 66.1963442,37.1195043 C65.8123689,36.694216 65.5148084,36.1982818 65.3202483,35.6593445 L65.2764435,35.6447429 Z" id="Path" fill="#4846A5"></path>
                <path d="M73.2927208,16.9619983 L77.1110387,20.8168202 L76.1254308,21.1599577 L77.388469,21.8608344 C79.2789542,26.7525972 80.0932192,31.9942725 79.7758303,37.2290162 C79.7758303,37.2290162 81.2870957,30.811614 78.0090369,21.7148184 L76.9942259,21.1964617 L77.680501,20.9774378 L73.2927208,16.9619983 Z" id="Path" fill="#24126A"></path>
                <path d="M62.4802375,14.8593682 C62.5549568,15.0084168 62.5877627,15.1749702 62.5751479,15.341221 C62.5474738,15.7276685 62.5474738,16.1156005 62.5751479,16.502048 C64.01553,19.2019224 66.8159998,20.8990071 69.8759469,20.9263322 L70.6060268,19.8823179 C70.6060268,19.8823179 72.5845433,19.7947083 73.4095336,19.0719292 C74.2345239,18.3491501 73.7234679,17.0934127 73.7234679,17.0934127 L73.8475815,15.5821473 C73.8614715,15.4013457 73.9421489,15.2321834 74.0739063,15.1075954 C74.2659892,14.9474701 74.4184145,14.7450694 74.519255,14.5162307 C74.5254426,14.2626347 74.4676957,14.011561 74.3513366,13.7861508 C74.282932,13.6431518 74.257567,13.4833528 74.2783287,13.3262004 C74.3491289,12.5906536 74.2847967,11.8483599 74.0885079,11.1359608 C74.0117863,10.844018 74.0117863,10.537206 74.0885079,10.2452633 C74.219298,9.76453407 74.3240946,9.27710782 74.4024422,8.78510348 C74.4024422,8.39086034 73.7599719,7.32494369 73.7307687,6.92339975 C73.5796783,6.30163854 73.3769868,5.69356403 73.1248024,5.10550081 C73.1248024,5.10550081 69.4744029,-1.64043744 63.6337638,1.27988215 C57.7931246,4.20020174 60.7499482,10.5591976 61.4800281,12.3697958 C61.4800281,12.3697958 62.210108,13.8299556 62.3123192,14.1511907 C62.4145303,14.4724259 62.3342216,14.5600355 62.4802375,14.8593682 Z" id="Path" fill="#FCD1C5"></path>
                <path d="M73.5920536,5.8428815 C73.64594,6.31862866 73.4631662,6.79056695 73.1029,7.10591972 C71.9855482,8.11622784 70.5976267,8.77847194 69.109363,9.01142825 C67.7952192,9.18664743 67.0724401,9.25235462 66.6854977,9.27425701 C66.4189263,9.28907697 66.2072135,9.50394964 66.1963442,9.77071134 C66.1963442,10.2598649 66.1233362,11.0045464 66.0503282,11.5083015 C66.0210632,11.7082297 65.9620009,11.9026433 65.875109,12.0850646 L65.4589635,12.9684613 C65.3578537,13.184805 65.1352247,13.3178041 64.896802,13.304298 L64.7945908,13.304298 C64.5313385,13.279661 64.3196721,13.077066 64.2835349,12.8151445 L64.2835349,12.7713397 C64.207343,12.0851871 63.7899732,11.4838451 63.1738134,11.1724647 C62.8581893,11.0053804 62.4861216,10.9814617 62.1517016,11.1067576 C61.8806881,11.2035443 61.6625617,11.4093554 61.5502059,11.6742934 C61.43785,11.9392313 61.4415239,12.2391044 61.5603369,12.5012102 C60.7566272,11.4792397 60.1523224,10.31521 59.7789419,9.06983464 C59.2240812,7.11322052 59.3554956,3.58693462 61.9107752,1.76903568 C64.4660548,-0.0488632616 67.7514144,-0.815447153 70.598726,1.17767096 C72.2356871,2.21519335 73.3311183,3.92246303 73.5920536,5.8428815 L73.5920536,5.8428815 Z" id="Path" fill="#AA8383"></path>
                <path d="M63.9257957,14.1073859 C63.8016821,13.9540692 63.9257957,15.304717 62.5751479,15.341221 C62.5474738,15.7276685 62.5474738,16.1156005 62.5751479,16.502048 C64.01553,19.2019224 66.8159998,20.8990071 69.8759469,20.9263322 L70.6060268,19.8823179 C70.6060268,19.8823179 66.1233362,17.6920782 65.3275491,16.7137712 C64.7664911,15.8987898 64.2964342,15.0247778 63.9257957,14.1073859 L63.9257957,14.1073859 Z" id="Path" fill="#E2B1A6"></path>
                <path d="M71.869065,20.8314218 C72.5376416,20.9031203 73.1933961,21.0652169 73.8183783,21.3132745 C73.9202793,20.8204493 73.858766,20.3078389 73.6431591,19.8531147 C73.6431591,19.8531147 74.0374023,20.1670491 74.0374023,21.7586232 L71.9347722,21.1307545 L71.869065,20.8314218 Z" id="Path" fill="#C4CCD6"></path>
                <path d="M86.7261909,62.7015038 C86.7261909,62.7015038 75.4099525,56.1745896 71.5478298,53.6047083 C67.6857072,51.0348271 57.0484431,40.1128318 54.8582034,35.8856692 C55.4883972,37.4136403 56.312877,38.8540262 57.3112719,40.1712382 C60.720745,44.7415384 66.0722306,51.2465503 67.364472,52.3416701 C68.6567135,53.4367899 78.9946448,61.2267424 84.9739991,64.1616636 C85.4209784,64.3753736 85.9571077,64.2062376 86.2005334,63.7747213 L86.7626949,62.840219 L86.7261909,62.7015038 Z" id="Path" fill="#24126A"></path>
                <path d="M60.7061434,20.2400571 L65.875109,27.5846608 L67.2038545,27.1174097 L67.2768624,28.5191631 C67.2768624,28.5191631 73.4606392,33.1259672 78.0893457,42.6973147 C78.0893457,42.6973147 71.9639754,32.8412361 67.0943425,29.5558765 L66.6489937,28.1468223 L65.6122803,28.3877487 L60.7061434,20.2400571 Z" id="Path" fill="#24126A"></path>
                <path d="M60.246193,10.0116377 L60.0855755,9.96053212 C60.4495397,10.8700373 60.9411973,11.7230634 61.5457353,12.4939094 C61.4269223,12.2318036 61.4232484,11.9319305 61.5356043,11.6669926 C61.6479601,11.4020546 61.8660865,11.1962435 62.1371,11.0994568 C62.47152,10.9741609 62.8435877,10.9980796 63.1592118,11.1651639 C63.7669206,11.4820653 64.1753819,12.0824211 64.2470309,12.7640389 L64.2470309,12.8078437 C64.2831681,13.0697652 64.4948345,13.2723602 64.7580868,13.2969972 L64.860298,13.2969972 C65.0987207,13.3105033 65.3213497,13.1775042 65.4224595,12.9611605 L65.8386051,12.0777638 C65.9254969,11.8953425 65.9845592,11.7009289 66.0138242,11.5010007 C66.0868322,10.9972456 66.130637,10.2525641 66.1598402,9.76341055 C66.1963442,9.77071134 62.7868711,10.909636 60.246193,10.0116377 Z" id="Path" fill="#936D6D"></path>
                <path d="M128.041412,104.586187 C127.803101,105.253301 127.634288,105.943233 127.537657,106.645013 C127.867392,107.371388 128.294788,108.049326 128.807996,108.660033 C129.420484,109.388846 130.139138,110.02136 130.939829,110.536339 C131.400015,110.779985 131.826962,111.081793 132.210168,111.434337 C132.301522,111.427891 132.389606,111.397691 132.465696,111.346727 C132.558516,110.765186 132.447618,110.169433 132.151762,109.660243 C131.67721,109.105382 132.385388,108.294993 132.385388,108.294993 L131.158853,105.082642 L128.041412,104.586187 Z" id="Path" fill="#FCD1C5"></path>
                <path d="M139.832203,140.075371 C138.588621,140.354056 137.323335,140.525041 136.050389,140.586427 C134.188685,140.652134 129.12193,141.608539 129.216841,143.426438 C129.311751,145.244337 131.910836,147.872625 135.203496,148.266868 C138.496156,148.661111 142.752522,147.755812 144.898957,147.821519 C145.904145,147.860292 146.860398,147.386616 147.438649,146.563493 C148.016901,145.740369 148.138224,144.680149 147.76087,143.747673 C146.972384,141.725352 139.832203,140.075371 139.832203,140.075371 Z" id="Path" fill="#160A5B"></path>
                <path d="M151.053531,135.234942 C151.053531,135.234942 151.739806,136.337362 151.374766,137.009036 C151.009726,137.680709 150.053321,139.352592 147.074595,137.739116 C144.095869,136.125639 138.313636,133.76018 138.313636,133.76018 C138.313636,133.76018 135.006374,132.029891 135.218098,130.000269 C135.429821,127.970647 138.510758,128.299183 138.510758,128.299183 L151.053531,135.234942 Z" id="Path" fill="#160A5B"></path>
                <path d="M117.907903,62.3291631 C116.952822,62.3556602 115.999479,62.2324894 115.082494,61.9641231 C114.213699,61.56988 111.702224,60.7448897 111.541607,60.6645809 C110.788805,60.5681439 110.05223,60.3717239 109.351367,60.080517 C109.169699,60.1469092 109.038261,60.3065153 109.007939,60.4975435 C108.977617,60.6885717 109.053171,60.8810338 109.205351,61.0004177 C109.673707,61.3793184 110.232003,61.630803 110.826128,61.7304976 L111.819037,62.3072607 C111.819037,62.3072607 109.804016,63.3439741 109.628797,63.4242829 C109.453578,63.5045917 107.759793,64.7822315 107.584574,64.8844427 C107.409354,64.9866539 106.664673,65.5488154 106.956705,66.074473 C106.956705,66.074473 106.956705,66.1912857 107.358249,66.2715945 C107.358249,66.2715945 106.277731,66.7607481 106.54786,67.2937064 C106.81799,67.8266647 107.496964,67.5930391 107.496964,67.5930391 C107.496964,67.5930391 107.759793,68.5494438 109.059335,67.8047623 C109.059335,67.8047623 109.212652,68.9874917 112.103768,67.7536567 C112.764037,67.5823997 113.444003,67.4989382 114.126089,67.5054295 C115.698544,67.4116503 117.222302,66.9246502 118.557674,66.0890745 C119.806111,65.2275803 117.907903,62.3291631 117.907903,62.3291631 Z" id="Path" fill="#FCD1C5"></path>
                <path d="M114.13339,67.5200311 C115.705844,67.4262519 117.229603,66.9392518 118.564975,66.1036761 C119.404567,65.5123114 118.813202,64.0083468 118.33865,63.0884462 C117.754586,62.7964142 117.23623,62.5627886 117.23623,62.5627886 C117.23623,62.5627886 117.323839,65.4320026 117.23623,65.8627498 C117.14862,66.2934969 114.58604,66.8045528 112.921458,67.0454792 C111.625411,67.2656001 110.343193,67.560559 109.081237,67.9288759 C109.212652,68.1917047 109.767512,68.761167 112.089166,67.7682583 C112.756523,67.5950794 113.443981,67.5116024 114.13339,67.5200311 L114.13339,67.5200311 Z" id="Path" fill="#E2B1A6"></path>
                <path d="M140.664494,56.7659543 C140.664494,56.7659543 136.576046,57.4960342 135.181594,57.9267813 C133.787141,58.3575284 122.120464,60.6718817 117.827594,61.7231968 C117.551318,61.7882195 117.337766,62.0074671 117.280035,62.2853583 C117.223196,62.5253995 117.223196,62.775397 117.280035,63.0154382 C117.404148,63.5045917 117.812993,68.3523222 120.200354,67.5638359 C121.676516,67.1593166 123.17933,66.8592418 124.697646,66.6658377 C126.369529,66.4395129 133.531613,65.891953 133.531613,65.891953 L145.650939,58.956194 L140.664494,56.7659543 Z" id="Path" fill="#4846A5"></path>
                <path d="M131.888933,106.126656 C131.888933,106.126656 132.976752,119.50172 135.641544,124.546572 C138.306336,129.591424 138.926903,138.929146 139.474463,140.695939 C140.022023,142.462733 141.759613,145.018012 144.585023,145.565572 C147.410432,146.113132 147.899585,144.26603 147.782773,143.149008 C147.66596,142.031985 146.921278,140.228688 146.93588,139.038658 C146.988024,138.257337 147.112674,137.482554 147.308221,136.724305 C147.308221,136.724305 150.527873,137.658807 151.068132,135.264145 C150.947633,134.916729 150.854866,134.560307 150.790702,134.198228 C150.754198,133.833188 151.279855,125.021124 151.382067,123.97711 C151.34622,120.693866 150.944631,117.42484 150.184735,114.230543 C149.345144,111.375931 149.783192,105.294365 149.783192,105.294365 L140.481974,103.936416 L131.888933,106.126656 Z" id="Path" fill="#24126A"></path>
                <path d="M146.986986,106.185062 C146.906694,107.516561 146.56431,108.819106 145.979475,110.017982 C145.979475,110.017982 145.848061,117.099757 145.030371,120.669848 C145.030371,120.669848 146.074386,127.824631 146.782563,130.073277 C147.490741,132.321923 147.293619,136.724305 147.293619,136.724305 C147.584446,136.816589 147.886645,136.868184 148.191617,136.877621 C148.717275,136.877621 148.921697,128.196971 148.191617,126.656503 C147.461537,125.116034 146.943181,118.282486 147.293619,116.194458 C147.644057,114.106429 147.66596,108.163579 148.096707,107.090362 C148.35255,106.506511 148.152495,105.823246 147.622155,105.469584 L146.986986,106.185062 Z" id="Path" fill="#160A5B"></path>
                <path d="M140.043926,56.9046695 C138.354622,58.171455 137.350825,60.1520647 137.328029,62.2634559 L139.386854,61.8619119 C139.386854,61.8619119 138.846595,58.0362933 140.043926,56.9046695 Z" id="Path" fill="#160A5B"></path>
                <path d="M140.17534,109.039675 C146.344515,109.2733 149.732086,106.630411 149.732086,106.630411 C149.76859,105.790819 149.805094,105.235959 149.805094,105.235959 L140.503876,103.87801 L131.925437,106.126656 C131.925437,106.126656 132.144461,108.776846 132.619013,112.157116 C134.130279,112.332335 135.685349,108.711139 135.685349,108.711139 L139.919812,109.010472 C139.919812,109.010472 133.955059,108.806049 140.17534,109.039675 Z" id="Path" fill="#160A5B"></path>
                <path d="M133.086264,106.338379 C133.086264,106.338379 146.424824,111.806678 153.134258,101.702372 C153.330805,101.406659 153.430327,101.057054 153.418989,100.702162 L153.418989,98.322102 C153.418184,98.0233269 153.470085,97.7267516 153.572306,97.4460061 L153.572306,97.4460061 C153.796522,96.8372205 153.8594,96.1807765 153.754826,95.5404976 C153.309477,92.8684051 152.112146,85.574907 151.834716,83.5452849 C151.498879,81.0630132 153.06125,71.1339266 155.419408,66.8264552 C157.777566,62.5189839 152.250862,52.8089212 152.250862,52.8089212 C151.369278,51.4331421 149.689889,50.7981789 148.118609,51.2465503 C148.118609,51.2465503 150.710393,53.1228556 149.228331,55.0356649 C147.746269,56.9484742 143.387692,58.4378372 143.387692,58.4378372 C143.387692,58.4378372 135.356813,62.4313743 132.5022,67.3886168 C131.85146,69.2717925 131.47526,71.2388543 131.385178,73.2292559 C131.253764,76.5365179 131.49469,84.4359823 131.341373,85.5238014 C131.188057,86.6116204 130.647797,94.0876386 130.684301,94.4307761 C130.720805,94.7739137 133.086264,106.338379 133.086264,106.338379 Z" id="Path" fill="#453C9E"></path>
                <path d="M137.152809,107.470003 C137.152809,107.470003 145.497623,86.51671 145.285899,78.8070663 C145.066875,71.2434386 133.356394,93.8686146 133.356394,93.8686146 L133.093565,106.338379 C134.411916,106.830607 135.769945,107.209194 137.152809,107.470003 Z" id="Path" fill="#24126A"></path>
                <path d="M133.276085,82.523173 C133.593503,80.7971633 133.781415,79.0498346 133.838247,77.295801 C133.925856,74.2586686 134.87496,69.2138165 140.44547,70.177522 C148.286528,71.5281698 144.701835,82.3479538 143.803837,84.2242592 C142.905839,86.1005645 139.321147,94.6059953 139.131326,95.087848 C138.941505,95.5697008 133.370995,106.039046 131.39978,108.572424 C131.320561,108.689566 131.193883,108.765996 131.053317,108.781458 C130.91275,108.79692 130.772488,108.749854 130.6697,108.652733 C129.895815,107.995661 128.165526,106.462493 127.953803,105.454983 C127.676372,104.191944 128.866403,99.6143434 128.866403,99.6143434 C128.866403,99.6143434 132.100656,88.152089 132.363485,87.6118299 C132.597111,87.2248875 132.757728,85.3266798 133.276085,82.523173 Z" id="Path" fill="#4846A5"></path>
                <path d="M140.17534,57.1236934 C139.801275,56.2816888 139.031682,55.6818998 138.123816,55.5248184 C136.663656,55.3495993 135.853267,54.9334537 135.714552,54.3931946 C135.623823,53.7169306 135.464827,53.0515958 135.24,52.4073773 C134.949845,51.4895611 134.749352,50.5457773 134.641334,49.5892689 C134.641334,49.5381633 133.546215,49.1877249 133.50241,48.6985714 C133.458605,48.2094179 134.057271,46.5083317 133.991563,46.355015 C133.647257,45.7279444 133.461768,45.0260916 133.451304,44.3107912 C133.521329,43.2720643 133.750318,42.2502312 134.130279,41.2809597 C134.590229,40.2734494 137.780678,34.1407783 145.811557,37.4845442 C153.842436,40.8283101 147.549147,47.5450452 148.257325,51.9547278 C148.257325,51.9547278 148.987404,52.88923 147.607553,54.4369994 C146.227702,55.9847688 142.402084,56.2694999 140.17534,57.1236934 Z" id="Path" fill="#FCD1C5"></path>
                <path d="M147.600253,54.4369994 C148.9509,52.88923 148.250024,51.9547278 148.250024,51.9547278 C148.164607,51.3036026 148.184327,50.6429844 148.30843,49.9981136 L145.125282,50.5456736 C145.125282,50.5456736 140.511177,46.3039094 140.803209,48.5379538 C141.095241,50.7719983 139.956316,51.1589407 139.956316,51.1589407 L140.90542,52.3927757 C141.146346,52.7140108 140.99303,53.0790508 140.788607,53.4148875 C139.408756,55.6781352 136.174502,54.9407545 136.167201,54.9407545 C136.771887,55.2814477 137.445737,55.4811072 138.138417,55.5248184 C139.04081,55.6863743 139.804074,56.2854955 140.17534,57.1236934 C142.402084,56.2694999 146.242304,55.9920696 147.600253,54.4369994 Z" id="Path" fill="#E2B1A6"></path>
                <path d="M133.823645,38.9228016 C133.823645,38.9228016 133.23228,40.5654814 134.130279,41.2809597 C135.028277,41.996438 135.853267,42.6681115 135.853267,42.6681115 L135.794861,44.75614 C135.789956,45.05729 135.870998,45.3535985 136.028486,45.6103335 L137.167411,47.4136308 C137.380869,47.7629486 137.492156,48.1650984 137.488646,48.5744578 L137.488646,49.4213505 C137.478835,49.6693023 137.658937,49.8841608 137.904792,49.9178048 L138.204124,49.9178048 C138.332447,49.936374 138.46278,49.9016283 138.56483,49.8216437 C138.666879,49.741659 138.731757,49.6234018 138.744384,49.4943585 L138.8977,48.3116291 C138.8977,48.3116291 139.510967,47.369826 140.81051,48.5233522 L141.985938,49.0344082 C142.322196,49.162643 142.587783,49.4282301 142.716018,49.7644881 C143.029952,50.6770879 143.708927,52.4803853 144.227284,52.7870188 C144.957363,53.2031644 147.738968,51.8233134 148.12591,51.2027455 C148.512853,50.5821776 149.527664,46.3769173 150.155532,44.3691976 C150.783401,42.3614779 150.542475,37.4042354 144.577722,36.0097828 C138.612969,34.6153302 134.677838,37.1341059 133.823645,38.9228016 Z" id="Path" fill="#AA8383"></path>
                <path d="M148.089406,51.2465503 C148.469048,50.6186815 149.49116,46.4207221 150.119028,44.4130024 C148.473659,45.3891736 146.653207,46.0340204 144.760242,46.3112102 C141.745012,46.7200549 135.838666,43.2229722 135.838666,43.2229722 L135.838666,44.75614 C135.833761,45.05729 135.914803,45.3535985 136.072291,45.6103335 L137.167411,47.4136308 C137.380869,47.7629486 137.492156,48.1650984 137.488646,48.5744578 L137.488646,49.4213505 C137.478835,49.6693023 137.658937,49.8841608 137.904792,49.9178048 L138.204124,49.9178048 C138.332447,49.936374 138.46278,49.9016283 138.56483,49.8216437 C138.666879,49.741659 138.731757,49.6234018 138.744384,49.4943585 L138.8977,48.3116291 C138.8977,48.3116291 139.510967,47.369826 140.81051,48.5233522 L142.511596,49.2534321 C142.511596,49.2534321 143.497204,52.4000765 144.19808,52.8089212 C144.898957,53.217766 147.702464,51.8671182 148.089406,51.2465503 Z" id="Path" fill="#936D6D"></path>
                <path d="M148.206219,51.4436718 C148.206219,51.4436718 150.491369,52.9038316 149.294038,54.9042505 C148.096707,56.9046695 139.620479,60.372549 139.197033,60.8982065 C139.197033,60.8982065 138.919603,57.8756757 140.051227,56.8754663 C140.051227,56.8754663 146.512434,55.7365416 147.549147,54.1157642 C148.585861,52.4949869 148.206219,51.4436718 148.206219,51.4436718 Z" id="Path" fill="#F0F6FF"></path>
                <path d="M148.206219,51.4436718 C148.206219,51.4436718 148.571259,52.5022877 147.549147,54.1157642 C146.767962,55.3422985 142.876636,56.3060039 141.029534,56.6783447 L141.029534,56.6783447 C141.029534,56.6783447 141.708508,57.0798886 142.810929,59.029202 C145.424615,57.7442613 148.593161,56.1088824 149.294038,54.9042505 C150.484068,52.9111324 148.206219,51.4436718 148.206219,51.4436718 Z" id="Path" fill="#C4CCD6"></path>
                <path d="M143.862244,71.9370145 C145.906467,78.5077336 140.26295,88.6047386 139.423358,91.5469605 C138.583766,94.4891825 130.100238,108.119774 130.100238,108.119774 C130.326562,108.331497 130.538285,108.514017 130.698903,108.652733 C130.801691,108.749854 130.941954,108.79692 131.08252,108.781458 C131.223086,108.765996 131.349764,108.689566 131.428983,108.572424 C133.400199,106.060949 138.978009,95.5404976 139.160529,95.087848 C139.343049,94.6351985 142.935042,86.1151661 143.83304,84.2242592 C144.555819,82.7202946 146.979685,75.4267964 143.862244,71.9370145 Z" id="Path" fill="#24126A"></path>
                <path d="M149.622574,57.9194805 C149.622574,57.9194805 145.848061,59.9929074 144.00826,60.9201089 C142.168458,61.8473104 140.146137,63.1103486 140.146137,63.1103486 L139.416057,62.3802687 L138.583766,64.2054684 C137.057269,65.0761466 135.625853,66.10383 134.312799,67.271804 C133.273405,68.3490907 132.406568,69.580394 131.742917,70.9222035 C131.742917,70.9222035 135.393317,66.3300009 138.247929,64.9866539 L138.978009,64.6143132 L139.437959,63.1541534 L140.116934,63.8842333 C140.116934,63.8842333 148.461747,59.1679171 149.622574,57.9194805 Z" id="Path" fill="#24126A"></path>
            </g>
        </g>
    </g>
</svg>