<?xml version="1.0" encoding="UTF-8"?>
<svg width="260px" height="183px" viewBox="0 0 260 183" version="1.1" xmlns="http://www.w3.org/2000/svg" xmlns:xlink="http://www.w3.org/1999/xlink">
    <title>Group 97</title>
    <defs>
        <path d="M11.6963044,6.80629967 C3.94048928,11.3143403 0.0539497437,17.2142842 0.0388438155,23.1228602 L0.0388438155,23.1228602 L0,36.4570788 C0.017263918,30.5485029 3.89948748,24.6485589 11.6596186,20.1383603 L11.6596186,20.1383603 C27.2726745,11.0661714 52.6722138,11.0661714 68.3910111,20.1405183 L68.3910111,20.1405183 C76.3000436,24.7068246 80.2491648,30.7017202 80.2319009,36.6879837 L80.2319009,36.6879837 L80.2707879,23.3537651 C80.2858506,17.3675015 76.3367294,11.374764 68.427697,6.80845766 L68.427697,6.80845766 C60.5682983,2.27020522 50.2876351,0 40.0220779,0 L40.0220779,0 C29.7543627,0 19.5039114,2.26804723 11.6963044,6.80629967" id="path-1"></path>
        <path d="M0,13.3342187 C-0.019359717,20.1966261 4.51026077,27.0698234 13.5781337,32.3029486 L13.5781337,32.3029486 C31.5995061,42.7109331 60.7215778,42.7087751 78.6242607,32.3029486 L78.6242607,32.3029486 C87.5173365,27.1345631 91.9692693,20.3735812 91.9886912,13.5974934 L91.9886912,13.5974934 L92.0275351,0.265432739 C92.0081132,7.03720457 87.5561803,13.8025024 78.6631045,18.9708879 L78.6631045,18.9708879 C60.7582636,29.3745565 31.6361919,29.3745565 13.6148195,18.9708879 L13.6148195,18.9708879 C4.54694659,13.7334468 0.0173261087,6.8624074 0.0367480165,0 L0.0367480165,0 L0,13.3342187 Z" id="path-3"></path>
        <path d="M5.67033185,0.852405951 C2.47219104,2.76438487 -0.0656049091,7.26595149 0.00129277313,10.9086382 L0.00129277313,10.9086382 C0.0336626194,12.6760318 0.672427585,13.9190339 1.68884076,14.5081651 L1.68884076,14.5081651 L16.0610525,22.8617434 C15.0446393,22.2704542 14.4058744,21.0296101 14.3735045,19.2600585 L14.3735045,19.2600585 C14.3066068,15.6195298 16.8465608,11.1179632 20.0425436,9.20598427 L20.0425436,9.20598427 C21.6912477,8.22409894 23.1910506,8.11835744 24.2657295,8.74417447 L24.2657295,8.74417447 L9.89351779,0.390596145 C9.45112989,0.133795364 8.93537034,-1.53334394e-14 8.36997702,-1.53334394e-14 L8.36997702,-1.53334394e-14 C7.55857288,-1.53334394e-14 6.63926924,0.274064698 5.67033185,0.852405951" id="path-5"></path>
        <path d="M5.95304795,0.897723736 C2.59737389,2.90249621 -0.067743448,7.62633577 0.001312224,11.4502936 L0.001312224,11.4502936 C0.03584006,13.269479 0.681078995,14.5577989 1.70828212,15.1900898 L1.70828212,15.1900898 C2.22404167,15.4986824 2.81533086,15.8202229 3.64399892,16.0748656 L3.64399892,16.0748656 C4.7014139,16.4050381 5.52360799,16.4417239 5.75019692,16.4438819 L5.75019692,16.4438819 C6.06526342,16.4503559 6.48822941,16.4438819 6.80329591,16.415828 L6.80329591,16.415828 C7.09246654,16.3899321 7.47874671,16.3338244 7.75928537,16.2626108 L7.75928537,16.2626108 C8.43905214,16.0834976 8.48005395,16.0748656 9.0799751,15.8266968 L9.0799751,15.8266968 C9.27203619,15.7490092 9.7122661,15.5332102 10.0553865,15.3195692 L10.0553865,15.3195692 C10.98548,14.73907 11.5249775,14.2038885 11.9587334,13.7442367 L11.9587334,13.7442367 C12.4183852,13.256531 12.9643566,12.5033926 13.316109,11.8689436 L13.316109,11.8689436 C13.8944502,10.8244766 14.1404611,10.0173884 14.2203067,9.71958583 L14.2203067,9.71958583 C14.354102,9.21893221 14.4145258,8.9901853 14.5116353,8.26941672 L14.5116353,8.26941672 C14.5547951,7.97161413 14.5591111,7.78171104 14.565585,7.28537339 L14.565585,7.28537339 C14.565585,7.25947752 14.567743,7.23358164 14.567743,7.20768576 L14.567743,7.20768576 C14.567743,7.23358164 14.565585,7.25947752 14.565585,7.28537339 L14.565585,7.28537339 C14.565585,7.24868757 14.565585,7.21200174 14.565585,7.17531592 L14.565585,7.17531592 C14.5483211,6.63366049 14.4900554,4.99358828 13.4455884,3.31898823 L13.4455884,3.31898823 C12.9363028,2.50758409 12.4378072,1.98750856 12.1874803,1.7479717 L12.1874803,1.7479717 C11.9436275,1.51922478 11.7105646,1.30126782 11.2832826,0.986201316 L11.2832826,0.986201316 C11.0092179,0.783350279 10.6164638,0.548129396 10.3208192,0.375490216 L10.3208192,0.375490216 C9.86979935,0.129479385 9.3540398,0 8.78648849,0 L8.78648849,0 C7.93408254,0 6.96946113,0.289170626 5.95304795,0.897723736 M8.16282946,12.1214284 C8.1326176,10.4727243 9.28282614,8.43342394 10.7308373,7.56807005 L10.7308373,7.56807005 C12.1788484,6.70271616 13.3786907,7.33716515 13.4067445,8.98802731 L13.4067445,8.98802731 C13.4391144,10.6367315 12.2889059,12.6760318 10.8387367,13.5435437 L10.8387367,13.5435437 C10.4006648,13.8046604 9.98417281,13.9298238 9.61731455,13.9298238 L9.61731455,13.9298238 C8.77138257,13.9298238 8.18440935,13.271637 8.16282946,12.1214284" id="path-7"></path>
        <path d="M4.6731499,0.705662648 C2.03824442,2.27883718 -0.0550056374,5.98626357 0.00110209607,8.98802731 L0.00110209607,8.98802731 C0.0248399833,10.4058266 0.525493605,11.4114498 1.32394981,11.9142614 L1.32394981,11.9142614 C16.5291456,21.4612081 31.7364994,31.0081547 46.9438531,40.5572594 L46.9438531,40.5572594 C45.9274399,39.9184944 45.290833,38.6344905 45.2563051,36.8282531 L45.2563051,36.8282531 C45.1872495,33.0042952 47.8523668,28.2804557 51.2080409,26.2756832 L51.2080409,26.2756832 C52.8912729,25.27006 54.4299196,25.1362646 55.5542322,25.7405017 L55.5542322,25.7405017 C39.7296934,17.255286 23.9094705,8.77007034 8.08277371,0.284854647 L8.08277371,0.284854647 C7.73533736,0.0971095387 7.33395127,1.53334394e-14 6.89587935,1.53334394e-14 L6.89587935,1.53334394e-14 C6.22906051,1.53334394e-14 5.47160611,0.226588924 4.6731499,0.705662648" id="path-9"></path>
    </defs>
    <g id="Design" stroke="none" stroke-width="1" fill="none" fill-rule="evenodd">
        <g id="001-Home" transform="translate(-885.000000, -3880.000000)">
            <g id="Group-97" transform="translate(885.000000, 3880.000000)">
                <polygon id="Fill-3" fill="#CCD9FF" points="153.330567 150.109983 153.330567 182.166921 260 120.580051 260 88.5252713"></polygon>
                <polygon id="Fill-4" fill="#BACBFF" points="0.00043159795 93.640786 153.329919 182.165842 153.329919 150.108904 0.00043159795 61.5860063"></polygon>
                <polygon id="Fill-5" fill="#A1B6F5" points="153.330351 153.327977 153.330351 155.123425 0.0008631959 66.5983691 0.0008631959 64.8029216"></polygon>
                <polygon id="Fill-6" fill="#A1B6F5" points="153.330351 156.073587 153.330351 157.869035 0.0008631959 69.3439794 0.0008631959 67.5485319"></polygon>
                <polygon id="Fill-7" fill="#A1B6F5" points="153.330351 158.818982 153.330351 160.614429 0.0008631959 72.089374 0.0008631959 70.2939265"></polygon>
                <polygon id="Fill-8" fill="#A1B6F5" points="153.330351 161.564592 153.330351 163.36004 0.0008631959 74.8349843 0.0008631959 73.0395369"></polygon>
                <polygon id="Fill-9" fill="#A1B6F5" points="153.330351 164.310203 153.330351 166.10565 0.0008631959 77.5805947 0.0008631959 75.7851472"></polygon>
                <polygon id="Fill-10" fill="#A1B6F5" points="153.330351 167.055813 153.330351 168.851261 0.0008631959 80.3262051 0.0008631959 78.5307576"></polygon>
                <polygon id="Fill-11" fill="#A1B6F5" points="153.330351 169.801423 153.330351 171.596871 0.0008631959 83.0718154 0.0008631959 81.2763679"></polygon>
                <polygon id="Fill-12" fill="#A1B6F5" points="153.330351 172.547034 153.330351 174.342481 0.0008631959 85.8174258 0.0008631959 84.0219783"></polygon>
                <polygon id="Fill-13" fill="#A1B6F5" points="153.330351 175.292428 153.330351 177.087876 0.0008631959 88.5628203 0.0008631959 86.7673729"></polygon>
                <polygon id="Fill-14" fill="#A1B6F5" points="153.330351 178.038039 153.330351 179.833486 0.0008631959 91.3084307 0.0008631959 89.5129832"></polygon>
                <polygon id="Fill-15" fill="#BACBFF" points="153.330567 178.038686 153.330567 179.834134 260 118.249422 260 116.451817"></polygon>
                <polygon id="Fill-16" fill="#BACBFF" points="153.330567 175.292428 153.330567 177.090034 260 115.503164 260 113.707717"></polygon>
                <polygon id="Fill-17" fill="#BACBFF" points="153.330567 172.546171 153.330567 174.343776 260 112.756907 260 110.961459"></polygon>
                <polygon id="Fill-18" fill="#BACBFF" points="153.330567 169.801855 153.330567 171.597303 260 110.012591 260 108.214986"></polygon>
                <polygon id="Fill-19" fill="#BACBFF" points="153.330567 167.055597 153.330567 168.853203 260 107.266333 260 105.470886"></polygon>
                <polygon id="Fill-20" fill="#BACBFF" points="153.330567 164.30934 153.330567 166.106945 260 104.520076 260 102.724628"></polygon>
                <polygon id="Fill-21" fill="#BACBFF" points="153.330567 161.565024 153.330567 163.360471 260 101.773602 260 99.9803125"></polygon>
                <polygon id="Fill-22" fill="#BACBFF" points="153.330567 158.818766 153.330567 160.614214 260 99.0273442 260 97.2340547"></polygon>
                <polygon id="Fill-23" fill="#BACBFF" points="153.330567 156.074451 153.330567 157.869898 260 96.2851866 260 94.4875812"></polygon>
                <polygon id="Fill-24" fill="#BACBFF" points="153.330567 153.328193 153.330567 155.12364 260 93.5389289 260 91.7434814"></polygon>
                <polygon id="Fill-25" fill="#EBF0FF" points="106.669433 0 0 61.5847115 153.331646 150.109767 259.998921 88.5250555"></polygon>
                <polygon id="Fill-26" fill="#CCD9FF" points="180.664096 52.3817484 90.7298736 104.30514 86.9641815 102.132044 176.898404 50.2086527"></polygon>
                <polygon id="Fill-27" fill="#CCD9FF" points="189.457689 57.4588509 99.5234661 109.382242 95.757774 107.209147 185.691997 55.2857552"></polygon>
                <polygon id="Fill-28" fill="#CCD9FF" points="172.083066 47.4276513 82.1488432 99.3510427 78.3831511 97.177947 168.317374 45.2545556"></polygon>
                <polygon id="Fill-29" fill="#CCD9FF" points="198.251281 62.5357376 108.317058 114.459129 104.551366 112.286033 194.485589 60.3626419"></polygon>
                <polygon id="Fill-30" fill="#CCD9FF" points="117.603104 15.9734401 85.843969 34.309879 82.0804349 32.1346254 113.837412 13.8003444"></polygon>
                <polygon id="Fill-31" fill="#CCD9FF" points="126.396697 21.0503268 94.6375615 39.3867657 90.8740273 37.211512 122.631005 18.8772311"></polygon>
                <polygon id="Fill-32" fill="#CCD9FF" points="135.190073 26.1274293 103.430938 44.4638682 99.667404 42.2886145 131.424381 23.9543336"></polygon>
                <polygon id="Fill-33" fill="#CCD9FF" points="143.983666 31.204316 112.224531 49.5407549 108.460996 47.3655012 140.217974 29.0312203"></polygon>
                <polygon id="Fill-34" fill="#CCD9FF" points="152.777258 36.2812027 121.018123 54.6176416 117.254589 52.4423879 149.011566 34.108107"></polygon>
                <polygon id="Fill-35" fill="#CCD9FF" points="170.354732 128.558355 163.330475 132.613218 133.712066 115.513307 140.734165 111.458444"></polygon>
                <polygon id="Fill-36" fill="#CCD9FF" points="178.871023 123.641375 171.846766 127.696238 142.228357 110.596327 149.252613 106.541465"></polygon>
                <polygon id="Fill-37" fill="#CCD9FF" points="195.90382 113.807416 188.879563 117.862279 159.261154 100.762368 166.285411 96.7075052"></polygon>
                <polygon id="Fill-38" fill="#CCD9FF" points="187.387529 118.724396 180.363273 122.779258 150.744863 105.679348 157.766962 101.624485"></polygon>
                <polygon id="Fill-39" fill="#FFE652" points="161.838225 133.475335 154.813969 137.530197 125.19556 120.430287 132.217658 116.375424"></polygon>
                <polygon id="Fill-40" fill="#CCD9FF" points="161.838225 133.475335 154.813969 137.530197 125.19556 120.430287 132.217658 116.375424"></polygon>
                <polygon id="Fill-41" fill="#5C84FF" points="161.838225 133.475335 154.813969 137.530197 147.409906 133.25522 154.434163 129.200357"></polygon>
                <polygon id="Fill-42" fill="#5C84FF" points="187.387529 118.724396 180.363273 122.779258 170.842222 117.282859 177.866479 113.227996"></polygon>
                <polygon id="Fill-43" fill="#5C84FF" points="170.354732 128.558355 163.330475 132.613218 140.455784 119.40632 147.477883 115.351458"></polygon>
                <polygon id="Fill-44" fill="#5C84FF" points="178.871023 123.641375 171.846766 127.696238 155.517258 118.267981 162.541514 114.213118"></polygon>
                <polygon id="Fill-45" fill="#5C84FF" points="195.90382 113.807416 188.879563 117.862279 167.722632 105.648057 174.746889 101.593194"></polygon>
                <polygon id="Fill-46" fill="#CCD9FF" points="212.936833 103.973673 205.912577 108.028535 176.294167 90.9286245 183.316266 86.8737617"></polygon>
                <polygon id="Fill-47" fill="#CCD9FF" points="221.453124 99.0566929 214.428867 103.111556 184.810458 86.0116448 191.834715 81.9567821"></polygon>
                <polygon id="Fill-48" fill="#CCD9FF" points="238.485921 89.2227336 231.461665 93.2775963 201.843255 76.1776856 208.867512 72.1228228"></polygon>
                <polygon id="Fill-49" fill="#CCD9FF" points="229.96963 94.1397132 222.945374 98.194576 193.326964 81.0946652 200.349063 77.0398025"></polygon>
                <polygon id="Fill-50" fill="#FFE652" points="204.420327 108.890436 197.39607 112.945299 167.777661 95.8453883 174.799759 91.7905256"></polygon>
                <polygon id="Fill-51" fill="#CCD9FF" points="204.420327 108.890436 197.39607 112.945299 167.777661 95.8453883 174.799759 91.7905256"></polygon>
                <polygon id="Fill-52" fill="#5C84FF" points="204.420327 108.890436 197.39607 112.945299 189.992007 108.670321 197.016264 104.615459"></polygon>
                <polygon id="Fill-53" fill="#5C84FF" points="229.96963 94.1397132 222.945374 98.194576 199.608873 84.722246 206.633129 80.6673832"></polygon>
                <polygon id="Fill-54" fill="#5C84FF" points="212.936833 103.973673 205.912577 108.028535 192.927952 100.531679 199.950051 96.4768161"></polygon>
                <polygon id="Fill-55" fill="#5C84FF" points="221.453124 99.0566929 214.428867 103.111556 194.849426 91.8080053 201.871525 87.7509846"></polygon>
                <polygon id="Fill-56" fill="#5C84FF" points="238.485921 89.2227336 231.461665 93.2775963 201.843255 76.1776856 208.867512 72.1228228"></polygon>
                <g id="Group-65" transform="translate(37.833660, 44.610125)">
                    <path d="M23.2134957,12.5688347 C28.2524018,10.0849885 35.8614737,10.184256 41.0751769,12.8040556 L53.9993775,5.34172705 C41.3255037,-1.55952417 21.9208599,-1.80337701 9.73037578,4.7828077 L23.2134957,12.5688347 Z" id="Fill-57" fill="#7899FF"></path>
                    <path d="M21.7611686,13.3996608 L8.28452265,5.61794974 C2.89386425,8.94341194 0.142427323,13.1946517 7.6667197e-15,17.5300532 L18.6774013,17.7588001 C18.8802523,16.1813096 19.9074554,14.6534528 21.7611686,13.3996608" id="Fill-59" fill="#7899FF"></path>
                    <path d="M31.7209387,26.5534715 C28.5206399,26.3916223 25.357027,25.5931661 22.8623908,24.1537869 C20.4432843,22.7575675 19.0600129,20.9966479 18.7233665,19.2055164 L0.0502811612,18.9767695 C0.507774988,23.5258119 3.81813126,28.0619063 9.9576121,31.6053255 C16.1014089,35.1530606 23.9651236,37.0628816 31.8504181,37.3261563 L31.7209387,26.5534715 Z" id="Fill-61" fill="#99B2FF"></path>
                    <path d="M55.4456622,6.17708488 L42.5279356,13.6350975 C47.3014089,16.8008684 47.2496172,21.5009701 42.2452389,24.3905184 C39.7570768,25.8277395 36.4920383,26.5485081 33.1665761,26.583036 L33.2960554,37.3557208 C41.4877845,37.4183025 49.593194,35.6962267 55.711095,32.1657554 C67.8433133,25.1587627 67.6447783,13.6437294 55.4456622,6.17708488" id="Fill-63" fill="#5C84FF"></path>
                </g>
                <g id="Group-68" transform="translate(110.487133, 17.716233)">
                    <mask id="mask-2" fill="white">
                        <use xlink:href="#path-1"></use>
                    </mask>
                    <g id="Clip-67"></g>
                    <path d="M11.6963044,6.80629967 C3.94048928,11.3143403 0.0539497437,17.2142842 0.0388438155,23.1228602 L0.0388438155,23.1228602 L0,36.4570788 C0.017263918,30.5485029 3.89948748,24.6485589 11.6596186,20.1383603 L11.6596186,20.1383603 C27.2726745,11.0661714 52.6722138,11.0661714 68.3910111,20.1405183 L68.3910111,20.1405183 C76.3000436,24.7068246 80.2491648,30.7017202 80.2319009,36.6879837 L80.2319009,36.6879837 L80.2707879,23.3537651 C80.2858506,17.3675015 76.3367294,11.374764 68.427697,6.80845766 L68.427697,6.80845766 C60.5682983,2.27020522 50.2876351,0 40.0220779,0 L40.0220779,0 C29.7543627,0 19.5039114,2.26804723 11.6963044,6.80629967" id="Fill-66" mask="url(#mask-2)"></path>
                </g>
                <g id="Group-77" transform="translate(104.648015, 14.311896)">
                    <path d="M17.7203621,47.0568008 C33.4391594,56.1311477 58.8386988,56.1311477 74.4517546,47.0589588 C90.0691264,37.9824539 89.9849648,23.2692798 74.2661675,14.1949329 C58.5516861,5.12274397 33.1499888,5.12058598 17.532617,14.1949329 C1.91956112,23.2692798 2.00372272,37.9824539 17.7203621,47.0568008" id="Fill-69" fill="#ABD9FF"></path>
                    <path d="M47.6132677,9.80234474 C39.328745,9.48080427 31.5319281,10.6374868 25.0558008,12.8645322 C37.7620445,13.0630673 50.3798105,15.9634055 60.1058703,21.5784948 C70.9519268,27.8409811 75.9929909,36.1945594 75.2225885,44.3927624 C80.2183348,41.0931961 83.3776318,36.895906 83.8027558,32.2346482 C84.8580128,20.6635071 68.6558257,10.6180649 47.6132677,9.80234474" id="Fill-71" fill="#8FADFF"></path>
                    <path d="M6.11555639,33.0490735 C7.04996595,27.9821136 10.8501859,23.061897 17.5356381,19.1753574 C33.150852,10.1031685 58.5482333,10.1031685 74.2670307,19.1775154 C81.0582244,23.0964248 84.9231841,28.0705912 85.8726995,33.1871849 C87.1221756,26.417571 83.255058,19.3846824 74.2670307,14.1968751 C58.5482333,5.12037018 33.150852,5.12037018 17.5356381,14.1947171 C8.66630027,19.3501546 4.86823832,26.3226195 6.11555639,33.0490735" id="Fill-73" fill="#76AFF5"></path>
                    <path d="M74.2674623,10.211068 C58.5486649,1.1367211 33.1491256,1.1367211 17.5360697,10.20891 C1.91869793,19.2854149 2.00285953,33.996431 17.7216569,43.0729359 C33.4361382,52.1451248 58.8378356,52.1472828 74.4552074,43.0729359 C90.0682632,33.998589 89.9841016,19.2854149 74.2674623,10.211068 M13.5783165,45.4790945 C-4.44305586,35.0754259 -4.5380074,18.20642 13.3668335,7.80275144 C31.2673585,-2.60091715 60.3894302,-2.60091715 78.4108026,7.80275144 C96.432175,18.208578 96.5271265,35.0775839 78.6244436,45.4790945 C60.7217606,55.884921 31.5996889,55.884921 13.5783165,45.4790945" id="Fill-75" fill="#D3DBFF"></path>
                </g>
                <g id="Group-80" transform="translate(104.610865, 40.821829)">
                    <mask id="mask-4" fill="white">
                        <use xlink:href="#path-3"></use>
                    </mask>
                    <g id="Clip-79"></g>
                    <path d="M0,13.3342187 C-0.019359717,20.1966261 4.51026077,27.0698234 13.5781337,32.3029486 L13.5781337,32.3029486 C31.5995061,42.7109331 60.7215778,42.7087751 78.6242607,32.3029486 L78.6242607,32.3029486 C87.5173365,27.1345631 91.9692693,20.3735812 91.9886912,13.5974934 L91.9886912,13.5974934 L92.0275351,0.265432739 C92.0081132,7.03720457 87.5561803,13.8025024 78.6631045,18.9708879 L78.6631045,18.9708879 C60.7582636,29.3745565 31.6361919,29.3745565 13.6148195,18.9708879 L13.6148195,18.9708879 C4.54694659,13.7334468 0.0173261087,6.8624074 0.0367480165,0 L0.0367480165,0 L0,13.3342187 Z" id="Fill-78" mask="url(#mask-4)"></path>
                </g>
                <g id="Group-83" transform="translate(179.450877, 58.815147)">
                    <mask id="mask-6" fill="white">
                        <use xlink:href="#path-5"></use>
                    </mask>
                    <g id="Clip-82"></g>
                    <path d="M5.67033185,0.852405951 C2.47219104,2.76438487 -0.0656049091,7.26595149 0.00129277313,10.9086382 L0.00129277313,10.9086382 C0.0336626194,12.6760318 0.672427585,13.9190339 1.68884076,14.5081651 L1.68884076,14.5081651 L16.0610525,22.8617434 C15.0446393,22.2704542 14.4058744,21.0296101 14.3735045,19.2600585 L14.3735045,19.2600585 C14.3066068,15.6195298 16.8465608,11.1179632 20.0425436,9.20598427 L20.0425436,9.20598427 C21.6912477,8.22409894 23.1910506,8.11835744 24.2657295,8.74417447 L24.2657295,8.74417447 L9.89351779,0.390596145 C9.45112989,0.133795364 8.93537034,-1.53334394e-14 8.36997702,-1.53334394e-14 L8.36997702,-1.53334394e-14 C7.55857288,-1.53334394e-14 6.63926924,0.274064698 5.67033185,0.852405951" id="Fill-81" mask="url(#mask-6)"></path>
                </g>
                <g id="Group-88" transform="translate(193.823521, 67.167629)">
                    <path d="M5.85807589,14.5342945 C5.17615113,14.6400359 4.49422637,14.7457774 3.8144596,14.8515189 C1.63057397,15.1903233 0.0509254742,13.7121004 0.00129170992,10.9088717 C-0.0656059723,7.26618497 2.47434796,2.76461836 5.67033078,0.852639439 C8.22323266,-0.670901325 10.4243822,-0.0839281128 11.2422603,2.06542968 C11.3652657,2.38697015 11.4882711,2.70851062 11.6112766,3.03220909 C11.6328565,3.09047481 11.6630683,3.16816244 11.6846482,3.22427017 C11.6954382,3.25448203 11.7105441,3.29332585 11.721334,3.32137971 C11.7429139,3.37964544 11.7731258,3.45733307 11.7947057,3.51559879 C11.8162856,3.57386451 11.8464974,3.65155214 11.8680773,3.70981787 C11.8788673,3.73787173 11.8939732,3.77671555 11.9047632,3.80476942 C11.9285011,3.86303514 11.9565549,3.94072277 11.9781348,3.99898849 C11.304842,2.22727891 9.49213063,1.74604719 7.38809062,3.00199723 C4.75318514,4.57517176 2.66209307,8.28475614 2.71604281,11.2865199 C2.75920261,13.5955689 4.06047043,14.8126751 5.85807589,14.5342945" id="Fill-84" fill="#B9C6FC"></path>
                    <path d="M59.3613315,38.5812058 L61.379052,36.6627529 C61.4092638,38.3136151 60.2590553,40.3529154 58.8110442,41.2182693 C57.363033,42.0836232 56.1631907,41.4470162 56.1351369,39.7961541 C56.104925,38.1474499 57.2529756,36.1081496 58.7031447,35.2427957 C60.1511558,34.3774418 61.3488401,35.0140488 61.379052,36.6627529 L59.3613315,38.5812058 Z" id="Fill-86" fill="#354589"></path>
                </g>
                <g id="Group-91" transform="translate(241.795181, 94.842786)">
                    <mask id="mask-8" fill="white">
                        <use xlink:href="#path-7"></use>
                    </mask>
                    <g id="Clip-90"></g>
                    <path d="M5.95304795,0.897723736 C2.59737389,2.90249621 -0.067743448,7.62633577 0.001312224,11.4502936 L0.001312224,11.4502936 C0.03584006,13.269479 0.681078995,14.5577989 1.70828212,15.1900898 L1.70828212,15.1900898 C2.22404167,15.4986824 2.81533086,15.8202229 3.64399892,16.0748656 L3.64399892,16.0748656 C4.7014139,16.4050381 5.52360799,16.4417239 5.75019692,16.4438819 L5.75019692,16.4438819 C6.06526342,16.4503559 6.48822941,16.4438819 6.80329591,16.415828 L6.80329591,16.415828 C7.09246654,16.3899321 7.47874671,16.3338244 7.75928537,16.2626108 L7.75928537,16.2626108 C8.43905214,16.0834976 8.48005395,16.0748656 9.0799751,15.8266968 L9.0799751,15.8266968 C9.27203619,15.7490092 9.7122661,15.5332102 10.0553865,15.3195692 L10.0553865,15.3195692 C10.98548,14.73907 11.5249775,14.2038885 11.9587334,13.7442367 L11.9587334,13.7442367 C12.4183852,13.256531 12.9643566,12.5033926 13.316109,11.8689436 L13.316109,11.8689436 C13.8944502,10.8244766 14.1404611,10.0173884 14.2203067,9.71958583 L14.2203067,9.71958583 C14.354102,9.21893221 14.4145258,8.9901853 14.5116353,8.26941672 L14.5116353,8.26941672 C14.5547951,7.97161413 14.5591111,7.78171104 14.565585,7.28537339 L14.565585,7.28537339 C14.565585,7.25947752 14.567743,7.23358164 14.567743,7.20768576 L14.567743,7.20768576 C14.567743,7.23358164 14.565585,7.25947752 14.565585,7.28537339 L14.565585,7.28537339 C14.565585,7.24868757 14.565585,7.21200174 14.565585,7.17531592 L14.565585,7.17531592 C14.5483211,6.63366049 14.4900554,4.99358828 13.4455884,3.31898823 L13.4455884,3.31898823 C12.9363028,2.50758409 12.4378072,1.98750856 12.1874803,1.7479717 L12.1874803,1.7479717 C11.9436275,1.51922478 11.7105646,1.30126782 11.2832826,0.986201316 L11.2832826,0.986201316 C11.0092179,0.783350279 10.6164638,0.548129396 10.3208192,0.375490216 L10.3208192,0.375490216 C9.86979935,0.129479385 9.3540398,0 8.78648849,0 L8.78648849,0 C7.93408254,0 6.96946113,0.289170626 5.95304795,0.897723736 M8.16282946,12.1214284 C8.1326176,10.4727243 9.28282614,8.43342394 10.7308373,7.56807005 L10.7308373,7.56807005 C12.1788484,6.70271616 13.3786907,7.33716515 13.4067445,8.98802731 L13.4067445,8.98802731 C13.4391144,10.6367315 12.2889059,12.6760318 10.8387367,13.5435437 L10.8387367,13.5435437 C10.4006648,13.8046604 9.98417281,13.9298238 9.61731455,13.9298238 L9.61731455,13.9298238 C8.77138257,13.9298238 8.18440935,13.271637 8.16282946,12.1214284" id="Fill-89" mask="url(#mask-8)"></path>
                </g>
                <g id="Group-94" transform="translate(196.540188, 69.464827)">
                    <mask id="mask-10" fill="white">
                        <use xlink:href="#path-9"></use>
                    </mask>
                    <g id="Clip-93"></g>
                    <path d="M4.6731499,0.705662648 C2.03824442,2.27883718 -0.0550056374,5.98626357 0.00110209607,8.98802731 L0.00110209607,8.98802731 C0.0248399833,10.4058266 0.525493605,11.4114498 1.32394981,11.9142614 L1.32394981,11.9142614 C16.5291456,21.4612081 31.7364994,31.0081547 46.9438531,40.5572594 L46.9438531,40.5572594 C45.9274399,39.9184944 45.290833,38.6344905 45.2563051,36.8282531 L45.2563051,36.8282531 C45.1872495,33.0042952 47.8523668,28.2804557 51.2080409,26.2756832 L51.2080409,26.2756832 C52.8912729,25.27006 54.4299196,25.1362646 55.5542322,25.7405017 L55.5542322,25.7405017 C39.7296934,17.255286 23.9094705,8.77007034 8.08277371,0.284854647 L8.08277371,0.284854647 C7.73533736,0.0971095387 7.33395127,1.53334394e-14 6.89587935,1.53334394e-14 L6.89587935,1.53334394e-14 C6.22906051,1.53334394e-14 5.47160611,0.226588924 4.6731499,0.705662648" id="Fill-92" mask="url(#mask-10)"></path>
                </g>
                <path d="M200.578242,71.1064096 C199.423717,71.8854439 198.901484,73.0119146 198.901484,73.0119146 L243.977574,99.1451705 C243.977574,99.1451705 245.015567,97.4382006 246.413944,96.4584732 L200.578242,71.1064096 Z" id="Fill-95" fill="#485EBA"></path>
            </g>
        </g>
    </g>
</svg>