<?xml version="1.0" encoding="UTF-8"?>
<svg width="465px" height="320px" viewBox="0 0 465 320" version="1.1" xmlns="http://www.w3.org/2000/svg" xmlns:xlink="http://www.w3.org/1999/xlink">
    <title>Group 12</title>
    <defs>
        <path d="M282.362154,230.132701 L122.421436,230.132701 L122.421436,0 L299.934337,0 L299.934337,215.143184 C299.934337,223.42168 292.067171,230.132701 282.362154,230.132701" id="path-1"></path>
        <filter x="-43.4%" y="-23.9%" width="186.8%" height="166.9%" filterUnits="objectBoundingBox" id="filter-2">
            <feOffset dx="0" dy="22" in="SourceAlpha" result="shadowOffsetOuter1"></feOffset>
            <feGaussianBlur stdDeviation="22" in="shadowOffsetOuter1" result="shadowBlurOuter1"></feGaussianBlur>
            <feColorMatrix values="0 0 0 0 0.0773525914   0 0 0 0 0.178018379   0 0 0 0 0.363620924  0 0 0 1 0" type="matrix" in="shadowBlurOuter1"></feColorMatrix>
        </filter>
        <path d="M117.933166,231.946749 L0,231.946749 L0,48.8619939 L133.243034,48.8619939 L133.243034,216.636882 C133.243034,225.092211 126.388496,231.946749 117.933166,231.946749" id="path-3"></path>
        <filter x="-57.8%" y="-30.0%" width="215.6%" height="184.1%" filterUnits="objectBoundingBox" id="filter-4">
            <feOffset dx="0" dy="22" in="SourceAlpha" result="shadowOffsetOuter1"></feOffset>
            <feGaussianBlur stdDeviation="22" in="shadowOffsetOuter1" result="shadowBlurOuter1"></feGaussianBlur>
            <feColorMatrix values="0 0 0 0 0.0773525914   0 0 0 0 0.178018379   0 0 0 0 0.363620924  0 0 0 1 0" type="matrix" in="shadowBlurOuter1"></feColorMatrix>
        </filter>
        <polygon id="path-5" points="287.553722 199.879127 376.362549 199.879127 376.362549 135.676736 287.553722 135.676736"></polygon>
        <filter x="-86.7%" y="-85.7%" width="273.4%" height="339.9%" filterUnits="objectBoundingBox" id="filter-6">
            <feOffset dx="0" dy="22" in="SourceAlpha" result="shadowOffsetOuter1"></feOffset>
            <feGaussianBlur stdDeviation="22" in="shadowOffsetOuter1" result="shadowBlurOuter1"></feGaussianBlur>
            <feColorMatrix values="0 0 0 0 0.0773525914   0 0 0 0 0.178018379   0 0 0 0 0.363620924  0 0 0 1 0" type="matrix" in="shadowBlurOuter1"></feColorMatrix>
        </filter>
    </defs>
    <g id="Design" stroke="none" stroke-width="1" fill="none" fill-rule="evenodd">
        <g id="002-Funkcionalnosti" transform="translate(-781.000000, -4297.000000)">
            <g id="Group-12" transform="translate(825.000000, 4319.000000)">
                <g id="Fill-1">
                    <use fill="black" fill-opacity="1" filter="url(#filter-2)" xlink:href="#path-1"></use>
                    <use fill="#EBF0FF" fill-rule="evenodd" xlink:href="#path-1"></use>
                </g>
                <polygon id="Fill-3" fill="#8CABEF" points="122.380079 10.6843275 299.596335 10.6843275 299.596335 0 122.380079 0"></polygon>
                <path d="M255.17113,126.563663 C257.561265,126.563663 257.561265,123.861507 255.17113,123.861507 L166.218466,123.861507 C163.828331,123.861507 163.828331,126.563663 166.218466,126.563663 L255.17113,126.563663 Z" id="Fill-5" fill="#A9C9F9"></path>
                <path d="M171.468272,34.3806488 L207.126158,65.2781274 L242.784044,34.3806488 C234.135864,24.4068585 221.37919,18.0946737 207.126158,18.0946737 C192.872807,18.0946737 180.116132,24.4068585 171.468272,34.3806488 Z" id="Fill-6" fill="#1270ED" opacity="0.8"></path>
                <path d="M257.225986,58.3637478 L210.52498,65.0782928 L210.52498,112.261747 C236.605029,112.261747 257.708754,91.1583416 257.708754,65.0782928 C257.708754,62.7973977 257.538007,60.5575075 257.225986,58.3637478" id="Fill-7" fill="#1270ED" opacity="0.3"></path>
                <path d="M171.518439,34.5368517 C154.709332,54.4773845 157.243304,84.2148742 177.183836,101.023661 C178.928145,102.493749 180.750618,103.806545 182.629153,104.981911 L207.594703,64.9473976 L171.518439,34.5368517 Z" id="Fill-8" fill="#1270ED"></path>
                <path d="M207.529992,112.19457 C198.68864,112.196491 189.816856,109.728511 182.02273,104.701252 L207.534797,65.0127171 L207.529992,112.19457 Z" id="Fill-9" fill="#1270ED" opacity="0.6"></path>
                <path d="M259.625155,55.7647448 C258.319086,46.5825404 254.37397,38.2617583 248.582035,31.5818112 L212.924149,62.4792898 L259.625155,55.7647448 Z" id="Fill-10" fill="#1D4271"></path>
                <polygon id="Fill-11" fill="#1270ED" points="143.290953 219.793391 160.624154 219.793391 160.624154 178.04308 143.290953 178.04308"></polygon>
                <polygon id="Fill-12" fill="#1D4271" points="143.290953 181.496138 160.624154 181.496138 160.624154 161.876596 143.290953 161.876596"></polygon>
                <polygon id="Fill-13" fill="#1270ED" points="257.402019 221.677051 274.735219 221.677051 274.735219 179.926741 257.402019 179.926741"></polygon>
                <polygon id="Fill-14" fill="#1D4271" points="257.402019 183.379798 274.848303 183.379798 274.848303 144.690116 257.402019 144.690116"></polygon>
                <polygon id="Fill-15" fill="#1270ED" points="219.36489 220.735221 236.698091 220.735221 236.698091 176.630655 219.36489 176.630655"></polygon>
                <polygon id="Fill-16" fill="#1D4271" points="219.36489 201.979024 236.698091 201.979024 236.698091 172.706683 219.36489 172.706683"></polygon>
                <polygon id="Fill-17" fill="#1270ED" points="181.328082 220.499764 198.661283 220.499764 198.661283 161.268571 181.328082 161.268571"></polygon>
                <polygon id="Fill-18" fill="#1D4271" points="181.328082 185.708425 198.661283 185.708425 198.661283 138.333402 181.328082 138.333402"></polygon>
                <g id="Fill-23">
                    <use fill="black" fill-opacity="1" filter="url(#filter-4)" xlink:href="#path-3"></use>
                    <use fill="#BACBFF" fill-rule="evenodd" xlink:href="#path-3"></use>
                </g>
                <polygon id="Fill-24" fill="#EBF0FF" points="14.1419979 131.688694 122.005269 131.688694 122.005269 63.4809615 14.1419979 63.4809615"></polygon>
                <path d="M82.47047,87.1366303 C82.9176792,88.0387371 83.6922866,88.8101409 85.1582101,89.3576198 C87.8895179,90.3772952 91.5613745,89.64113 93.1358969,87.3544686 C95.767896,83.5314066 95.0278865,78.0604619 97.8597843,74.088437 C99.0092016,72.4764336 100.76248,71.1690835 102.828419,70.5796387 C104.894359,69.9905143 107.265273,70.1631831 109.103764,71.1758108 C112.09872,72.8256156 113.135054,76.2344645 113.164206,79.3280886 C113.220267,85.2699483 112.389598,91.4120271 111.319308,97.275401 C110.801301,100.112424 110.003949,103.027293 107.947619,105.269105 C105.158648,108.309551 100.566425,109.575576 96.174741,110.252156 C85.0633864,111.96475 73.6665995,110.917524 62.4479275,109.866454 C53.4239762,109.020729 44.400025,108.175004 35.3760737,107.329279 C32.8324913,107.090938 25.3423779,107.475679 23.819432,105.713111 C22.3323653,103.992189 23.5010036,98.1595682 24.370755,96.3591988 C26.3072734,92.3503335 31.6049084,90.0876985 36.5767471,90.3423771 C47.7918953,90.9161247 43.3585657,79.2044333 46.9480923,73.6431499 C48.8551384,70.6888782 53.0546122,68.5655955 56.6716889,69.7967022 C60.1212223,70.9711069 61.5618382,74.4334544 63.2619379,77.3069977 C64.1445033,78.7988697 65.3983549,80.3452012 67.2845782,80.6677941 C70.4922471,81.2165544 73.1681342,77.956348 76.4334662,78.0812847 C78.3671014,78.155606 80.0121008,79.4603933 80.846934,80.9859021 C81.9825763,83.0608118 81.5863028,85.3532395 82.47047,87.1366303" id="Fill-25" fill="#1270ED"></path>
                <path d="M114.955445,127.987525 C114.95096,127.987525 114.973064,123.078475 114.974025,122.80874 C115.000294,115.482646 114.999333,108.156552 115.008303,100.830458 C115.016952,93.8304807 115.593904,86.8327459 115.4805,79.8503879 C115.429884,76.6202945 114.034758,74.9323681 110.632957,75.7985957 C107.283693,76.6513685 104.220182,78.6391429 102.112276,81.3819833 C100.684474,83.2400158 99.4975759,85.5660803 97.277227,86.3144189 C93.3087259,87.6515616 90.061654,83.1820324 86.4977554,80.9828267 C82.660598,78.6147963 77.3190749,79.0136326 73.8759485,81.9249773 C69.7149168,85.4433861 68.7605929,91.5268407 65.2389806,95.68563 C61.3633811,100.262797 54.3230397,101.812332 48.8834894,99.2854078 C46.6490451,98.247152 44.7285443,96.6297027 42.5261351,95.5257751 C33.79114,91.1465848 21.6463348,97.4475574 20.1967491,107.110608 L20.1967491,127.106241 C20.1967491,127.106241 115.131638,128.163718 114.955445,127.987525" id="Fill-26" fill="#A9C9F9"></path>
                <polygon id="Fill-27" fill="#1270ED" points="15.9042456 150.194697 24.0116742 150.194697 24.0116742 142.087269 15.9042456 142.087269"></polygon>
                <polygon id="Fill-28" fill="#1270ED" points="15.9042456 162.179647 24.0116742 162.179647 24.0116742 154.072219 15.9042456 154.072219"></polygon>
                <polygon id="Fill-29" fill="#F7F7F7" points="30.7092407 147.022267 54.3264354 147.022267 54.3264354 144.554928 30.7092407 144.554928"></polygon>
                <polygon id="Fill-30" fill="#F7F7F7" points="30.3568552 160.064694 53.9740499 160.064694 53.9740499 157.597355 30.3568552 157.597355"></polygon>
                <polygon id="Fill-31" fill="#F7F7F7" points="16.9617223 178.669686 119.890315 178.669686 119.890315 176.00405 16.9617223 176.00405"></polygon>
                <polygon id="Fill-32" fill="#3D8AF1" points="16.9620427 220.275198 62.7862495 220.275198 62.7862495 183.747881 16.9620427 183.747881"></polygon>
                <polygon id="Fill-33" fill="#F7F7F7" points="69.8362015 200.006626 119.890315 200.006626 119.890315 184.100266 69.8362015 184.100266"></polygon>
                <polygon id="Fill-34" fill="#F7F7F7" points="69.3076232 220.098685 119.361737 220.098685 119.361737 204.192325 69.3076232 204.192325"></polygon>
                <g id="Fill-35">
                    <use fill="black" fill-opacity="1" filter="url(#filter-6)" xlink:href="#path-5"></use>
                    <use fill="#A1B6F5" fill-rule="evenodd" xlink:href="#path-5"></use>
                </g>
                <polygon id="Fill-36" fill="#D5E2FD" points="290.588081 196.345021 380.000128 196.345021 380.000128 131.951381 290.588081 131.951381"></polygon>
                <polygon id="Fill-37" fill="#3D8AF1" points="290.588081 137.077308 379.878395 137.077308 379.878395 131.951381 290.588081 131.951381"></polygon>
                <path d="M355.480827,160.312966 L368.638259,160.312966 L368.638259,148.144454 L355.480827,148.144454 L355.480827,160.312966 Z M355.480827,172.680414 L368.638259,172.680414 L368.638259,160.511903 L355.480827,160.511903 L355.480827,172.680414 Z M355.480827,185.047863 L368.638259,185.047863 L368.638259,172.879031 L355.480827,172.879031 L355.480827,185.047863 Z M342.124776,185.047863 L355.282209,185.047863 L355.282209,172.879031 L342.124776,172.879031 L342.124776,185.047863 Z M328.768726,185.047863 L341.926159,185.047863 L341.926159,172.879031 L328.768726,172.879031 L328.768726,185.047863 Z M315.412676,185.047863 L328.570109,185.047863 L328.570109,172.879031 L315.412676,172.879031 L315.412676,185.047863 Z M302.056626,185.047863 L315.214059,185.047863 L315.214059,172.879031 L302.056626,172.879031 L302.056626,185.047863 Z M302.056626,172.680094 L315.214059,172.680094 L315.214059,160.511583 L302.056626,160.511583 L302.056626,172.680094 Z M302.056626,160.312966 L315.214059,160.312966 L315.214059,148.144454 L302.056626,148.144454 L302.056626,160.312966 Z M315.412356,160.312966 L328.569789,160.312966 L328.569789,148.144454 L315.412356,148.144454 L315.412356,160.312966 Z M328.768726,160.312966 L341.926159,160.312966 L341.926159,148.144454 L328.768726,148.144454 L328.768726,160.312966 Z M342.124776,172.680094 L355.282209,172.680094 L355.282209,160.511583 L342.124776,160.511583 L342.124776,172.680094 Z M315.412356,172.680414 L328.569789,172.680414 L328.569789,160.511903 L315.412356,160.511903 L315.412356,172.680414 Z M328.768726,172.680094 L341.926159,172.680094 L341.926159,160.511583 L328.768726,160.511583 L328.768726,172.680094 Z M342.124776,160.312966 L355.282209,160.312966 L355.282209,148.144454 L342.124776,148.144454 L342.124776,160.312966 Z M379.812082,148.144454 L379.812082,147.945517 L368.836877,147.945517 L368.836877,137.175656 L368.638259,137.175656 L368.638259,147.945517 L355.480827,147.945517 L355.480827,137.175656 L355.282209,137.175656 L355.282209,147.945517 L342.124776,147.945517 L342.124776,137.175656 L341.926159,137.175656 L341.926159,147.945517 L328.768726,147.945517 L328.768726,137.175656 L328.569789,137.175656 L328.569789,147.945517 L315.412676,147.945517 L315.412676,137.175656 L315.213739,137.175656 L315.213739,147.945517 L302.056626,147.945517 L302.056626,137.175656 L301.857689,137.175656 L301.857689,147.945517 L290.899461,147.945517 L290.899461,148.144454 L301.857689,148.144454 L301.857689,160.312966 L290.899461,160.312966 L290.899461,160.511583 L301.857689,160.511583 L301.857689,172.680414 L290.899461,172.680414 L290.899461,172.879031 L301.857689,172.879031 L301.857689,185.047863 L290.899461,185.047863 L290.899461,185.24648 L301.857689,185.24648 L301.857689,196.569266 L302.056626,196.569266 L302.056626,185.24648 L315.213739,185.24648 L315.213739,196.569266 L315.412676,196.569266 L315.412676,185.24648 L328.569789,185.24648 L328.569789,196.569266 L328.768726,196.569266 L328.768726,185.24648 L341.926159,185.24648 L341.926159,196.569266 L342.124776,196.569266 L342.124776,185.24648 L355.282209,185.24648 L355.282209,196.569266 L355.480827,196.569266 L355.480827,185.24648 L368.638259,185.24648 L368.638259,196.569266 L368.836877,196.569266 L368.836877,185.24648 L379.812082,185.24648 L379.812082,185.047863 L368.836877,185.047863 L368.836877,172.879031 L379.812082,172.879031 L379.812082,172.680414 L368.836877,172.680414 L368.836877,160.511583 L379.812082,160.511583 L379.812082,160.312966 L368.836877,160.312966 L368.836877,148.144454 L379.812082,148.144454 Z" id="Fill-38" fill="#272525"></path>
                <path d="M370.378627,145.332482 C368.872019,145.332482 367.650523,146.553979 367.650523,148.060587 C367.650523,148.820778 367.962224,149.50793 368.463893,150.002551 C365.300432,152.726811 362.136972,155.451071 358.973511,158.175011 C358.732928,158.382278 358.492345,158.589224 358.251762,158.796491 C357.78405,158.419759 357.190441,158.193591 356.543333,158.193591 C355.036725,158.193591 353.815229,159.414767 353.815229,160.921695 C353.815229,161.880504 354.311131,162.722385 355.059149,163.208677 C354.366231,164.877062 353.673313,166.545447 352.980075,168.213832 C352.684712,168.925331 352.389349,169.636508 352.093665,170.347686 C351.895368,170.301876 351.689383,170.275287 351.476991,170.275287 C350.469809,170.275287 349.59269,170.822125 349.119852,171.633573 C346.063709,169.70218 343.007887,167.770147 339.951423,165.838434 C337.687186,164.407108 335.422629,162.975782 333.158072,161.544457 C333.283649,161.231154 333.354447,160.889981 333.354447,160.531829 C333.354447,159.025221 332.13295,157.803725 330.626342,157.803725 C329.119734,157.803725 327.898238,159.025221 327.898238,160.531829 C327.898238,160.722758 327.9181,160.908881 327.955581,161.088918 C323.669612,162.838352 319.383964,164.587465 315.097996,166.336899 C314.678017,166.508607 314.257717,166.679994 313.837417,166.851382 C313.417438,165.885205 312.455425,165.208625 311.33484,165.208625 C309.827911,165.208625 308.606735,166.430121 308.606735,167.936729 C308.606735,168.719025 308.937657,169.422514 309.465274,169.919698 C308.828738,170.642088 308.192202,171.364479 307.555666,172.087189 C304.517462,175.536082 301.479259,178.984654 298.441055,182.433547 C298.005379,182.138825 297.480324,181.966797 296.914906,181.966797 C295.408298,181.966797 294.186801,183.188293 294.186801,184.695221 C294.186801,186.201829 295.408298,187.423005 296.914906,187.423005 C298.421514,187.423005 299.64301,186.201829 299.64301,184.695221 C299.64301,184.112824 299.459129,183.574315 299.148068,183.13127 C301.742266,180.186609 304.336464,177.241628 306.930662,174.296967 C308.056373,173.019089 309.182405,171.741211 310.308116,170.463333 C310.625263,170.592434 310.971242,170.664833 311.33484,170.664833 C312.841448,170.664833 314.062944,169.443337 314.062944,167.936729 C314.062944,167.899889 314.058779,167.86433 314.057498,167.82781 C314.119325,167.802502 314.181473,167.777195 314.243301,167.751887 C318.938998,165.83523 323.634694,163.918574 328.330711,162.001917 C328.815722,162.757624 329.661447,163.259933 330.626342,163.259933 C331.417288,163.259933 332.127505,162.921323 332.62597,162.383454 C334.679736,163.681514 336.733503,164.979574 338.78727,166.277955 C342.118914,168.383618 345.450879,170.489602 348.782523,172.595585 C348.762341,172.728851 348.748566,172.864359 348.748566,173.003071 C348.748566,174.51 349.970062,175.731496 351.476991,175.731496 C352.983599,175.731496 354.205095,174.51 354.205095,173.003071 C354.205095,172.06028 353.726492,171.229291 352.999296,170.739155 C353.989499,168.355427 354.979702,165.9717 355.969585,163.588292 C356.154748,163.627695 356.346317,163.6498 356.543333,163.6498 C358.049941,163.6498 359.271437,162.428303 359.271437,160.921695 C359.271437,160.420027 359.133686,159.951995 358.897588,159.548033 C359.457561,159.066226 360.017213,158.584098 360.576865,158.102291 C362.973727,156.038273 365.370269,153.974576 367.767451,151.910558 C368.284176,151.465271 368.801222,151.019984 369.318267,150.574697 C369.644384,150.712448 370.002536,150.788691 370.378627,150.788691 C371.885235,150.788691 373.106731,149.567195 373.106731,148.060587 C373.106731,146.553979 371.885235,145.332482 370.378627,145.332482" id="Fill-39" fill="#1270ED"></path>
            </g>
        </g>
    </g>
</svg>