<?xml version="1.0" encoding="UTF-8"?>
<svg width="40px" height="40px" viewBox="0 0 40 40" version="1.1" xmlns="http://www.w3.org/2000/svg" xmlns:xlink="http://www.w3.org/1999/xlink">
    <title>Shape 9</title>
    <g id="Design" stroke="none" stroke-width="1" fill="none" fill-rule="evenodd">
        <g id="003-Podaci" transform="translate(-195.000000, -1542.000000)" fill="#1270ED" fill-rule="nonzero">
            <g id="Shape-9" transform="translate(195.000000, 1542.000000)">
                <path d="M29.4140011,0.586004124 C29.0395161,0.210157345 28.5305662,-0.000765329058 28.0000021,2.08679724e-06 L12.0000021,2.08679724e-06 C11.469438,-0.000765329058 10.960488,0.210157345 10.5860031,0.586004124 L0.586004124,10.5860031 C0.210157345,10.960488 -0.000765329058,11.469438 2.08679724e-06,12.0000021 L2.08679724e-06,28.0000021 C2.08679724e-06,28.5320012 0.210004163,29.0400011 0.586004124,29.4140011 L10.5860031,39.4140001 C10.960488,39.7898468 11.469438,40.0007695 12.0000021,40.0000021 L28.0000021,40.0000021 C28.5320012,40.0000021 29.0400011,39.79 29.4140011,39.4140001 L39.4140001,29.4140011 C39.7898468,29.0395161 40.0007695,28.5305662 40.0000021,28.0000021 L40.0000021,12.0000021 C40.0007695,11.469438 39.7898468,10.960488 39.4140001,10.5860031 L29.4140011,0.586004124 Z M22.0000023,30.0000015 L18.0000023,30.0000015 L18.0000023,26.0000015 L22.0000023,26.0000015 L22.0000023,30.0000015 Z M22.0000023,22.0000031 L18.0000023,22.0000031 L18.0000023,10.0000031 L22.0000023,10.0000031 L22.0000023,22.0000031 Z" id="Shape"></path>
            </g>
        </g>
    </g>
</svg>