<?xml version="1.0" encoding="UTF-8"?>
<svg width="40px" height="40px" viewBox="0 0 40 40" version="1.1" xmlns="http://www.w3.org/2000/svg" xmlns:xlink="http://www.w3.org/1999/xlink">
    <title>Group 2</title>
    <g id="Design" stroke="none" stroke-width="1" fill="none" fill-rule="evenodd">
        <g id="003-Podaci" transform="translate(-195.000000, -1947.000000)" fill="#1270ED" fill-rule="nonzero">
            <g id="Group-2" transform="translate(195.000000, 1947.000000)">
                <path d="M22.0562434,0 L22.0562434,17.9437566 L40,17.9437566 C39.0575969,8.48563838 31.5143616,0.942403128 22.0562434,0 L22.0562434,0 Z M32.0196501,35.9977944 C36.4088425,32.7154243 39.4265377,27.6966264 40,21.9539827 L23.59216,21.9539827 L32.0196501,35.9977944 Z" id="Shape"></path>
                <path d="M18.0460173,19.9488696 L18.0460173,0 C7.92821695,1.01057697 0,9.57040453 0,19.9488696 C0,31.0050629 8.99493709,40 20.0511304,40 C23.0031758,39.9961327 25.9174244,39.3358894 28.5828864,38.067071 C28.5828864,38.067071 18.0500276,20.1914883 18.0480225,19.9588952 C18.0477846,19.9554815 18.0471107,19.9521122 18.0460173,19.9488696 Z" id="Path"></path>
            </g>
        </g>
    </g>
</svg>