<?xml version="1.0" encoding="UTF-8"?>
<svg width="39px" height="40px" viewBox="0 0 39 40" version="1.1" xmlns="http://www.w3.org/2000/svg" xmlns:xlink="http://www.w3.org/1999/xlink">
    <title>Group 8</title>
    <g id="Design" stroke="none" stroke-width="1" fill="none" fill-rule="evenodd">
        <g id="003-Podaci" transform="translate(-196.000000, -2597.000000)" fill="#1270ED" fill-rule="nonzero">
            <g id="Group-8" transform="translate(196.000000, 2597.000000)">
                <path d="M38.45158,7.19216326 L38.45158,7.19216326 L31.1314874,0.496636699 C30.4148227,-0.165545566 29.3095257,-0.165545566 28.592861,0.496636699 L21.272836,7.19216326 C20.792452,7.63143394 20.631133,8.32062378 20.8666528,8.92746638 C21.1021725,9.53430899 21.6861833,9.93423126 22.3371268,9.93442604 L25.2428666,9.93442604 C25.4239914,9.93468678 25.5707466,10.0814722 25.57097,10.262597 L25.57097,29.8118931 C25.5719018,30.6651197 26.2634056,31.3565328 27.1166324,31.3573526 L32.4460644,31.3573526 C33.2991857,31.3564958 33.9906158,30.665217 33.9916592,29.8120959 L33.9916592,10.262597 C33.9918827,10.0814459 34.138679,9.93464955 34.3198302,9.93442604 L37.3872892,9.93442604 C38.0382327,9.93423126 38.6222435,9.53430899 38.8577632,8.92746638 C39.093283,8.32062378 38.931964,7.63143394 38.45158,7.19216326 L38.45158,7.19216326 Z" id="Path"></path>
                <path d="M33.3155755,37.4646864 L26.2471889,37.4646864 C25.5937552,37.4646864 25.0640425,37.9943991 25.0640425,38.6478328 C25.0640425,39.3012664 25.5937552,39.8309791 26.2471889,39.8309791 L33.3155755,39.8309791 C33.9690092,39.8309791 34.4987219,39.3012664 34.4987219,38.6478328 C34.4987219,37.9943991 33.9690092,37.4646864 33.3155755,37.4646864 Z" id="Path"></path>
                <path d="M33.3155755,33.7274314 L26.2471889,33.7274314 C25.5937552,33.7274314 25.0640425,34.257144 25.0640425,34.9105777 C25.0640425,35.5640114 25.5937552,36.093724 26.2471889,36.093724 L33.3155755,36.093724 C33.9690092,36.093724 34.4987219,35.5640114 34.4987219,34.9105777 C34.4987219,34.257144 33.9690092,33.7274314 33.3155755,33.7274314 L33.3155755,33.7274314 Z" id="Path"></path>
                <rect id="Rectangle" x="0" y="23.9892581" width="8.42068914" height="16.0107419" rx="2.4648"></rect>
                <path d="M13.8342935,16.4918963 L18.9224313,16.4918963 C19.8427646,16.4918963 20.5888422,17.2379739 20.5888422,18.1583072 L20.5888422,38.3335891 C20.5888422,39.2539224 19.8427646,40 18.9224313,40 L13.8342935,40 C12.9139602,40 12.1678826,39.2539224 12.1678826,38.3335891 L12.1678826,18.1580368 C12.1678826,17.716102 12.343459,17.2922717 12.6559795,16.979802 C12.9684999,16.6673322 13.3923588,16.4918963 13.8342935,16.4918963 Z" id="Path"></path>
            </g>
        </g>
    </g>
</svg>