<?xml version="1.0" encoding="UTF-8"?>
<svg width="40px" height="38px" viewBox="0 0 40 38" version="1.1" xmlns="http://www.w3.org/2000/svg" xmlns:xlink="http://www.w3.org/1999/xlink">
    <title>Shape 5</title>
    <g id="Design" stroke="none" stroke-width="1" fill="none" fill-rule="evenodd">
        <g id="003-Podaci" transform="translate(-195.000000, -1147.000000)" fill="#1270ED" fill-rule="nonzero">
            <g id="Shape-5" transform="translate(195.000000, 1147.000000)">
                <path d="M36,8 L30,8 L30,4 C30,1.794 28.206,0 26,0 L14,0 C11.794,0 10,1.794 10,4 L10,8 L4,8 C1.794,8 0,9.794 0,12 L0,18 L40,18 L40,12 C40,9.794 38.206,8 36,8 Z M14,4 L26,4 L26,8 L14,8 L14,4 Z M24,24 L16,24 L16,20 L0,20 L0,34 C0,36.206 1.794,38 4,38 L36,38 C38.206,38 40,36.206 40,34 L40,20 L24,20 L24,24 Z" id="Shape"></path>
            </g>
        </g>
    </g>
</svg>