<?xml version="1.0" encoding="UTF-8"?>
<svg width="38px" height="40px" viewBox="0 0 38 40" version="1.1" xmlns="http://www.w3.org/2000/svg" xmlns:xlink="http://www.w3.org/1999/xlink">
    <title>Group 7</title>
    <g id="Design" stroke="none" stroke-width="1" fill="none" fill-rule="evenodd">
        <g id="003-Podaci" transform="translate(-196.000000, -3205.000000)" fill="#1270ED" fill-rule="nonzero">
            <g id="Group-7" transform="translate(196.000000, 3205.000000)">
                <path d="M33.9796783,0 L14.0176783,0 C11.7956783,0 9.99767834,1.798 9.99767834,4.02 L9.99767834,15.294 L0.593678339,24.578 C0.0174114117,25.1479374 -0.15790696,26.0093192 0.149743158,26.7591616 C0.457393276,27.509004 1.18717772,27.9990345 1.99767834,28 L1.99767834,38 C1.99767834,39.1045695 2.89310884,40 3.99767834,40 L35.9976783,40 C37.1022478,40 37.9976783,39.1045695 37.9976783,38 L37.9976783,4.018 C37.9976783,1.798 36.2016783,0 33.9796783,0 Z M17.8416783,26.222 L17.8416783,36 L5.99767834,36 L5.99767834,24.864 L11.9716783,18.966 L17.8416783,24.972 L17.8416783,26.222 L17.8416783,26.222 Z M21.9976783,14 L17.9976783,14 L17.9976783,10 L21.9976783,10 L21.9976783,14 Z M29.9976783,30 L25.9976783,30 L25.9976783,26 L29.9976783,26 L29.9976783,30 Z M29.9976783,22 L25.9976783,22 L25.9976783,18 L29.9976783,18 L29.9976783,22 Z M29.9976783,14 L25.9976783,14 L25.9976783,10 L29.9976783,10 L29.9976783,14 Z" id="Shape"></path>
                <polygon id="Path" points="9.99767834 26 13.9976783 26 13.9976783 30 9.99767834 30"></polygon>
            </g>
        </g>
    </g>
</svg>