<?xml version="1.0" encoding="UTF-8"?>
<svg width="40px" height="32px" viewBox="0 0 40 32" version="1.1" xmlns="http://www.w3.org/2000/svg" xmlns:xlink="http://www.w3.org/1999/xlink">
    <title>Shape 6</title>
    <g id="Design" stroke="none" stroke-width="1" fill="none" fill-rule="evenodd">
        <g id="003-Podaci" transform="translate(-195.000000, -703.000000)" fill="#1270ED" fill-rule="nonzero">
            <g id="Shape-6" transform="translate(195.000000, 703.000000)">
                <path d="M0.329984602,31.1005488 C0.701967245,31.6605227 1.32793804,31.9985069 1.99990668,31.9985069 L31.9985069,31.9985069 C32.7984696,31.9985069 33.5224358,31.5225291 33.8364211,30.7865634 L39.8361412,16.7872167 C40.1032092,16.1694127 40.0409169,15.4586146 39.6704602,14.8966814 C39.3000035,14.3347482 38.6712821,13.9973709 37.9982269,13.9993468 L35.9983202,13.9993468 L35.9983202,7.99962672 C35.9983202,5.79372965 34.2044039,3.99981336 31.9985069,3.99981336 L18.6891279,3.99981336 L13.5773665,0 L3.99981336,0 C1.79391629,0 0,1.79391629 0,3.99981336 L0,29.9986002 L0.0139993468,29.9986002 C0.00954177744,30.388881 0.119383448,30.7719364 0.329984602,31.1005488 Z M31.9985069,7.99962672 L31.9985069,13.9993468 L7.99962672,13.9993468 C7.19966405,13.9993468 6.47569783,14.4753245 6.16171248,15.2112902 L3.99981336,20.2570548 L3.99981336,7.99962672 L31.9985069,7.99962672 Z" id="Shape"></path>
            </g>
        </g>
    </g>
</svg>