<?xml version="1.0" encoding="UTF-8"?>
<svg width="40px" height="40px" viewBox="0 0 40 40" version="1.1" xmlns="http://www.w3.org/2000/svg" xmlns:xlink="http://www.w3.org/1999/xlink">
    <title>Shape 4</title>
    <g id="Design" stroke="none" stroke-width="1" fill="none" fill-rule="evenodd">
        <g id="001-Home" transform="translate(-195.000000, -1581.000000)" fill="#1270ED" fill-rule="nonzero">
            <g id="Shape-4" transform="translate(195.000000, 1581.000000)">
                <path d="M22.5020675,0 C12.8430797,0.0117074595 5.01584237,7.83894479 5.00413491,17.4979325 C5.01647712,21.2663221 6.25675439,24.9280067 8.53705081,27.9282002 L0.737055747,35.7281952 C0.102701949,36.3590286 -0.146118999,37.2807979 0.0846255992,38.1451545 C0.315370198,39.0095111 0.990488908,39.6846298 1.85484552,39.9153744 C2.71920213,40.146119 3.64097145,39.8972981 4.27180477,39.2629443 L12.0717998,31.4629492 C15.0719933,33.7432456 18.7336779,34.9835229 22.5020675,34.9958651 C32.1659088,34.9958651 40,27.1617738 40,17.4979325 C40,7.83409125 32.1659088,0 22.5020675,0 Z M22.5020675,29.9964558 C15.5993237,29.9964558 10.0035442,24.4006763 10.0035442,17.4979325 C10.0035442,10.5951888 15.5993237,4.9994093 22.5020675,4.9994093 C29.4048112,4.9994093 35.0005907,10.5951888 35.0005907,17.4979325 C34.9924867,24.3973168 29.4014517,29.9883518 22.5020675,29.9964558 Z" id="Shape"></path>
            </g>
        </g>
    </g>
</svg>