<?xml version="1.0" encoding="UTF-8"?>
<svg width="16px" height="16px" viewBox="0 0 16 16" version="1.1" xmlns="http://www.w3.org/2000/svg" xmlns:xlink="http://www.w3.org/1999/xlink">
    <title>Path</title>
    <g id="Design" stroke="none" stroke-width="1" fill="none" fill-rule="evenodd">
        <g id="005-Naknade" transform="translate(-665.000000, -1238.000000)" fill="#FF5252" fill-rule="nonzero">
            <path d="M680.728812,1241.27465 L676.005169,1246 L680.728812,1250.72535 C681.082696,1251.07937 681.082696,1251.65657 680.728812,1252.01828 L679.013215,1253.73449 C678.659331,1254.0885 678.082339,1254.0885 677.720755,1253.73449 L672.997112,1249.00914 L668.273469,1253.73449 C667.919586,1254.0885 667.342594,1254.0885 666.98101,1253.73449 L665.265413,1252.01828 C664.911529,1251.66426 664.911529,1251.08706 665.265413,1250.72535 L669.989056,1246 L665.265413,1241.27465 C664.911529,1240.92063 664.911529,1240.34343 665.265413,1239.98172 L666.98101,1238.26551 C667.334894,1237.9115 667.911886,1237.9115 668.273469,1238.26551 L672.997112,1242.99086 L677.720755,1238.26551 C678.074639,1237.9115 678.651631,1237.9115 679.013215,1238.26551 L680.728812,1239.98172 C681.090396,1240.33574 681.090396,1240.91294 680.728812,1241.27465 Z" id="Path"></path>
        </g>
    </g>
</svg>