<?xml version="1.0" encoding="UTF-8"?>
<svg width="30px" height="40px" viewBox="0 0 30 40" version="1.1" xmlns="http://www.w3.org/2000/svg" xmlns:xlink="http://www.w3.org/1999/xlink">
    <title>Group 6</title>
    <g id="Design" stroke="none" stroke-width="1" fill="none" fill-rule="evenodd">
        <g id="003-Podaci" transform="translate(-200.000000, -3002.000000)" fill="#1270ED" fill-rule="nonzero">
            <g id="Group-6" transform="translate(200.000000, 3002.000000)">
                <path d="M21.8181818,40 L21.8181818,10.9090909 C21.8181818,8.90363636 20.1872727,7.27272727 18.1818182,7.27272727 L3.63636364,7.27272727 C1.63090909,7.27272727 0,8.90363636 0,10.9090909 L0,40 L10.9090909,33.4527273 L21.8181818,40 Z" id="Path"></path>
                <path d="M19.2472727,3.63636364 L21.8181818,3.63636364 C23.8236364,3.63636364 25.4545455,5.26727273 25.4545455,7.27272727 L25.4545455,26.26 L29.0909091,30.7854545 L29.0909091,3.63636364 C29.0909091,1.63090909 27.46,0 25.4545455,0 L10.9090909,0 C8.90363636,0 7.27272727,1.63090909 7.27272727,3.63636364 L19.2472727,3.63636364 L19.2472727,3.63636364 Z" id="Path"></path>
            </g>
        </g>
    </g>
</svg>