<?xml version="1.0" encoding="UTF-8"?>
<svg width="33px" height="40px" viewBox="0 0 33 40" version="1.1" xmlns="http://www.w3.org/2000/svg" xmlns:xlink="http://www.w3.org/1999/xlink">
    <title>Shape 11</title>
    <g id="Design" stroke="none" stroke-width="1" fill="none" fill-rule="evenodd">
        <g id="003-Podaci" transform="translate(-199.000000, -505.000000)" fill="#1270ED" fill-rule="nonzero">
            <g id="Shape-11" transform="translate(199.000000, 505.000000)">
                <path d="M0,5 C0,2.23858 2.23858,0 5,0 L28,0 C30.7614,0 33,2.23858 33,5 L33,33.5 C33,34.3284 32.3284,35 31.5,35 L3,35 C3,36.1046 3.89544,37 5,37 L31.5,37 C32.3284,37 33,37.6716 33,38.5 C33,39.3284 32.3284,40 31.5,40 L5,40 C2.23858,40 0,37.7614 0,35 L0,5 Z M16.5,12 C17.6046,12 18.5,11.10456 18.5,10 C18.5,8.89544 17.6046,8 16.5,8 C15.3954,8 14.5,8.89544 14.5,10 C14.5,11.10456 15.3954,12 16.5,12 Z M15,15.5 L15,25.5 C15,26.3284 15.6716,27 16.5,27 C17.3284,27 18,26.3284 18,25.5 L18,15.5 C18,14.67158 17.3284,14 16.5,14 C15.6716,14 15,14.67158 15,15.5 Z" id="Shape"></path>
            </g>
        </g>
    </g>
</svg>