<?xml version="1.0" encoding="UTF-8"?>
<svg width="19px" height="18px" viewBox="0 0 19 18" version="1.1" xmlns="http://www.w3.org/2000/svg" xmlns:xlink="http://www.w3.org/1999/xlink">
    <title>Group 4</title>
    <g id="Design" stroke="none" stroke-width="1" fill="none" fill-rule="evenodd">
        <g id="005-Naknade" transform="translate(-137.000000, -57.000000)" fill="#FFFFFF" fill-rule="nonzero">
            <g id="Group-4" transform="translate(137.000000, 57.000000)">
                <path d="M18.6808713,7.73789155 L10.156209,0.246638929 C9.78203649,-0.0822249061 9.21779037,-0.0821891172 8.84376626,0.246603141 L0.319066932,7.73792734 C0.0193355358,8.00133335 -0.0796719378,8.40717902 0.0667611547,8.77183172 C0.213231356,9.13648441 0.569851229,9.37208248 0.975343982,9.37208248 L2.33688229,9.37208248 L2.33688229,16.877758 C2.33688229,17.1753424 2.58707284,17.4166667 2.89563624,17.4166667 L7.56821008,17.4166667 C7.87677348,17.4166667 8.12696403,17.1753782 8.12696403,16.877758 L8.12696403,12.3205477 L10.8731226,12.3205477 L10.8731226,16.8777938 C10.8731226,17.1753782 11.1233131,17.4166667 11.4318765,17.4166667 L16.1042277,17.4166667 C16.4127911,17.4166667 16.6629817,17.175414 16.6629817,16.8777938 L16.6629817,9.37208248 L18.0247798,9.37208248 C18.4302354,9.37208248 18.7868924,9.13644863 18.9333626,8.77183172 C19.0796101,8.40714323 18.9806027,8.00133335 18.6808713,7.73789155 Z" id="Path"></path>
                <path d="M16.517031,1.0756163 L12.764581,1.0756163 L17.075785,4.85620832 L17.075785,1.61445337 C17.075785,1.316869 16.8256315,1.0756163 16.517031,1.0756163 Z" id="Path"></path>
            </g>
        </g>
    </g>
</svg>