<?xml version="1.0" encoding="UTF-8"?>
<svg width="42px" height="39px" viewBox="0 0 42 39" version="1.1" xmlns="http://www.w3.org/2000/svg" xmlns:xlink="http://www.w3.org/1999/xlink">
    <title>Group 9</title>
    <g id="Design" stroke="none" stroke-width="1" fill="none" fill-rule="evenodd">
        <g id="003-Podaci" transform="translate(-194.000000, -2801.000000)" fill="#1270ED">
            <g id="Group-9" transform="translate(194.000000, 2801.000000)">
                <rect id="Rectangle" x="0" y="2" width="42" height="2" rx="1"></rect>
                <rect id="Rectangle" x="20" y="0" width="2" height="10" rx="1"></rect>
                <g id="Group" transform="translate(14.000000, 28.000000)">
                    <rect id="Rectangle" transform="translate(4.242641, 4.242641) rotate(45.000000) translate(-4.242641, -4.242641) " x="3.24264069" y="-0.757359313" width="2" height="10" rx="1"></rect>
                    <rect id="Rectangle" transform="translate(10.242641, 4.242641) scale(-1, 1) rotate(45.000000) translate(-10.242641, -4.242641) " x="9.24264069" y="-0.757359313" width="2" height="10" rx="1"></rect>
                </g>
                <path d="M1,2 L1,26.6153846 C1,28.3153846 2.37692308,29.6923077 4.07692308,29.6923077 L37.9230769,29.6923077 C39.6230769,29.6923077 41,28.3153846 41,26.6153846 L41,2 L1,2 Z M34.3953846,10.78 L25.1646154,20.0107692 C24.5630769,20.6123077 23.5907692,20.6123077 22.9892308,20.0107692 L19.4615385,16.4830769 L14.3953846,21.5492308 C14.0953846,21.8492308 13.7015385,22 13.3076923,22 C12.9138462,22 12.52,21.8492308 12.22,21.5492308 L9.14307692,18.4723077 C8.54153846,17.8707692 8.54153846,16.8984615 9.14307692,16.2969231 C9.74461538,15.6953846 10.7169231,15.6953846 11.3184615,16.2969231 L13.3076923,18.2861538 L18.3738462,13.22 C18.9753846,12.6184615 19.9476923,12.6184615 20.5492308,13.22 L24.0769231,16.7476923 L32.22,8.60461538 C32.8215385,8.00307692 33.7938462,8.00307692 34.3953846,8.60461538 C34.9969231,9.20615385 34.9969231,10.1784615 34.3953846,10.78 Z" id="Shape" fill-rule="nonzero"></path>
                <circle id="Oval" fill-rule="nonzero" cx="27.9230769" cy="36.6923077" r="2.30769231"></circle>
                <circle id="Oval" fill-rule="nonzero" cx="14.0769231" cy="36.6923077" r="2.30769231"></circle>
            </g>
        </g>
    </g>
</svg>