<?xml version="1.0" encoding="UTF-8"?>
<svg width="58px" height="40px" viewBox="0 0 58 40" version="1.1" xmlns="http://www.w3.org/2000/svg" xmlns:xlink="http://www.w3.org/1999/xlink">
    <title>Shape 10</title>
    <g id="Design" stroke="none" stroke-width="1" fill="none" fill-rule="evenodd">
        <g id="003-Podaci" transform="translate(-186.000000, -3601.000000)" fill="#1270ED" fill-rule="nonzero">
            <g id="Shape-10" transform="translate(186.000000, 3601.000000)">
                <path d="M8.57142857,17.1428571 C11.7232143,17.1428571 14.2857143,14.5803571 14.2857143,11.4285714 C14.2857143,8.27678571 11.7232143,5.71428571 8.57142857,5.71428571 C5.41964286,5.71428571 2.85714286,8.27678571 2.85714286,11.4285714 C2.85714286,14.5803571 5.41964286,17.1428571 8.57142857,17.1428571 Z M48.5714286,17.1428571 C51.7232143,17.1428571 54.2857143,14.5803571 54.2857143,11.4285714 C54.2857143,8.27678571 51.7232143,5.71428571 48.5714286,5.71428571 C45.4196429,5.71428571 42.8571429,8.27678571 42.8571429,11.4285714 C42.8571429,14.5803571 45.4196429,17.1428571 48.5714286,17.1428571 Z M51.4285714,20 L45.7142857,20 C44.1428571,20 42.7232143,20.6339286 41.6875,21.6607143 C45.2857143,23.6339286 47.8392857,27.1964286 48.3928571,31.4285714 L54.2857143,31.4285714 C55.8660714,31.4285714 57.1428571,30.1517857 57.1428571,28.5714286 L57.1428571,25.7142857 C57.1428571,22.5625 54.5803571,20 51.4285714,20 Z M28.5714286,20 C34.0982143,20 38.5714286,15.5267857 38.5714286,10 C38.5714286,4.47321429 34.0982143,0 28.5714286,0 C23.0446429,0 18.5714286,4.47321429 18.5714286,10 C18.5714286,15.5267857 23.0446429,20 28.5714286,20 Z M35.4285714,22.8571429 L34.6875,22.8571429 C32.8303571,23.75 30.7678571,24.2857143 28.5714286,24.2857143 C26.375,24.2857143 24.3214286,23.75 22.4553571,22.8571429 L21.7142857,22.8571429 C16.0357143,22.8571429 11.4285714,27.4642857 11.4285714,33.1428571 L11.4285714,35.7142857 C11.4285714,38.0803571 13.3482143,40 15.7142857,40 L41.4285714,40 C43.7946429,40 45.7142857,38.0803571 45.7142857,35.7142857 L45.7142857,33.1428571 C45.7142857,27.4642857 41.1071429,22.8571429 35.4285714,22.8571429 Z M15.4553571,21.6607143 C14.4196429,20.6339286 13,20 11.4285714,20 L5.71428571,20 C2.5625,20 0,22.5625 0,25.7142857 L0,28.5714286 C0,30.1517857 1.27678571,31.4285714 2.85714286,31.4285714 L8.74107143,31.4285714 C9.30357143,27.1964286 11.8571429,23.6339286 15.4553571,21.6607143 Z" id="Shape"></path>
            </g>
        </g>
    </g>
</svg>