<?xml version="1.0" encoding="UTF-8"?>
<svg width="40px" height="35px" viewBox="0 0 40 35" version="1.1" xmlns="http://www.w3.org/2000/svg" xmlns:xlink="http://www.w3.org/1999/xlink">
    <title>Group 2</title>
    <g id="Design" stroke="none" stroke-width="1" fill="none" fill-rule="evenodd">
        <g id="001-Home" transform="translate(-595.000000, -1189.000000)" fill="#1270ED" fill-rule="nonzero">
            <g id="Group-2" transform="translate(595.000000, 1189.000000)">
                <path d="M1.9047619,5.23809524 C1.9047619,2.34518095 4.24994286,0 7.14285714,0 L34.7619048,0 C37.6548571,0 40,2.34518095 40,5.23809524 L40,25.2380952 C40,28.1310476 37.6548571,30.4761905 34.7619048,30.4761905 L21.8569524,30.4761905 L17.9529524,26.5721905 C18.6535238,25.1668571 19.047619,23.5819048 19.047619,21.9047619 L27.1428571,21.9047619 C27.9318095,21.9047619 28.5714286,21.2651429 28.5714286,20.4761905 C28.5714286,19.6872381 27.9318095,19.047619 27.1428571,19.047619 L18.6533333,19.047619 C18.3634286,18.0226667 17.9215238,17.0617143 17.3533333,16.1904762 L30.952381,16.1904762 C31.7413333,16.1904762 32.3809524,15.5508571 32.3809524,14.7619048 C32.3809524,13.9729524 31.7413333,13.3333333 30.952381,13.3333333 L14.5963429,13.3333333 C12.8922095,12.1333333 10.8141143,11.4285714 8.57142857,11.4285714 C6.0388,11.4285714 3.71607619,12.3272381 1.9047619,13.8232381 L1.9047619,5.23809524 Z M10.952381,7.61904762 C10.1634095,7.61904762 9.52380952,8.25864762 9.52380952,9.04761905 C9.52380952,9.83659048 10.1634095,10.4761905 10.952381,10.4761905 L23.3333333,10.4761905 C24.1222857,10.4761905 24.7619048,9.83659048 24.7619048,9.04761905 C24.7619048,8.25864762 24.1222857,7.61904762 23.3333333,7.61904762 L10.952381,7.61904762 Z" id="Shape"></path>
                <path d="M8.57142857,30.4761905 C10.4226095,30.4761905 12.1367429,29.8893333 13.5379048,28.891619 L18.5137143,33.8672381 C19.071619,34.4251429 19.976,34.4251429 20.5339048,33.8672381 C21.0918095,33.3093333 21.0918095,32.4049524 20.5339048,31.8470476 L15.5582095,26.8712381 C16.556019,25.4700952 17.1428571,23.756 17.1428571,21.9047619 C17.1428571,17.1708571 13.3052952,13.3333333 8.57142857,13.3333333 C3.8375619,13.3333333 0,17.1708571 0,21.9047619 C0,26.6386667 3.8375619,30.4761905 8.57142857,30.4761905 Z M8.57142857,27.6190476 C5.41552381,27.6190476 2.85714286,25.0607619 2.85714286,21.9047619 C2.85714286,18.7487619 5.41552381,16.1904762 8.57142857,16.1904762 C11.7273333,16.1904762 14.2857143,18.7487619 14.2857143,21.9047619 C14.2857143,25.0607619 11.7273333,27.6190476 8.57142857,27.6190476 Z" id="Shape"></path>
            </g>
        </g>
    </g>
</svg>