<?xml version="1.0" encoding="UTF-8"?>
<svg width="41px" height="40px" viewBox="0 0 41 40" version="1.1" xmlns="http://www.w3.org/2000/svg" xmlns:xlink="http://www.w3.org/1999/xlink">
    <title>Shape 3</title>
    <g id="Design" stroke="none" stroke-width="1" fill="none" fill-rule="evenodd">
        <g id="001-Home" transform="translate(-995.000000, -1186.000000)" fill="#1270ED" fill-rule="nonzero">
            <g id="Shape-3" transform="translate(995.000000, 1186.000000)">
                <path d="M19.821958,23.994327 L35.5125745,23.9949271 C37.9982207,23.9949271 40.0133824,26.0100888 40.0133824,28.495735 L40.0133824,30.30626 C40.0133824,32.4938526 39.0582109,34.5726258 37.398313,35.9976816 C34.2667509,38.6861642 29.7853465,40 24.0043088,40 L23.6462445,39.9977996 C24.250553,38.7805811 24.1027264,37.2849126 23.203165,36.2043187 L22.9821253,35.9624753 L18.5215246,31.5138767 C19.4822971,29.8593798 20.0035906,27.9660399 20.0035906,25.9954862 C20.0035906,25.3119635 19.9413795,24.6432435 19.821958,23.994327 Z M9.00161579,16.9938704 C13.9730682,16.9938704 18.0032316,21.0239938 18.0032316,25.9954862 C18.0032316,28.1834789 17.2224914,30.1890389 15.9246385,31.749119 L21.5692717,37.3787295 C22.155977,37.9638345 22.1571772,38.913805 21.5718722,39.5003103 C21.0399767,40.033606 20.2064271,40.0830149 19.6187216,39.6479368 L19.4502913,39.5029108 L13.6429489,33.7098709 C12.2876856,34.5270176 10.6995406,34.997102 9.00161579,34.997102 C4.03016341,34.997102 0,30.9669786 0,25.9954862 C0,21.0239938 4.03016341,16.9938704 9.00161579,16.9938704 Z M9.00161579,19.994409 C5.68732087,19.994409 3.0005386,22.6810913 3.0005386,25.9954862 C3.0005386,29.3096811 5.68732087,31.9965634 9.00161579,31.9965634 C12.3159107,31.9965634 15.002693,29.3096811 15.002693,25.9954862 C15.002693,22.6810913 12.3159107,19.994409 9.00161579,19.994409 Z M24.0043088,0 C29.5281003,0 34.0061041,4.47796379 34.0061041,10.0017953 C34.0061041,15.5256469 29.5281003,20.0036106 24.0043088,20.0036106 C18.4805173,20.0036106 14.0025135,15.5256469 14.0025135,10.0017953 C14.0025135,4.47796379 18.4805173,0 24.0043088,0 Z" id="Shape"></path>
            </g>
        </g>
    </g>
</svg>