<?xml version="1.0" encoding="UTF-8"?>
<svg width="19px" height="21px" viewBox="0 0 19 21" version="1.1" xmlns="http://www.w3.org/2000/svg" xmlns:xlink="http://www.w3.org/1999/xlink">
    <title>Shape 5</title>
    <g id="Design" stroke="none" stroke-width="1" fill="none" fill-rule="evenodd">
        <g id="001-Home" transform="translate(-443.000000, -646.000000)" fill="#FFFFFF" fill-rule="nonzero">
            <g id="Shape-5" transform="translate(443.000000, 646.000000)">
                <path d="M8.48669,15.86012 L12.35159,11.99532 L2.24887,11.99532 C1.00685,11.99532 0,13.00212 0,14.24422 L0,15.16412 C0,15.73622 0.1784,16.29402 0.51036,16.75992 C1.89812,18.70762 4.08011,19.77082 6.99599,19.96422 C6.99189,19.78142 7.01209,19.59332 7.05969,19.40292 L7.51739,17.57222 C7.67939,16.92422 8.01439,16.33242 8.48669,15.86012 Z M7.99649,-3.55271368e-15 C10.75789,-3.55271368e-15 12.99649,2.23858 12.99649,5 C12.99649,7.76143 10.75789,10.00002 7.99649,10.00002 C5.23503,10.00002 2.99645,7.76143 2.99645,5 C2.99645,2.23858 5.23503,-3.55271368e-15 7.99649,-3.55271368e-15 Z M15.09599,10.66462 L9.19349,16.56702 C8.84939,16.91112 8.60529,17.34232 8.48719,17.81452 L8.02949,19.64522 C7.83049,20.44132 8.55169,21.16252 9.34779,20.96342 L11.17849,20.50572 C11.65059,20.38772 12.08179,20.14362 12.42599,19.79942 L18.32839,13.89702 C19.22099,13.00442 19.22099,11.55722 18.32839,10.66462 C17.43579,9.77192 15.98859,9.77192 15.09599,10.66462 Z" id="Shape"></path>
            </g>
        </g>
    </g>
</svg>