<?xml version="1.0" encoding="UTF-8"?>
<svg width="40px" height="34px" viewBox="0 0 40 34" version="1.1" xmlns="http://www.w3.org/2000/svg" xmlns:xlink="http://www.w3.org/1999/xlink">
    <title>Shape 2</title>
    <g id="Design" stroke="none" stroke-width="1" fill="none" fill-rule="evenodd">
        <g id="001-Home" transform="translate(-195.000000, -1189.000000)" fill="#1270ED" fill-rule="nonzero">
            <g id="Shape-2" transform="translate(195.000000, 1189.000000)">
                <path d="M9.41261985,0.585680434 C8.63169261,-0.195226811 7.36558785,-0.195226811 6.58466061,0.585680434 L3.99932012,3.17104092 L3.41363968,2.58534049 C2.63271244,1.80443325 1.36660768,1.80443325 0.585680434,2.58534049 C-0.195226811,3.36626773 -0.195226811,4.6323725 0.585680434,5.41329974 L2.58534049,7.4129598 C3.36626773,8.19386704 4.6323725,8.19386704 5.41329974,7.4129598 L9.41261985,3.41363968 C10.1935271,2.63271244 10.1935271,1.36660768 9.41261985,0.585680434 Z M15.9963006,27.9818431 L38.0003399,27.9818431 C39.1047522,27.9818431 40,28.8770909 40,29.9815031 C40,31.0069288 39.2281312,31.8521851 38.2337003,31.9677655 L38.0003399,31.9811632 L15.9963006,31.9811632 C14.8919284,31.9811632 13.9966406,31.0859154 13.9966406,29.9815031 C13.9966406,28.9560775 14.7685893,28.1108212 15.7631003,27.9952408 L15.9963006,27.9818431 Z M15.9963006,15.9972805 L38.0003399,15.9972805 C39.1047522,15.9972805 40,16.8925283 40,17.9969405 C40,19.0223662 39.2281312,19.8676225 38.2337003,19.9832029 L38.0003399,19.9966006 L15.9963006,19.9966006 C14.8919284,19.9966006 13.9966406,19.1013528 13.9966406,17.9969405 C13.9966406,16.9715148 14.7685893,16.1262585 15.7631003,16.0106782 L15.9963006,15.9972805 Z M15.9963006,3.9994001 L38.0003399,3.9994001 C39.1047522,3.9994001 40,4.89466791 40,5.99906016 C40,7.02454583 39.2281312,7.86976214 38.2337003,7.98526251 L38.0003399,7.99872022 L15.9963006,7.99872022 C14.8919284,7.99872022 13.9966406,7.10343242 13.9966406,5.99906016 C13.9966406,4.9735545 14.7685893,4.12835818 15.7631003,4.01285781 L15.9963006,3.9994001 Z M6.58466061,26.5812812 C7.36558785,25.8004139 8.63169261,25.8004139 9.41261985,26.5812812 C10.1935271,27.3621484 10.1935271,28.6283332 9.41261985,29.4092004 L5.41329974,33.4085206 C4.6323725,34.1893878 3.36626773,34.1893878 2.58534049,33.4085206 L0.585680434,31.4088605 C-0.195226811,30.6279932 -0.195226811,29.3618085 0.585680434,28.5809412 C1.36660768,27.800074 2.63271244,27.800074 3.41363968,28.5809412 L3.99932012,29.1666417 L6.58466061,26.5812812 Z" id="Shape"></path>
            </g>
        </g>
    </g>
</svg>