<?xml version="1.0" encoding="UTF-8"?>
<svg width="48px" height="24px" viewBox="0 0 48 24" version="1.1" xmlns="http://www.w3.org/2000/svg" xmlns:xlink="http://www.w3.org/1999/xlink">
    <title>Path 2</title>
    <g id="Design" stroke="none" stroke-width="1" fill="none" fill-rule="evenodd">
        <g id="001-Home" transform="translate(-991.000000, -1589.000000)" fill="#1270ED" fill-rule="nonzero">
            <g id="Path-2" transform="translate(991.000000, 1589.000000)">
                <path d="M44.9986444,0 L32.9973518,0 C31.3403191,0 29.9970287,1.34329091 29.9970287,3.00032363 C29.9970287,4.65735634 31.3403191,6.00064677 32.9973518,6.00064677 L37.7556643,6.00064677 L26.9967055,16.7596055 L17.1167414,6.87964144 C16.5542262,6.31684914 15.7911255,6.00065241 14.995413,6.00065241 C14.1997004,6.00065241 13.4365997,6.31684914 12.8740845,6.87964144 L0.872791902,18.880934 C-0.293227375,20.0534605 -0.290590949,21.948419 0.878686444,23.1176964 C2.04796384,24.2869738 3.94292239,24.2896102 5.11544885,23.123591 L14.995413,13.2436269 L24.8753771,23.123591 C25.4378923,23.6863833 26.2009929,24.00258 26.9967055,24.00258 C27.7924181,24.00258 28.5555188,23.6863833 29.118034,23.123591 L41.9983212,10.2433037 L41.9983212,15.0016162 C41.9983212,16.6586489 43.3416117,18.0019393 44.9986444,18.0019393 C46.6556771,18.0019393 47.998968,16.6586489 47.998968,15.0016162 L47.998968,3.00032363 C47.998968,2.20445016 47.6834593,1.44104394 47.1206917,0.878276332 C46.5579241,0.315508719 45.7945179,-0.000450895779 44.9986444,0 L44.9986444,0 Z" id="Path"></path>
            </g>
        </g>
    </g>
</svg>