<svg version="1.2" xmlns="http://www.w3.org/2000/svg" xmlns:xlink="http://www.w3.org/1999/xlink" overflow="visible" preserveAspectRatio="none" viewBox="0 0 15.999540000000025 19.99641" width="15.999540000000025" height="19.99641"><g transform="translate(0, 0)"><g transform="translate(0, 0) rotate(0)"><path d="M13.75064,11.99531c1.242,0 2.2489,1.0068 2.2489,2.2489v0.9184c0,0.5734 -0.1793,1.1324 -0.5126,1.5989c-1.5459,2.1633 -4.0702,3.2349 -7.4905,3.2349c-3.42095,0 -5.94391,-1.0721 -7.48607,-3.2365c-0.33196,-0.4659 -0.51037,-1.0237 -0.51037,-1.5958v-0.9199c0,-1.2421 1.00686,-2.2489 2.24888,-2.2489zM7.99644,0c2.7614,0 5,2.23858 5,5c0,2.76143 -2.2386,5.00001 -5,5.00001c-2.7614,0 -4.99998,-2.23858 -4.99998,-5.00001c0,-2.76142 2.23858,-5 4.99998,-5z" style="stroke-width: 0; stroke-linecap: butt; stroke-linejoin: miter; fill: rgb(0, 191, 154);" vector-effect="non-scaling-stroke"/></g><defs><path id="path-166124906408788857" d="M13.75064,11.99531c1.242,0 2.2489,1.0068 2.2489,2.2489v0.9184c0,0.5734 -0.1793,1.1324 -0.5126,1.5989c-1.5459,2.1633 -4.0702,3.2349 -7.4905,3.2349c-3.42095,0 -5.94391,-1.0721 -7.48607,-3.2365c-0.33196,-0.4659 -0.51037,-1.0237 -0.51037,-1.5958v-0.9199c0,-1.2421 1.00686,-2.2489 2.24888,-2.2489zM7.99644,0c2.7614,0 5,2.23858 5,5c0,2.76143 -2.2386,5.00001 -5,5.00001c-2.7614,0 -4.99998,-2.23858 -4.99998,-5.00001c0,-2.76142 2.23858,-5 4.99998,-5z" vector-effect="non-scaling-stroke"/></defs></g></svg>